<svg width="200" height="201" viewBox="0 0 200 201" fill="none" xmlns="http://www.w3.org/2000/svg">
<path d="M155.863 96.7506L150.246 110.181L171.437 118.018L177.055 104.588L155.863 96.7506Z" fill="#EBEBEB"/>
<path d="M177.048 104.757C176.962 104.803 176.871 104.838 176.776 104.863L175.976 105.133L173.048 106.074L163.328 109.154L163.248 109.18L163.204 109.109L163.104 108.943L157.94 100.455L156.4 97.8819L156 97.1748C155.947 97.0959 155.904 97.0113 155.872 96.9229C155.935 96.9953 155.989 97.0734 156.036 97.156L156.484 97.8443L158.084 100.398L163.284 108.857L163.388 109.022L163.264 108.981L173.008 105.953L175.96 105.062L176.76 104.829C176.854 104.798 176.95 104.774 177.048 104.757Z" fill="#E0E0E0"/>
<path d="M150.236 110.354C150.212 110.309 152.576 109.057 155.516 107.56C158.456 106.063 160.868 104.885 160.896 104.927C160.924 104.968 158.56 106.224 155.616 107.721C152.672 109.218 150.264 110.403 150.236 110.354Z" fill="#E0E0E0"/>
<path d="M168 107.371C168.056 107.371 168.868 109.763 169.812 112.753C170.756 115.743 171.476 118.173 171.412 118.188C171.348 118.203 170.544 115.796 169.6 112.806C168.656 109.816 167.956 107.386 168 107.371Z" fill="#E0E0E0"/>
<path d="M85.8194 153.254L65.4453 162.818L72.3007 175.73L92.6749 166.166L85.8194 153.254Z" fill="#EBEBEB"/>
<path d="M85.9639 153.386C85.937 153.474 85.9036 153.561 85.8639 153.645L85.5439 154.379C85.2519 155.033 84.8399 155.947 84.3439 157.064L80.2719 165.922L80.2359 165.993H80.1519L79.9519 165.952L69.7919 163.879L66.7159 163.229L65.8839 163.041C65.7863 163.022 65.69 162.996 65.5959 162.965C65.6958 162.967 65.7952 162.979 65.8919 163.003L66.7319 163.153L69.8199 163.744L79.9999 165.745L80.1999 165.786L80.0839 165.843C81.6839 162.397 83.1519 159.283 84.2119 157.011C84.7439 155.902 85.1759 154.996 85.4839 154.349C85.6319 154.051 85.7479 153.811 85.8359 153.63C85.8691 153.545 85.9121 153.463 85.9639 153.386Z" fill="#E0E0E0"/>
<path d="M72.4439 175.862C72.3879 175.862 72.9799 173.361 73.7639 170.303C74.5479 167.245 75.2359 164.774 75.2879 164.789C75.3399 164.804 74.7519 167.29 73.9679 170.348C73.1839 173.406 72.4959 175.873 72.4439 175.862Z" fill="#E0E0E0"/>
<path d="M81.976 161.449C82 161.4 84.448 162.446 87.44 163.785C90.432 165.124 92.844 166.252 92.8 166.297C92.756 166.342 90.332 165.3 87.336 163.961C84.34 162.622 81.952 161.494 81.976 161.449Z" fill="#E0E0E0"/>
<path d="M52.348 104.788C60.092 99.9285 61.98 90.7363 61.816 82.4468C61.788 81.0627 61.976 79.6072 61.288 78.381C60.6 77.1549 58.956 76.3049 57.612 76.8766C56.496 77.3467 56.012 78.5352 55.36 79.5094C54.5067 80.8202 53.2767 81.8776 51.812 82.5596C50.856 83.0035 49.676 83.2667 48.748 82.774C47.472 82.097 47.348 80.4459 47.38 79.0693L47.56 71.3778C47.592 70.005 47.62 68.5983 47.16 67.2857C46.7 65.9731 45.724 64.747 44.32 64.3633C42.916 63.9797 41.156 64.7056 40.836 66.0483C40.704 66.6049 40.836 67.1766 40.768 67.7596C40.7 68.3426 40.42 68.9594 39.832 69.1099C39.244 69.2603 38.652 68.8654 38.232 68.4554C36.724 67.045 35.716 65.2397 34.776 63.4494C33.836 61.6591 32.92 59.8199 31.576 58.2853C30.232 56.7508 28.312 55.5247 26.188 55.3817C24.064 55.2388 21.788 56.4236 21.216 58.353C20.644 60.2825 21.836 62.2684 23.136 63.8556C25.0724 66.2174 27.3629 68.3028 29.936 70.0464C30.4 70.3623 30.9 70.7008 31.068 71.2123C31.376 72.1338 30.424 73.0327 29.444 73.3223C28.332 73.6458 27.136 73.5254 25.98 73.6345C24.824 73.7436 23.58 74.1987 23.104 75.2066C22.476 76.6058 23.72 78.0952 24.948 79.0806C27.4147 81.0466 30.2185 82.6046 33.24 83.688C34.324 84.0641 35.468 84.4139 36.336 85.136C37.204 85.8582 37.712 87.1031 37.164 88.0659C36.616 89.0288 35.248 89.3184 34.108 89.1078C32.968 88.8971 31.956 88.3029 30.876 87.908C28.852 87.1557 26.216 87.2573 24.876 88.8746C24.004 89.9352 23.9 91.4321 24.316 92.7184C24.7925 93.9886 25.5367 95.1552 26.504 96.1486C29.6877 99.8015 33.8412 102.599 38.544 104.258C43.244 105.845 47.616 106.319 52.34 104.788" fill="#EBEBEB"/>
<path d="M50.1079 99.5674C48.6969 95.0327 47.0088 90.5784 45.0519 86.2267C44.5399 85.0632 44.0346 83.9173 43.5359 82.789C43.0319 81.6607 42.5359 80.5323 41.9799 79.483C40.8979 77.4398 39.696 75.4546 38.3799 73.5366C37.1439 71.6974 35.8919 69.9937 34.7159 68.4065C33.5399 66.8193 32.3959 65.3675 31.3039 64.0774C29.5873 62.036 27.7014 60.1256 25.6639 58.3642C24.9439 57.7399 24.3679 57.2698 23.9759 56.9576L23.5239 56.604L23.3679 56.4912C23.3679 56.4912 23.4119 56.5363 23.5119 56.6229L23.9479 56.999C24.3479 57.3224 24.8959 57.7963 25.6079 58.4282C27.6217 60.2074 29.491 62.1259 31.1999 64.1677C32.2839 65.4577 33.4079 66.9208 34.5839 68.5042C35.7599 70.0877 36.9839 71.8028 38.2279 73.6419C39.531 75.5559 40.7209 77.536 41.7919 79.5732C42.3479 80.6339 42.8399 81.7396 43.3399 82.8717C43.8399 84.0038 44.3439 85.1284 44.8559 86.3057C46.8102 90.6502 48.5009 95.0955 49.9199 99.62" fill="#E0E0E0"/>
<path d="M41.924 79.4641C41.9899 79.2727 42.0381 79.0764 42.068 78.8773C42.148 78.5012 42.248 77.9446 42.36 77.26C42.588 75.8947 42.84 73.9954 43.108 71.9042C43.376 69.813 43.66 67.9174 43.908 66.5596C44.036 65.8789 44.148 65.3297 44.228 64.9499C44.2793 64.756 44.3141 64.5585 44.332 64.3594C44.2503 64.5452 44.1874 64.7379 44.144 64.9348C44.036 65.3109 43.904 65.8525 43.744 66.5333C43.444 67.8873 43.136 69.7829 42.868 71.8779C42.6 73.9728 42.368 75.8308 42.188 77.2412C42.096 77.8957 42.02 78.441 41.964 78.8623C41.9314 79.0613 41.918 79.2627 41.924 79.4641Z" fill="#E0E0E0"/>
<path d="M22.9199 75.8914C22.9842 75.9067 23.0498 75.9168 23.1159 75.9215L23.6799 75.9741C24.1679 76.0193 24.8799 76.0832 25.7479 76.1848C27.4879 76.3803 29.8879 76.7339 32.5159 77.2303C35.1439 77.7268 37.4959 78.2835 39.1879 78.7348C40.0359 78.9529 40.7159 79.1448 41.1879 79.2764L41.7319 79.4268C41.7952 79.4481 41.861 79.462 41.9279 79.4682C41.8722 79.4341 41.8116 79.4075 41.7479 79.3892L41.2159 79.2012C40.7519 79.0432 40.0799 78.8251 39.2159 78.5919C37.5319 78.1067 35.1759 77.535 32.5439 77.031C29.9119 76.527 27.4999 76.2036 25.7439 76.0456C24.8679 75.9591 24.1439 75.9177 23.6639 75.8989H23.0959C23.0379 75.8886 22.9787 75.8861 22.9199 75.8914Z" fill="#E0E0E0"/>
<path d="M49.8999 99.2322C49.9521 99.1662 49.9952 99.0942 50.0279 99.0179C50.1159 98.8524 50.2279 98.6417 50.3639 98.3785C50.6479 97.8256 51.0439 97.0132 51.5159 96.0052C52.4639 93.993 53.6839 91.1721 54.9879 88.0429C56.2919 84.9136 57.4879 82.089 58.3959 80.0618L59.4879 77.6659L59.7799 77.0115C59.8186 76.9368 59.8494 76.8587 59.8719 76.7783C59.8191 76.8446 59.7748 76.9166 59.7399 76.9927L59.4079 77.6321C59.1199 78.185 58.7279 78.9974 58.2559 80.0054C57.3039 82.0176 56.0879 84.8384 54.7839 87.9677C53.4799 91.0969 52.2839 93.9215 51.3719 95.9488L50.2839 98.3446L49.9879 98.9991C49.949 99.0733 49.9195 99.1515 49.8999 99.2322Z" fill="#E0E0E0"/>
<path d="M24.7 91.3037C24.781 91.3417 24.8653 91.3732 24.952 91.3977L25.684 91.6309L28.4 92.4772C30.68 93.1956 33.8159 94.2223 37.2799 95.3657C40.7439 96.5091 43.8879 97.5133 46.184 98.1979C47.3279 98.5364 48.2599 98.8072 48.9079 98.9802L49.6519 99.1757C49.7372 99.2046 49.8258 99.2235 49.916 99.2322C49.8359 99.1922 49.7514 99.1606 49.664 99.1381L48.9319 98.9012L46.232 98.0549C43.952 97.3403 40.8159 96.3135 37.3519 95.1701C33.8879 94.0268 30.7439 93.0225 28.4519 92.338C27.304 91.9958 26.372 91.7287 25.724 91.5557L24.98 91.3564C24.8892 91.3284 24.7952 91.3107 24.7 91.3037Z" fill="#E0E0E0"/>
<path d="M52.7279 22.8027H30.1599C28.6046 22.8027 27.3439 23.9882 27.3439 25.4506V35.9328C27.3439 37.3952 28.6046 38.5807 30.1599 38.5807H52.7279C54.2831 38.5807 55.5439 37.3952 55.5439 35.9328V25.4506C55.5439 23.9882 54.2831 22.8027 52.7279 22.8027Z" fill="#E0E0E0"/>
<path d="M44.4958 38.0801L51.1639 43.6465L51.7119 38.1779" fill="#E0E0E0"/>
<path d="M37.776 30.9189C37.776 31.2246 37.6796 31.5235 37.499 31.7777C37.3183 32.0319 37.0616 32.23 36.7612 32.347C36.4608 32.464 36.1302 32.4946 35.8113 32.435C35.4924 32.3753 35.1995 32.2281 34.9696 32.0119C34.7396 31.7957 34.5831 31.5203 34.5196 31.2204C34.4562 30.9206 34.4887 30.6098 34.6132 30.3273C34.7376 30.0448 34.9483 29.8034 35.2187 29.6336C35.489 29.4637 35.8069 29.373 36.132 29.373C36.5681 29.373 36.9862 29.5359 37.2945 29.8258C37.6028 30.1157 37.776 30.5089 37.776 30.9189Z" fill="white"/>
<path d="M43.424 30.9189C43.424 31.2248 43.3275 31.5238 43.1466 31.7781C42.9658 32.0324 42.7088 32.2305 42.4082 32.3474C42.1076 32.4643 41.7768 32.4947 41.4578 32.4347C41.1388 32.3748 40.8458 32.2272 40.6161 32.0106C40.3863 31.794 40.2301 31.5182 40.1671 31.2181C40.1041 30.918 40.1372 30.6071 40.2623 30.3247C40.3873 30.0423 40.5987 29.8011 40.8695 29.6317C41.1404 29.4623 41.4587 29.3723 41.784 29.3731C41.9997 29.3731 42.2133 29.4131 42.4125 29.4908C42.6118 29.5685 42.7927 29.6824 42.9451 29.826C43.0974 29.9696 43.2181 30.1401 43.3003 30.3276C43.3825 30.5151 43.4245 30.7161 43.424 30.9189Z" fill="white"/>
<path d="M49.0758 30.9189C49.0758 31.2248 48.9793 31.5238 48.7985 31.7781C48.6177 32.0324 48.3607 32.2305 48.06 32.3474C47.7594 32.4643 47.4287 32.4947 47.1096 32.4347C46.7906 32.3748 46.4977 32.2272 46.2679 32.0106C46.0382 31.794 45.8819 31.5182 45.8189 31.2181C45.756 30.918 45.7891 30.6071 45.9141 30.3247C46.0392 30.0423 46.2505 29.8011 46.5214 29.6317C46.7923 29.4623 47.1105 29.3723 47.4358 29.3731C47.8712 29.374 48.2883 29.5373 48.5957 29.8271C48.9032 30.1169 49.0758 30.5095 49.0758 30.9189Z" fill="white"/>
<path d="M134.41 39.7282L128.792 53.1582L149.984 60.9953L155.602 47.5653L134.41 39.7282Z" fill="#EBEBEB"/>
<path d="M155.6 47.7387C155.514 47.7846 155.423 47.8212 155.328 47.8478L154.528 48.1148L151.6 49.0664L141.876 52.1468L141.796 52.1731L141.752 52.1016L141.652 51.9361L136.484 43.4473C135.844 42.3716 135.316 41.4953 134.94 40.8634L134.54 40.1563C134.487 40.0767 134.443 39.9923 134.408 39.9043C134.472 39.9768 134.528 40.0549 134.576 40.1375L135.02 40.8258C135.42 41.4501 135.952 42.3302 136.62 43.3796L141.82 51.8383L141.92 52.0076L141.8 51.9625L151.54 48.9536L154.496 48.0584L155.296 47.8252C155.395 47.7892 155.496 47.7603 155.6 47.7387Z" fill="#E0E0E0"/>
<path d="M128.8 53.3356C128.772 53.2905 131.136 52.038 134.076 50.5411C137.016 49.0441 139.428 47.8669 139.456 47.9083C139.484 47.9497 137.12 49.2059 134.176 50.7028C131.232 52.1997 128.8 53.3845 128.8 53.3356Z" fill="#E0E0E0"/>
<path d="M146.556 50.3525C146.608 50.3525 147.42 52.7484 148.364 55.7347C149.308 58.721 150.032 61.1583 149.964 61.1733C149.896 61.1883 149.1 58.7775 148.156 55.7911C147.212 52.8048 146.5 50.3676 146.556 50.3525Z" fill="#E0E0E0"/>
<path d="M187.24 181.455C187.24 181.508 148.18 181.553 100.004 181.553C51.828 181.553 12.76 181.508 12.76 181.455C12.76 181.403 51.812 181.357 100.004 181.357C148.196 181.357 187.24 181.399 187.24 181.455Z" fill="#263238"/>
<path d="M103.16 103.412C106.01 103.412 108.32 101.239 108.32 98.5599C108.32 95.8803 106.01 93.708 103.16 93.708C100.31 93.708 98 95.8803 98 98.5599C98 101.239 100.31 103.412 103.16 103.412Z" fill="#FF725E"/>
<path d="M120.92 103.412C123.77 103.412 126.08 101.239 126.08 98.5599C126.08 95.8803 123.77 93.708 120.92 93.708C118.07 93.708 115.76 95.8803 115.76 98.5599C115.76 101.239 118.07 103.412 120.92 103.412Z" fill="#FF725E"/>
<path d="M155.264 73.4542C155.364 73.4346 155.466 73.4282 155.568 73.4354C155.868 73.4366 156.167 73.4681 156.46 73.5294C156.947 73.6248 157.415 73.7897 157.848 74.0183C158.45 74.3358 158.978 74.7643 159.4 75.2783C159.944 75.9341 160.295 76.712 160.42 77.535C160.458 77.7653 160.479 77.9978 160.484 78.2308C160.484 78.464 160.484 78.6972 160.484 78.9379C160.484 79.4193 160.484 79.9233 160.484 80.4423C160.504 82.5298 160.52 84.9293 160.544 87.6186C160.572 93.0007 160.604 99.5451 160.644 107.079C160.644 108.962 160.652 110.905 160.668 112.908C160.668 113.911 160.668 114.928 160.668 115.959C160.668 116.474 160.668 116.993 160.668 117.516C160.668 117.775 160.668 118.039 160.668 118.302C160.663 118.587 160.637 118.871 160.588 119.152C160.381 120.321 159.75 121.387 158.802 122.169C157.854 122.95 156.648 123.399 155.388 123.44L148.1 123.462L148.532 123.086C148.06 127.904 147.564 132.993 147.044 138.273L146.964 139.097L146.284 138.571L126.72 123.413L127.04 123.519L86.9522 123.537H77.5402C77.2202 123.537 76.9282 123.537 76.5882 123.537C75.7277 123.519 74.8838 123.311 74.124 122.931C73.3641 122.551 72.7094 122.009 72.2122 121.348C71.816 120.824 71.5246 120.237 71.3522 119.614C71.2041 119.011 71.1435 118.391 71.1722 117.771C71.1722 116.618 71.1722 115.467 71.1722 114.319C71.1722 112.03 71.1722 109.757 71.1722 107.5C71.1722 98.4732 71.1922 89.785 71.2002 81.4992C71.2002 80.4649 71.2002 79.4343 71.2002 78.4151C71.1848 77.8624 71.259 77.3107 71.4202 76.779C71.5843 76.2438 71.8367 75.7362 72.1682 75.2745C72.8344 74.3651 73.7913 73.6787 74.9002 73.315C75.4437 73.1327 76.0152 73.0349 76.5922 73.0254C77.1362 73.0254 77.6442 73.0254 78.1722 73.0254L90.3162 73.048L112.112 73.1081L143.676 73.2623L152.256 73.3564L154.488 73.4053C154.743 73.4002 154.997 73.4165 155.248 73.4542C154.997 73.4943 154.743 73.5106 154.488 73.503L152.256 73.5519L143.676 73.646L112.112 73.8002L90.3162 73.8604L78.1722 73.8829C77.6562 73.8829 77.1162 73.8829 76.6122 73.8829C76.1317 73.8909 75.656 73.9735 75.2042 74.1274C74.286 74.4326 73.4946 75.0042 72.9442 75.7597C72.3878 76.5356 72.1077 77.4574 72.1442 78.3925C72.1442 79.4118 72.1442 80.4423 72.1442 81.4766C72.1442 89.7511 72.1642 98.4581 72.1762 107.477C72.1762 109.734 72.1762 112.007 72.1762 114.296V117.749C72.1469 118.287 72.1981 118.826 72.3282 119.351C72.5375 120.116 72.9691 120.81 73.5746 121.357C74.1801 121.903 74.9355 122.281 75.7562 122.447C76.0301 122.501 76.3085 122.532 76.5882 122.541C76.8722 122.541 77.2042 122.541 77.5122 122.541H87.0002L127.088 122.559H127.268L127.408 122.668L146.928 137.875L146.164 138.172C146.704 132.906 147.224 127.806 147.72 122.992L147.756 122.616H148.156H155.42C156.492 122.586 157.52 122.208 158.329 121.547C159.139 120.885 159.68 119.98 159.86 118.986C159.901 118.746 159.924 118.504 159.928 118.26C159.928 117.997 159.928 117.734 159.928 117.474C159.928 116.952 159.928 116.433 159.928 115.917C159.928 114.887 159.928 113.87 159.928 112.867C159.928 110.861 159.936 108.918 159.952 107.037C159.992 99.515 160.024 92.9594 160.052 87.5772C160.076 84.888 160.092 82.4884 160.112 80.401C160.112 79.8819 160.112 79.3779 160.112 78.8965C160.112 78.6558 160.112 78.4226 160.112 78.1894C160.112 77.9706 160.097 77.7521 160.068 77.535C159.965 76.7603 159.653 76.0234 159.16 75.3949C158.772 74.8938 158.281 74.4705 157.716 74.15C157.305 73.9147 156.861 73.7361 156.396 73.6196C155.676 73.4692 155.264 73.4918 155.264 73.4542Z" fill="#FF725E"/>
<path d="M44.2601 97.6006H122.172C123.594 97.6006 124.957 98.1316 125.962 99.0767C126.967 100.022 127.532 101.304 127.532 102.64V142.155C127.532 143.492 126.967 144.773 125.962 145.719C124.957 146.664 123.594 147.195 122.172 147.195H44.2601C42.8396 147.195 41.4772 146.664 40.4728 145.72C39.4683 144.775 38.9041 143.494 38.9041 142.159V102.64C38.9035 101.979 39.0417 101.324 39.3106 100.712C39.5795 100.101 39.974 99.545 40.4714 99.077C40.9688 98.6089 41.5594 98.2376 42.2095 97.9843C42.8596 97.731 43.5564 97.6006 44.2601 97.6006Z" fill="#FF725E"/>
<path d="M92.8162 145.607L113.772 163.104L115.492 145.92" fill="#FF725E"/>
<path d="M66.5282 127.949C69.378 127.949 71.6882 125.777 71.6882 123.097C71.6882 120.417 69.378 118.245 66.5282 118.245C63.6784 118.245 61.3682 120.417 61.3682 123.097C61.3682 125.777 63.6784 127.949 66.5282 127.949Z" fill="white"/>
<path d="M84.2882 127.949C87.138 127.949 89.4482 125.777 89.4482 123.097C89.4482 120.417 87.138 118.245 84.2882 118.245C81.4384 118.245 79.1282 120.417 79.1282 123.097C79.1282 125.777 81.4384 127.949 84.2882 127.949Z" fill="white"/>
<path d="M102.048 127.949C104.898 127.949 107.208 125.777 107.208 123.097C107.208 120.417 104.898 118.245 102.048 118.245C99.1984 118.245 96.8882 120.417 96.8882 123.097C96.8882 125.777 99.1984 127.949 102.048 127.949Z" fill="white"/>
<path d="M138.68 103.412C141.53 103.412 143.84 101.239 143.84 98.5599C143.84 95.8803 141.53 93.708 138.68 93.708C135.83 93.708 133.52 95.8803 133.52 98.5599C133.52 101.239 135.83 103.412 138.68 103.412Z" fill="#FF725E"/>
<path d="M176.288 157.113C176.644 155.962 177.4 154.857 178.576 154.371C179.752 153.886 181.208 154.157 182.456 154.586C183.704 155.015 184.932 155.583 186.256 155.658C187.58 155.733 189.08 155.146 189.476 153.954C189.848 152.826 189.128 151.637 188.232 150.821C187.281 149.962 186.115 149.342 184.843 149.017C183.57 148.693 182.231 148.675 180.948 148.964C179.666 149.254 178.482 149.842 177.505 150.674C176.527 151.507 175.789 152.557 175.356 153.728" fill="#263238"/>
<path d="M165.784 162.116C163.84 160.378 163.936 157.354 164.908 155C165.88 152.645 167.996 150.844 170.36 149.651C172.669 148.512 175.224 147.879 177.83 147.8C180.437 147.722 183.029 148.199 185.412 149.196C184.246 149.243 183.109 149.558 182.102 150.113C181.095 150.669 180.249 151.448 179.636 152.382C178.572 154.048 178.332 156.068 177.452 157.828C176.459 159.81 174.697 161.36 172.526 162.158C170.356 162.955 167.943 162.94 165.784 162.116Z" fill="#455A64"/>
<path d="M164.852 151.682C162.696 149.294 162.408 145.457 162.728 142.339C163.048 139.221 163.812 136.081 163.288 132.986C162.98 131.154 162.224 129.405 161.968 127.562C161.712 125.719 162.076 123.643 163.592 122.454C165.336 121.089 168.08 121.413 169.892 122.691C171.704 123.97 172.756 125.99 173.524 127.995C175.2 132.403 175.828 137.292 174.444 141.805C173.06 146.319 169.808 150.332 165.036 151.69" fill="#455A64"/>
<path d="M163.816 171.296C163.805 171.205 163.805 171.113 163.816 171.021C163.816 170.841 163.816 170.574 163.816 170.232C163.84 169.543 163.908 168.55 164.072 167.335C164.26 165.908 164.535 164.491 164.896 163.093C165.342 161.376 166.034 159.723 166.952 158.181C167.875 156.64 169.007 155.219 170.32 153.953C171.386 152.917 172.569 151.992 173.848 151.197C174.384 150.847 174.908 150.583 175.356 150.335C175.804 150.087 176.216 149.925 176.556 149.779L177.332 149.474C177.421 149.434 177.513 149.403 177.608 149.38C177.528 149.431 177.442 149.474 177.352 149.508L176.592 149.846C176.272 150.004 175.876 150.2 175.424 150.433C174.972 150.666 174.472 150.956 173.94 151.313C172.683 152.118 171.52 153.045 170.468 154.078C169.178 155.34 168.062 156.75 167.148 158.275C165.148 161.532 164.624 164.951 164.228 167.351C164.048 168.565 163.956 169.551 163.908 170.235C163.884 170.559 163.868 170.822 163.856 171.021C163.854 171.114 163.84 171.206 163.816 171.296Z" fill="#263238"/>
<path d="M145.24 142.253C141.24 144.51 141.268 146.571 141.936 148.515C142.604 150.46 145.044 151.806 147.072 151.08C148.22 150.667 149.048 149.73 149.76 148.79C150.472 147.849 151.132 146.842 152.128 146.157C153.124 145.472 154.56 145.224 155.56 145.894" fill="#263238"/>
<path d="M142.26 144.732C143.3 143.378 145.86 142.986 147.5 143.663C149.14 144.34 150.3 145.679 151.38 147.015C152.46 148.35 153.484 149.764 154.96 150.693C156.436 151.622 158.496 151.96 159.968 151.024C160.437 150.696 160.831 150.28 161.123 149.804C161.415 149.327 161.601 148.799 161.668 148.252C161.799 147.16 161.72 146.054 161.436 144.987C161.084 143.415 160.508 141.775 159.172 140.775C157.684 139.665 155.616 139.613 153.712 139.669C151.528 139.737 149.312 139.891 147.268 140.602C145.224 141.313 143.128 142.859 142.26 144.739" fill="#455A64"/>
<path d="M160.504 168.295C160.485 168.188 160.476 168.08 160.476 167.972L160.44 167.043C160.416 166.215 160.376 165.053 160.332 163.624C160.288 162.195 160.216 160.461 160.108 158.554C160 156.647 159.84 154.552 159.532 152.374C159.403 151.314 159.184 150.265 158.876 149.238C158.559 148.289 158.151 147.37 157.656 146.492C156.833 144.993 155.744 143.637 154.436 142.483C153.549 141.71 152.547 141.065 151.46 140.568C151.166 140.428 150.864 140.302 150.556 140.192C150.446 140.159 150.34 140.115 150.24 140.061C150.351 140.085 150.461 140.117 150.568 140.155C150.885 140.247 151.195 140.36 151.496 140.493C152.606 140.968 153.632 141.603 154.536 142.374C155.871 143.526 156.984 144.888 157.824 146.398C158.33 147.283 158.746 148.211 159.068 149.17C159.385 150.208 159.61 151.268 159.74 152.341C160.048 154.53 160.196 156.628 160.3 158.539C160.404 160.45 160.448 162.165 160.48 163.613C160.512 165.061 160.52 166.227 160.52 167.032V167.964C160.524 168.075 160.519 168.186 160.504 168.295Z" fill="#263238"/>
<path d="M161.94 169.988C161.746 169.464 161.598 168.927 161.496 168.382C161.219 166.892 161.156 165.374 161.308 163.868C161.55 161.635 162.058 159.435 162.824 157.309C163.644 154.898 164.752 152.318 165.7 149.55C166.167 148.204 166.549 146.834 166.844 145.446C167.106 144.151 167.294 142.844 167.408 141.531C167.59 139.302 167.634 137.066 167.54 134.832C167.472 132.925 167.368 131.383 167.3 130.319C167.268 129.8 167.244 129.386 167.228 129.093C167.228 128.961 167.228 128.856 167.228 128.773C167.221 128.737 167.221 128.7 167.228 128.664C167.23 128.699 167.23 128.734 167.228 128.769C167.228 128.852 167.248 128.957 167.264 129.089C167.292 129.382 167.328 129.792 167.376 130.315C167.468 131.38 167.596 132.922 167.684 134.829C167.799 137.067 167.77 139.311 167.596 141.546C167.487 142.867 167.301 144.182 167.04 145.484C166.748 146.883 166.366 148.265 165.896 149.621C164.944 152.401 163.828 154.973 163.004 157.376C162.234 159.489 161.714 161.675 161.452 163.895C161.286 165.391 161.327 166.902 161.572 168.389C161.668 168.916 161.756 169.322 161.836 169.593C161.868 169.721 161.892 169.822 161.916 169.905C161.927 169.932 161.935 169.959 161.94 169.988Z" fill="#263238"/>
<path d="M171.816 171.68H153.108L152.68 168.295H171.816V171.68Z" fill="#263238"/>
<path d="M155.116 171.297L157.456 181.456H167.62L169.808 171.297H155.116Z" fill="#263238"/>
<path d="M171.816 171.68C171.816 171.736 167.704 171.77 162.616 171.755C157.528 171.74 153.416 171.687 153.416 171.631C153.416 171.575 157.528 171.544 162.616 171.56C167.704 171.575 171.816 171.627 171.816 171.68Z" fill="#455A64"/>
<path d="M168.604 176.694C168.092 176.343 167.539 176.049 166.956 175.817C166.318 175.582 165.641 175.455 164.956 175.441C164.116 175.444 163.282 175.588 162.496 175.866C161.644 176.137 160.848 176.453 160.068 176.619C159.378 176.759 158.666 176.778 157.968 176.675C157.498 176.611 157.042 176.474 156.62 176.269C156.507 176.211 156.399 176.145 156.296 176.073C156.228 176.024 156.192 175.994 156.196 175.99C156.752 176.278 157.362 176.464 157.992 176.54C158.671 176.618 159.36 176.586 160.028 176.446C160.772 176.269 161.568 175.949 162.428 175.674C163.239 175.398 164.097 175.264 164.96 175.28C165.665 175.301 166.36 175.446 167.008 175.708C167.445 175.88 167.856 176.106 168.228 176.382C168.33 176.454 168.426 176.533 168.516 176.619C168.58 176.656 168.612 176.69 168.604 176.694Z" fill="#455A64"/>
<path d="M168.464 177.374C167.964 177.033 167.428 176.742 166.864 176.506C166.251 176.27 165.598 176.142 164.936 176.13C164.125 176.132 163.321 176.268 162.56 176.532C161.736 176.791 160.96 177.092 160.22 177.284C159.571 177.462 158.894 177.533 158.22 177.495C157.758 177.469 157.308 177.354 156.896 177.156C156.786 177.102 156.682 177.039 156.584 176.968C156.516 176.919 156.484 176.889 156.488 176.886C156.492 176.882 156.644 176.968 156.932 177.089C157.343 177.252 157.782 177.342 158.228 177.356C158.891 177.375 159.553 177.292 160.188 177.111C160.908 176.919 161.676 176.615 162.508 176.359C163.291 176.087 164.121 175.952 164.956 175.96C166.105 175.99 167.213 176.373 168.108 177.051C168.232 177.149 168.324 177.228 168.384 177.284C168.444 177.341 168.468 177.367 168.464 177.374Z" fill="white"/>
<path d="M168.8 176.032C168.268 175.672 167.7 175.362 167.104 175.107C166.453 174.844 165.759 174.687 165.052 174.644C164.185 174.627 163.324 174.77 162.516 175.065C161.695 175.369 160.857 175.626 160.004 175.836C159.286 175.953 158.553 175.953 157.836 175.836C157.352 175.763 156.883 175.622 156.444 175.419C156.327 175.36 156.214 175.294 156.108 175.219C156.036 175.167 156 175.137 156.004 175.133C156.008 175.129 156.172 175.219 156.48 175.351C156.922 175.524 157.385 175.641 157.86 175.701C158.56 175.795 159.272 175.781 159.968 175.659C160.74 175.502 161.568 175.159 162.448 174.881C163.281 174.577 164.171 174.435 165.064 174.463C165.791 174.517 166.502 174.692 167.164 174.979C167.608 175.166 168.026 175.405 168.408 175.69C168.512 175.766 168.612 175.848 168.708 175.934C168.764 175.983 168.8 176.032 168.8 176.032Z" fill="white"/>
<path d="M37.9999 165.215C37.1999 166.298 35.6279 165.937 34.8999 165.275C34.1719 164.613 33.8679 163.658 33.5879 162.744C32.9479 160.656 32.3039 158.467 32.7879 156.35C32.8976 155.699 33.1998 155.09 33.6599 154.593C33.8896 154.349 34.1836 154.167 34.5123 154.064C34.8409 153.961 35.1926 153.941 35.5319 154.007C36.3319 154.202 36.8159 154.928 37.1719 155.62C38.2145 157.666 38.7609 159.904 38.7719 162.172C38.7719 163.229 38.6439 164.335 38.0079 165.207" fill="#FF725E"/>
<g opacity="0.2">
<path d="M37.9999 165.215C37.1999 166.298 35.6279 165.937 34.8999 165.275C34.1719 164.613 33.8679 163.658 33.5879 162.744C32.9479 160.656 32.3039 158.467 32.7879 156.35C32.8976 155.699 33.1998 155.09 33.6599 154.593C33.8896 154.349 34.1836 154.167 34.5123 154.064C34.8409 153.961 35.1926 153.941 35.5319 154.007C36.3319 154.202 36.8159 154.928 37.1719 155.62C38.2145 157.666 38.7609 159.904 38.7719 162.172C38.7719 163.229 38.6439 164.335 38.0079 165.207" fill="black"/>
</g>
<path d="M34.9919 170.698C33.6397 170.103 32.1205 169.929 30.6559 170.202C29.8545 170.268 29.0996 170.584 28.5119 171.101C27.9799 171.658 27.8759 172.635 28.5119 173.113C28.9077 173.365 29.3846 173.478 29.8599 173.433C31.0079 173.433 32.2799 173.233 33.1959 173.88C33.7159 174.257 34.0639 174.866 34.6919 175.046C35.004 175.115 35.3313 175.085 35.6243 174.963C35.9173 174.841 36.16 174.633 36.3159 174.369C36.614 173.829 36.6799 173.201 36.4999 172.617C36.4235 172.209 36.2476 171.824 35.9859 171.491C35.7242 171.158 35.384 170.887 34.9919 170.698Z" fill="#FF725E"/>
<path d="M40.2278 166.768C39.8133 166.26 39.5372 165.663 39.4235 165.031C39.3099 164.4 39.3622 163.751 39.5758 163.143C40.0162 161.925 40.8067 160.846 41.8598 160.025C43.0547 159.029 44.4447 158.263 45.9518 157.768C46.5353 157.546 47.1631 157.446 47.7918 157.475C48.1058 157.491 48.4108 157.579 48.68 157.732C48.9492 157.884 49.1744 158.097 49.3358 158.351C49.7638 159.122 49.3358 160.058 48.9038 160.822C48.1191 162.169 47.2216 163.456 46.2198 164.67C45.4198 165.647 44.4918 166.61 43.2638 167.05C42.0358 167.49 40.7598 167.426 40.1118 166.64" fill="#FF725E"/>
<path d="M38.0678 181.549C38.024 181.389 37.9999 181.225 37.9958 181.06C37.9558 180.684 37.9119 180.252 37.8559 179.714C37.7999 179.176 37.6998 178.476 37.5358 177.747C37.3477 176.953 37.0922 176.174 36.7719 175.418C36.4599 174.665 36.0356 173.957 35.5119 173.316C35.083 172.794 34.5366 172.367 33.9118 172.067C33.4879 171.876 33.0343 171.749 32.5678 171.691C32.3926 171.682 32.2186 171.658 32.0479 171.62C32.2245 171.599 32.4032 171.599 32.5798 171.62C33.0648 171.653 33.5392 171.769 33.9798 171.962C34.6377 172.253 35.2142 172.685 35.6639 173.222C36.2115 173.871 36.6525 174.594 36.9719 175.366C37.2979 176.132 37.5509 176.923 37.7279 177.732C37.8644 178.39 37.9579 179.056 38.0078 179.725C38.0518 180.297 38.0718 180.756 38.0798 181.075C38.0947 181.233 38.0906 181.392 38.0678 181.549Z" fill="#263238"/>
<path d="M37.9679 180.519C37.9575 180.443 37.9575 180.366 37.9679 180.29V179.635C37.9679 179.071 37.9679 178.251 37.9399 177.236C37.8839 175.212 37.6999 172.414 37.3399 169.337C36.9799 166.261 36.4999 163.5 36.0639 161.514C35.9639 161.018 35.8599 160.57 35.7599 160.179C35.6599 159.788 35.5879 159.446 35.5119 159.175C35.4359 158.904 35.3919 158.705 35.3479 158.539C35.3256 158.466 35.3121 158.39 35.3079 158.313C35.3459 158.381 35.3742 158.453 35.3919 158.528L35.5919 159.152C35.6839 159.423 35.7759 159.762 35.8799 160.153C35.9839 160.544 36.1039 160.988 36.2159 161.484C36.8119 164.07 37.2592 166.684 37.5559 169.315C37.9159 172.395 38.0759 175.201 38.0919 177.232C38.0919 178.247 38.0919 179.067 38.0519 179.635C38.0519 179.899 38.0199 180.117 38.0119 180.286C38.0086 180.365 37.9938 180.444 37.9679 180.519Z" fill="#263238"/>
<path d="M37.9558 175.111C37.9366 174.883 37.9366 174.654 37.9558 174.426C37.9838 173.99 38.0478 173.354 38.1798 172.58C38.5352 170.557 39.1518 168.583 40.0158 166.701C40.8449 164.798 42.0364 163.053 43.5318 161.552C43.791 161.295 44.0676 161.054 44.3598 160.83C44.4838 160.728 44.5958 160.627 44.7118 160.548L45.0318 160.341C45.2243 160.2 45.429 160.074 45.6438 159.965C44.9421 160.486 44.2742 161.046 43.6438 161.642C42.2019 163.159 41.0429 164.893 40.2158 166.772C39.7429 167.8 39.342 168.855 39.0158 169.932C38.7038 170.921 38.4958 171.831 38.3358 172.598C38.1758 173.366 38.0998 173.994 38.0478 174.426C38.0333 174.656 38.0026 174.885 37.9558 175.111Z" fill="#263238"/>
</svg>
