<svg width="200" height="201" viewBox="0 0 200 201" fill="none" xmlns="http://www.w3.org/2000/svg">
<path opacity="0.7" d="M27.172 68.8734C27.172 68.8734 16.02 95.9535 31.692 123.222C47.364 150.49 79.644 164.895 105.48 177.213C131.316 189.53 158.144 183.531 170.892 163.357C183.64 143.182 166.156 128.781 166.132 100.012C166.108 71.2429 170.712 63.6266 154.132 39.3222C137.552 15.0178 96.908 9.63565 66.172 27.6627C35.436 45.6898 27.172 68.8734 27.172 68.8734Z" fill="white"/>
<path opacity="0.7" d="M99.248 15.8563C10.252 20.5389 -8.85201 131.53 20.952 165.474C44.084 191.821 85.328 187.473 107.096 161.683C125.024 140.451 154.04 156.135 177.96 133.177C209.124 103.265 199.108 10.602 99.248 15.8563Z" fill="#EBEBEB"/>
<path d="M138.86 45.456V151.497C138.86 151.779 138.741 152.049 138.53 152.248C138.319 152.448 138.032 152.561 137.732 152.562H70.0402C69.74 152.562 69.452 152.449 69.2398 152.25C69.0275 152.05 68.9082 151.779 68.9082 151.497V45.456C68.9082 45.1737 69.0275 44.903 69.2398 44.7034C69.452 44.5037 69.74 44.3916 70.0402 44.3916H88.7162L89.3282 46.3474H118.48L119.096 44.3916H137.752C138.048 44.3975 138.33 44.5122 138.537 44.7112C138.744 44.9102 138.86 45.1776 138.86 45.456Z" fill="#FF725E"/>
<mask id="mask0_38_2881" style="mask-type:luminance" maskUnits="userSpaceOnUse" x="68" y="44" width="71" height="109">
<path d="M138.86 45.456V151.497C138.86 151.779 138.741 152.049 138.53 152.248C138.319 152.448 138.032 152.561 137.732 152.562H70.0402C69.74 152.562 69.452 152.449 69.2398 152.25C69.0275 152.05 68.9082 151.779 68.9082 151.497V45.456C68.9082 45.1737 69.0275 44.903 69.2398 44.7034C69.452 44.5037 69.74 44.3916 70.0402 44.3916H88.7162L89.3282 46.3474H118.48L119.096 44.3916H137.752C138.048 44.3975 138.33 44.5122 138.537 44.7112C138.744 44.9102 138.86 45.1776 138.86 45.456Z" fill="white"/>
</mask>
<g mask="url(#mask0_38_2881)">
<path opacity="0.5" d="M138.86 54.6445V151.497C138.86 151.779 138.741 152.049 138.53 152.249C138.319 152.448 138.032 152.561 137.732 152.562H70.0402C69.74 152.562 69.452 152.45 69.2398 152.25C69.0275 152.05 68.9082 151.78 68.9082 151.497V54.6445H138.86Z" fill="white"/>
<g opacity="0.2">
<path d="M126.992 64.4912H68.8042V88.2879H126.992C127.353 88.2879 127.699 88.1531 127.954 87.9133C128.209 87.6735 128.352 87.3482 128.352 87.0091V65.77C128.352 65.4308 128.209 65.1056 127.954 64.8658C127.699 64.6259 127.353 64.4912 126.992 64.4912Z" fill="black"/>
<path d="M120.972 89.8672H68.8042V114.871H120.972C121.351 114.871 121.714 114.73 121.982 114.478C122.25 114.226 122.4 113.885 122.4 113.528V91.2062C122.4 91.03 122.363 90.8556 122.291 90.6929C122.22 90.5302 122.114 90.3824 121.982 90.258C121.849 90.1336 121.692 90.0351 121.518 89.968C121.345 89.901 121.16 89.8667 120.972 89.8672Z" fill="black"/>
<path d="M126.992 114.379H68.8042V138.164H126.992C127.352 138.164 127.698 138.03 127.952 137.791C128.207 137.552 128.351 137.228 128.352 136.889V115.658C128.352 115.319 128.209 114.993 127.954 114.753C127.699 114.514 127.353 114.379 126.992 114.379Z" fill="black"/>
<path d="M128.348 140.601V152.561H70.0402C69.74 152.561 69.452 152.449 69.2398 152.25C69.0275 152.05 68.9082 151.779 68.9082 151.497V139.322H126.992C127.352 139.323 127.697 139.458 127.951 139.698C128.205 139.938 128.348 140.263 128.348 140.601Z" fill="black"/>
<path d="M133.812 65.9504V72.066C133.812 72.3191 133.74 72.5676 133.605 72.7867C133.471 73.0058 133.277 73.1878 133.044 73.3147V152.562H131.516V73.2997C131.283 73.1728 131.09 72.9907 130.955 72.7716C130.82 72.5525 130.749 72.3041 130.748 72.051V65.9504C130.768 65.5796 130.939 65.2303 131.225 64.9745C131.512 64.7188 131.891 64.5762 132.286 64.5762C132.681 64.5762 133.061 64.7188 133.347 64.9745C133.633 65.2303 133.804 65.5796 133.824 65.9504H133.812Z" fill="black"/>
</g>
</g>
<path d="M138.86 45.456V151.497C138.86 151.779 138.741 152.049 138.53 152.248C138.319 152.448 138.032 152.561 137.732 152.562H70.0402C69.74 152.562 69.452 152.449 69.2398 152.25C69.0275 152.05 68.9082 151.779 68.9082 151.497V45.456C68.9082 45.1737 69.0275 44.903 69.2398 44.7034C69.452 44.5037 69.74 44.3916 70.0402 44.3916H88.7162L89.3282 46.3474H118.48L119.096 44.3916H137.752C138.048 44.3975 138.33 44.5122 138.537 44.7112C138.744 44.9102 138.86 45.1776 138.86 45.456Z" stroke="#263238" stroke-width="0.44393" stroke-linecap="round" stroke-linejoin="round"/>
<path d="M68.9082 54.7344H138.86" stroke="#263238" stroke-width="0.44393" stroke-linecap="round" stroke-linejoin="round"/>
<path d="M119.664 61.4785H62.2601C61.509 61.4785 60.9001 62.051 60.9001 62.7573V82.8417C60.9001 83.548 61.509 84.1205 62.2601 84.1205H119.664C120.415 84.1205 121.024 83.548 121.024 82.8417V62.7573C121.024 62.051 120.415 61.4785 119.664 61.4785Z" fill="white"/>
<mask id="mask1_38_2881" style="mask-type:luminance" maskUnits="userSpaceOnUse" x="60" y="61" width="62" height="24">
<path d="M119.664 61.4785H62.2601C61.509 61.4785 60.9001 62.051 60.9001 62.7573V82.8417C60.9001 83.548 61.509 84.1205 62.2601 84.1205H119.664C120.415 84.1205 121.024 83.548 121.024 82.8417V62.7573C121.024 62.051 120.415 61.4785 119.664 61.4785Z" fill="white"/>
</mask>
<g mask="url(#mask1_38_2881)">
<path d="M83.3723 64.1152H63.8203V81.4803H83.3723V64.1152Z" fill="white" stroke="#263238" stroke-width="0.44393" stroke-linecap="round" stroke-linejoin="round"/>
<path d="M105.116 65.6421H87.6203C87.4081 65.6421 87.2047 65.5629 87.0546 65.4218C86.9046 65.2808 86.8203 65.0894 86.8203 64.8899C86.8203 64.6904 86.9046 64.4991 87.0546 64.358C87.2047 64.2169 87.4081 64.1377 87.6203 64.1377H105.116C105.328 64.1377 105.532 64.2169 105.682 64.358C105.832 64.4991 105.916 64.6904 105.916 64.8899C105.916 65.0894 105.832 65.2808 105.682 65.4218C105.532 65.5629 105.328 65.6421 105.116 65.6421Z" fill="#263238"/>
<path d="M94.8203 69.0123H87.6203C87.4081 69.0123 87.2047 68.933 87.0546 68.7919C86.9046 68.6509 86.8203 68.4595 86.8203 68.26C86.8203 68.0605 86.9046 67.8692 87.0546 67.7281C87.2047 67.5871 87.4081 67.5078 87.6203 67.5078H94.8203C95.0325 67.5078 95.236 67.5871 95.386 67.7281C95.536 67.8692 95.6203 68.0605 95.6203 68.26C95.6203 68.4595 95.536 68.6509 95.386 68.7919C95.236 68.933 95.0325 69.0123 94.8203 69.0123Z" fill="#263238"/>
<path d="M109.86 77.494C109.558 77.3989 109.231 77.4029 108.931 77.5054C108.632 77.6078 108.378 77.8027 108.212 78.0582C108.05 77.8001 107.799 77.6013 107.502 77.494C107.204 77.3868 106.876 77.3775 106.572 77.4677C105.62 77.7385 105.284 78.8706 106.072 79.9162C106.601 80.5476 107.272 81.0614 108.036 81.4206L108.188 81.4883L108.336 81.4244C109.11 81.0791 109.793 80.5769 110.336 79.9538C111.116 78.912 110.808 77.7723 109.86 77.494Z" fill="#FF725E" stroke="#263238" stroke-width="0.44393" stroke-linecap="round" stroke-linejoin="round"/>
<path d="M116.656 80.1077H113.748L113.452 77.4072H116.952L116.656 80.1077Z" fill="white" stroke="#263238" stroke-width="0.44393" stroke-linecap="round" stroke-linejoin="round"/>
<path d="M113.556 78.3281H116.848" stroke="#263238" stroke-width="0.44393" stroke-linecap="round" stroke-linejoin="round"/>
<path d="M113.66 79.1865H116.744" stroke="#263238" stroke-width="0.44393" stroke-linecap="round" stroke-linejoin="round"/>
<path d="M114.552 77.4072L114.624 80.1077" stroke="#263238" stroke-width="0.44393" stroke-linecap="round" stroke-linejoin="round"/>
<path d="M115.852 77.4072L115.764 80.1077" stroke="#263238" stroke-width="0.44393" stroke-linecap="round" stroke-linejoin="round"/>
<path d="M116.936 77.3994L117.748 77.1211" stroke="#263238" stroke-width="0.44393" stroke-linecap="round" stroke-linejoin="round"/>
<path d="M117.428 81.4162C117.428 81.4854 117.406 81.553 117.365 81.6105C117.325 81.668 117.266 81.7129 117.198 81.7393C117.13 81.7658 117.056 81.7728 116.984 81.7593C116.911 81.7458 116.845 81.7124 116.793 81.6635C116.741 81.6146 116.706 81.5523 116.691 81.4844C116.677 81.4166 116.684 81.3462 116.712 81.2823C116.741 81.2184 116.788 81.1638 116.849 81.1254C116.911 81.0869 116.983 81.0664 117.056 81.0664C117.155 81.0664 117.249 81.1033 117.319 81.1689C117.389 81.2345 117.428 81.3234 117.428 81.4162Z" fill="white" stroke="#263238" stroke-width="0.44393" stroke-linecap="round" stroke-linejoin="round"/>
<path d="M113.636 81.4162C113.636 81.4854 113.614 81.553 113.573 81.6105C113.533 81.668 113.474 81.7129 113.406 81.7393C113.338 81.7658 113.264 81.7728 113.192 81.7593C113.119 81.7458 113.053 81.7124 113.001 81.6635C112.949 81.6146 112.914 81.5523 112.899 81.4844C112.885 81.4166 112.892 81.3462 112.92 81.2823C112.949 81.2184 112.996 81.1638 113.057 81.1254C113.119 81.0869 113.191 81.0664 113.264 81.0664C113.363 81.0664 113.457 81.1033 113.527 81.1689C113.597 81.2345 113.636 81.3234 113.636 81.4162Z" fill="white" stroke="#263238" stroke-width="0.44393" stroke-linecap="round" stroke-linejoin="round"/>
<path d="M113.36 80.585H117.056" stroke="#263238" stroke-width="0.44393" stroke-linecap="round" stroke-linejoin="round"/>
<path d="M68.3162 71.558L69.5162 77.9858H77.5162L79.0682 71.558C79.0682 71.558 77.6922 70.2529 77.7482 67.1838L76.7722 66.8604C76.7722 66.8604 77.0602 69.4931 73.6122 69.4931C70.1642 69.4931 70.0522 67.1199 70.0522 67.1199L69.0762 67.4734C69.0762 67.4734 69.6922 70.0874 68.3162 71.558Z" fill="#FF725E" stroke="#263238" stroke-width="0.44393" stroke-linecap="round" stroke-linejoin="round"/>
<path d="M75.9762 71.9684C75.3668 71.9157 74.7536 71.9157 74.1442 71.9684L73.6842 70.998L73.3242 72.0023C72.4002 72.0436 71.5842 72.0888 71.5842 72.0888L72.9922 72.9313C72.7482 73.5932 72.5122 74.2213 72.4042 74.4357C72.4042 74.4357 73.1042 73.9806 73.8842 73.4616L75.2482 74.274L74.6242 72.9651C75.1077 72.6742 75.5604 72.3404 75.9762 71.9684Z" fill="#FF725E" stroke="#263238" stroke-width="0.44393" stroke-linecap="round" stroke-linejoin="round"/>
<path opacity="0.2" d="M118.024 80.1074H60.9001V82.8418C60.9001 83.1809 61.0434 83.5062 61.2985 83.746C61.5535 83.9858 61.8994 84.1205 62.2601 84.1205H119.336V81.3411C119.336 81.1791 119.302 81.0186 119.236 80.869C119.17 80.7193 119.074 80.5833 118.952 80.4688C118.83 80.3542 118.685 80.2633 118.526 80.2013C118.367 80.1393 118.196 80.1074 118.024 80.1074Z" fill="black"/>
</g>
<path d="M119.664 61.4785H62.2601C61.509 61.4785 60.9001 62.051 60.9001 62.7573V82.8417C60.9001 83.548 61.509 84.1205 62.2601 84.1205H119.664C120.415 84.1205 121.024 83.548 121.024 82.8417V62.7573C121.024 62.051 120.415 61.4785 119.664 61.4785Z" stroke="#263238" stroke-width="0.44393" stroke-linecap="round" stroke-linejoin="round"/>
<path d="M121.024 110.218V130.31C121.024 130.478 120.988 130.643 120.919 130.798C120.851 130.952 120.75 131.093 120.624 131.211C120.498 131.329 120.348 131.422 120.183 131.486C120.019 131.55 119.842 131.582 119.664 131.582H62.2601C62.0821 131.582 61.9056 131.55 61.7409 131.486C61.5762 131.422 61.4264 131.329 61.3001 131.211C61.1738 131.093 61.0735 130.952 61.0049 130.798C60.9363 130.643 60.9007 130.478 60.9001 130.31V110.218C60.9012 109.88 61.045 109.556 61.2999 109.317C61.5548 109.078 61.9001 108.943 62.2601 108.943H119.664C120.024 108.943 120.369 109.078 120.624 109.317C120.879 109.556 121.023 109.88 121.024 110.218Z" fill="white"/>
<mask id="mask2_38_2881" style="mask-type:luminance" maskUnits="userSpaceOnUse" x="60" y="108" width="62" height="24">
<path d="M121.024 110.218V130.31C121.024 130.478 120.988 130.643 120.919 130.798C120.851 130.952 120.75 131.093 120.624 131.211C120.498 131.329 120.348 131.422 120.183 131.486C120.019 131.55 119.842 131.582 119.664 131.582H62.2601C62.0821 131.582 61.9056 131.55 61.7409 131.486C61.5762 131.422 61.4264 131.329 61.3001 131.211C61.1738 131.093 61.0735 130.952 61.0049 130.798C60.9363 130.643 60.9007 130.478 60.9001 130.31V110.218C60.9012 109.88 61.045 109.556 61.2999 109.317C61.5548 109.078 61.9001 108.943 62.2601 108.943H119.664C120.024 108.943 120.369 109.078 120.624 109.317C120.879 109.556 121.023 109.88 121.024 110.218Z" fill="white"/>
</mask>
<g mask="url(#mask2_38_2881)">
<path d="M83.3723 111.58H63.8203V128.945H83.3723V111.58Z" fill="white" stroke="#263238" stroke-width="0.44393" stroke-linecap="round" stroke-linejoin="round"/>
<path d="M105.116 113.107H87.6203C87.4081 113.107 87.2047 113.028 87.0546 112.887C86.9046 112.746 86.8203 112.554 86.8203 112.355C86.8203 112.155 86.9046 111.964 87.0546 111.823C87.2047 111.682 87.4081 111.603 87.6203 111.603H105.116C105.328 111.603 105.532 111.682 105.682 111.823C105.832 111.964 105.916 112.155 105.916 112.355C105.916 112.554 105.832 112.746 105.682 112.887C105.532 113.028 105.328 113.107 105.116 113.107Z" fill="#263238"/>
<path d="M94.9241 114.95H87.5161C87.1251 114.95 86.8081 115.248 86.8081 115.616V115.811C86.8081 116.179 87.1251 116.477 87.5161 116.477H94.9241C95.3151 116.477 95.6321 116.179 95.6321 115.811V115.616C95.6321 115.248 95.3151 114.95 94.9241 114.95Z" fill="#263238"/>
<path d="M109.86 124.958C109.558 124.863 109.23 124.868 108.93 124.971C108.631 125.074 108.378 125.27 108.212 125.526C108.05 125.267 107.8 125.068 107.502 124.961C107.204 124.853 106.876 124.844 106.572 124.935C105.62 125.202 105.284 126.338 106.072 127.38C106.6 128.012 107.271 128.526 108.036 128.884L108.188 128.956L108.336 128.888C109.11 128.543 109.793 128.041 110.336 127.418C111.116 126.379 110.808 125.24 109.86 124.958Z" fill="#FF725E" stroke="#263238" stroke-width="0.44393" stroke-linecap="round" stroke-linejoin="round"/>
<path d="M116.656 127.573H113.748L113.452 124.876H116.952L116.656 127.573Z" fill="white" stroke="#263238" stroke-width="0.44393" stroke-linecap="round" stroke-linejoin="round"/>
<path d="M113.556 125.793H116.848" stroke="#263238" stroke-width="0.44393" stroke-linecap="round" stroke-linejoin="round"/>
<path d="M113.66 126.65H116.744" stroke="#263238" stroke-width="0.44393" stroke-linecap="round" stroke-linejoin="round"/>
<path d="M114.552 124.876L114.624 127.573" stroke="#263238" stroke-width="0.44393" stroke-linecap="round" stroke-linejoin="round"/>
<path d="M115.852 124.876L115.764 127.573" stroke="#263238" stroke-width="0.44393" stroke-linecap="round" stroke-linejoin="round"/>
<path d="M116.936 124.864L117.748 124.586" stroke="#263238" stroke-width="0.44393" stroke-linecap="round" stroke-linejoin="round"/>
<path d="M117.428 128.881C117.428 128.95 117.406 129.018 117.365 129.075C117.325 129.133 117.266 129.178 117.198 129.204C117.13 129.231 117.056 129.238 116.984 129.224C116.911 129.211 116.845 129.177 116.793 129.128C116.741 129.079 116.706 129.017 116.691 128.949C116.677 128.881 116.684 128.811 116.712 128.747C116.741 128.683 116.788 128.629 116.849 128.59C116.911 128.552 116.983 128.531 117.056 128.531C117.155 128.531 117.249 128.568 117.319 128.634C117.389 128.699 117.428 128.788 117.428 128.881Z" fill="white" stroke="#263238" stroke-width="0.44393" stroke-linecap="round" stroke-linejoin="round"/>
<path d="M113.636 128.881C113.636 128.95 113.614 129.018 113.573 129.075C113.533 129.133 113.474 129.178 113.406 129.204C113.338 129.231 113.264 129.238 113.192 129.224C113.119 129.211 113.053 129.177 113.001 129.128C112.949 129.079 112.914 129.017 112.899 128.949C112.885 128.881 112.892 128.811 112.92 128.747C112.949 128.683 112.996 128.629 113.057 128.59C113.119 128.552 113.191 128.531 113.264 128.531C113.363 128.531 113.457 128.568 113.527 128.634C113.597 128.699 113.636 128.788 113.636 128.881Z" fill="white" stroke="#263238" stroke-width="0.44393" stroke-linecap="round" stroke-linejoin="round"/>
<path d="M113.36 128.05H117.056" stroke="#263238" stroke-width="0.44393" stroke-linecap="round" stroke-linejoin="round"/>
<path d="M68.8281 125.5V126.222H73.4241C73.4241 126.222 74.8161 124.676 75.5921 124.864C76.3681 125.053 76.2801 126.222 76.2801 126.222H77.4441L77.8441 125.5L77.5161 121.528L68.8281 125.5Z" fill="white" stroke="#263238" stroke-width="0.44393" stroke-linecap="round" stroke-linejoin="round"/>
<path d="M68.8281 125.5H73.1601C73.1601 125.5 74.5161 124.327 75.5601 123.996C76.6041 123.665 76.8521 125.5 76.8521 125.5H77.8441C77.8441 125.5 78.6441 123.473 78.6441 123.243C78.6441 123.014 77.8681 119.516 77.8681 117.248C77.8681 117.248 75.2401 117.207 74.8961 117.624C74.8961 117.624 74.3361 116.853 73.9881 116.936C74.1851 117.855 74.2577 118.794 74.2041 119.73C74.0761 120.945 72.3081 122.89 70.6281 123.458C69.5361 123.807 69.0881 124.202 68.8281 125.5Z" fill="#FF725E" stroke="#263238" stroke-width="0.44393" stroke-linecap="round" stroke-linejoin="round"/>
<path d="M74.9042 117.602C74.9042 117.602 74.9882 119.99 74.9042 120.475C74.8202 120.96 72.5322 123.352 72.3162 123.435" stroke="#263238" stroke-width="0.44393" stroke-linecap="round" stroke-linejoin="round"/>
<path d="M74.2202 118.522H75.3322" stroke="#263238" stroke-width="0.44393" stroke-linecap="round" stroke-linejoin="round"/>
<path d="M74.2122 119.708L75.3322 119.546" stroke="#263238" stroke-width="0.44393" stroke-linecap="round" stroke-linejoin="round"/>
<path d="M73.9001 120.517L75.3322 120.678" stroke="#263238" stroke-width="0.44393" stroke-linecap="round" stroke-linejoin="round"/>
<path d="M73.4243 121.201L74.7763 121.528" stroke="#263238" stroke-width="0.44393" stroke-linecap="round" stroke-linejoin="round"/>
<path d="M72.8162 121.916L73.9002 122.503" stroke="#263238" stroke-width="0.44393" stroke-linecap="round" stroke-linejoin="round"/>
<path d="M70.6361 123.436C71.0351 123.636 71.3696 123.933 71.6046 124.296C71.8396 124.659 71.9666 125.075 71.9721 125.5H68.8281C68.9058 125.036 69.1145 124.599 69.4325 124.236C69.7505 123.873 70.1661 123.596 70.6361 123.436Z" fill="white" stroke="#263238" stroke-width="0.44393" stroke-linecap="round" stroke-linejoin="round"/>
<path d="M77.1962 122.428C77.1962 122.529 77.1642 122.628 77.1045 122.712C77.0447 122.796 76.9597 122.861 76.8603 122.9C76.7609 122.939 76.6515 122.949 76.546 122.929C76.4405 122.909 76.3436 122.861 76.2675 122.789C76.1914 122.718 76.1396 122.627 76.1186 122.527C76.0976 122.428 76.1084 122.325 76.1496 122.232C76.1907 122.138 76.2605 122.058 76.3499 122.002C76.4394 121.946 76.5446 121.916 76.6522 121.916C76.7964 121.916 76.9348 121.97 77.0368 122.066C77.1388 122.162 77.1962 122.292 77.1962 122.428Z" fill="white" stroke="#263238" stroke-width="0.44393" stroke-linecap="round" stroke-linejoin="round"/>
<path opacity="0.2" d="M119.336 108.943H62.2601C61.9001 108.943 61.5548 109.078 61.2999 109.317C61.045 109.556 60.9012 109.88 60.9001 110.218V117.853H118.024C118.372 117.853 118.706 117.723 118.952 117.492C119.198 117.261 119.336 116.947 119.336 116.62V108.943Z" fill="black"/>
</g>
<path d="M121.024 110.218V130.31C121.024 130.478 120.988 130.643 120.919 130.798C120.851 130.952 120.75 131.093 120.624 131.211C120.498 131.329 120.348 131.422 120.183 131.486C120.019 131.55 119.842 131.582 119.664 131.582H62.2601C62.0821 131.582 61.9056 131.55 61.7409 131.486C61.5762 131.422 61.4264 131.329 61.3001 131.211C61.1738 131.093 61.0735 130.952 61.0049 130.798C60.9363 130.643 60.9007 130.478 60.9001 130.31V110.218C60.9012 109.88 61.045 109.556 61.2999 109.317C61.5548 109.078 61.9001 108.943 62.2601 108.943H119.664C120.024 108.943 120.369 109.078 120.624 109.317C120.879 109.556 121.023 109.88 121.024 110.218Z" stroke="#263238" stroke-width="0.44393" stroke-linecap="round" stroke-linejoin="round"/>
<path d="M119.836 132.677H62.0881C61.432 132.677 60.9001 133.177 60.9001 133.794V154.202C60.9001 154.819 61.432 155.319 62.0881 155.319H119.836C120.492 155.319 121.024 154.819 121.024 154.202V133.794C121.024 133.177 120.492 132.677 119.836 132.677Z" fill="white" stroke="#263238" stroke-width="0.44393" stroke-linecap="round" stroke-linejoin="round"/>
<path d="M83.3721 135.313H63.8201V152.679H83.3721V135.313Z" fill="white" stroke="#263238" stroke-width="0.44393" stroke-linecap="round" stroke-linejoin="round"/>
<path d="M105.116 136.843H87.6201C87.4079 136.843 87.2044 136.764 87.0544 136.623C86.9044 136.482 86.8201 136.291 86.8201 136.091C86.8201 135.892 86.9044 135.7 87.0544 135.559C87.2044 135.418 87.4079 135.339 87.6201 135.339H105.116C105.328 135.339 105.532 135.418 105.682 135.559C105.832 135.7 105.916 135.892 105.916 136.091C105.916 136.291 105.832 136.482 105.682 136.623C105.532 136.764 105.328 136.843 105.116 136.843Z" fill="#263238"/>
<path d="M94.8201 140.213H87.6201C87.4079 140.213 87.2044 140.134 87.0544 139.993C86.9044 139.852 86.8201 139.661 86.8201 139.461C86.8201 139.262 86.9044 139.07 87.0544 138.929C87.2044 138.788 87.4079 138.709 87.6201 138.709H94.8201C95.0322 138.709 95.2357 138.788 95.3858 138.929C95.5358 139.07 95.6201 139.262 95.6201 139.461C95.6201 139.661 95.5358 139.852 95.3858 139.993C95.2357 140.134 95.0322 140.213 94.8201 140.213Z" fill="#263238"/>
<path d="M109.86 148.695C109.558 148.6 109.23 148.605 108.93 148.708C108.631 148.811 108.378 149.007 108.212 149.263C108.05 149.004 107.8 148.805 107.502 148.698C107.204 148.591 106.876 148.582 106.572 148.673C105.62 148.94 105.284 150.075 106.072 151.117C106.6 151.75 107.271 152.264 108.036 152.622L108.188 152.693L108.336 152.625C109.112 152.283 109.795 151.78 110.336 151.155C111.116 150.113 110.808 148.973 109.86 148.695Z" fill="#FF725E" stroke="#263238" stroke-width="0.44393" stroke-linecap="round" stroke-linejoin="round"/>
<path d="M116.656 151.305H113.748L113.452 148.608H116.952L116.656 151.305Z" fill="white" stroke="#263238" stroke-width="0.44393" stroke-linecap="round" stroke-linejoin="round"/>
<path d="M113.556 149.53H116.848" stroke="#263238" stroke-width="0.44393" stroke-linecap="round" stroke-linejoin="round"/>
<path d="M113.66 150.384H116.744" stroke="#263238" stroke-width="0.44393" stroke-linecap="round" stroke-linejoin="round"/>
<path d="M114.552 148.608L114.624 151.305" stroke="#263238" stroke-width="0.44393" stroke-linecap="round" stroke-linejoin="round"/>
<path d="M115.852 148.608L115.764 151.305" stroke="#263238" stroke-width="0.44393" stroke-linecap="round" stroke-linejoin="round"/>
<path d="M116.936 148.598L117.748 148.319" stroke="#263238" stroke-width="0.44393" stroke-linecap="round" stroke-linejoin="round"/>
<path d="M117.428 152.614C117.428 152.684 117.406 152.751 117.365 152.809C117.325 152.866 117.266 152.911 117.198 152.938C117.13 152.964 117.056 152.971 116.984 152.957C116.911 152.944 116.845 152.911 116.793 152.862C116.741 152.813 116.706 152.751 116.691 152.683C116.677 152.615 116.684 152.544 116.712 152.481C116.741 152.417 116.788 152.362 116.849 152.324C116.911 152.285 116.983 152.265 117.056 152.265C117.155 152.265 117.249 152.302 117.319 152.367C117.389 152.433 117.428 152.522 117.428 152.614Z" fill="white" stroke="#263238" stroke-width="0.44393" stroke-linecap="round" stroke-linejoin="round"/>
<path d="M113.636 152.614C113.636 152.684 113.614 152.751 113.573 152.809C113.533 152.866 113.474 152.911 113.406 152.938C113.338 152.964 113.264 152.971 113.192 152.957C113.119 152.944 113.053 152.911 113.001 152.862C112.949 152.813 112.914 152.751 112.899 152.683C112.885 152.615 112.892 152.544 112.92 152.481C112.949 152.417 112.996 152.362 113.057 152.324C113.119 152.285 113.191 152.265 113.264 152.265C113.363 152.265 113.457 152.302 113.527 152.367C113.597 152.433 113.636 152.522 113.636 152.614Z" fill="white" stroke="#263238" stroke-width="0.44393" stroke-linecap="round" stroke-linejoin="round"/>
<path d="M113.36 151.783H117.056" stroke="#263238" stroke-width="0.44393" stroke-linecap="round" stroke-linejoin="round"/>
<path d="M75.332 140.853C75.332 140.853 76.032 137.408 77.704 138.687C80.548 140.853 78.248 147.228 78.248 147.228" stroke="#263238" stroke-width="0.44393" stroke-linecap="round" stroke-linejoin="round"/>
<path d="M71.584 140.853C71.584 140.853 70.932 138.502 69.364 138.623C67.796 138.743 66.416 143.553 68.312 147.871" stroke="#263238" stroke-width="0.44393" stroke-linecap="round" stroke-linejoin="round"/>
<path d="M71.9722 139.74C72.053 139.448 72.231 139.189 72.48 138.999C72.7291 138.81 73.0361 138.7 73.3562 138.687C73.6652 138.692 73.9621 138.801 74.1932 138.994C74.4242 139.187 74.5742 139.452 74.6162 139.74" stroke="#263238" stroke-width="0.44393" stroke-linecap="round" stroke-linejoin="round"/>
<path d="M69.9762 139.769L76.6522 139.664V141.101C76.6522 141.101 79.6002 147.457 78.7962 148.845C77.9922 150.233 68.3682 150.62 67.9682 148.597C67.5682 146.573 70.1481 141.39 70.1481 141.39L69.9762 139.769Z" fill="#FF725E" stroke="#263238" stroke-width="0.44393" stroke-linecap="round" stroke-linejoin="round"/>
<path d="M70.148 141.391C70.148 141.391 69.976 143.983 70.948 144.472C71.92 144.96 75.632 145.009 76.104 144.253C76.576 143.497 76.648 141.102 76.648 141.102" stroke="#263238" stroke-width="0.44393" stroke-linecap="round" stroke-linejoin="round"/>
<path d="M70.1361 145.551C70.1361 145.551 72.2601 146.089 73.3361 145.927C73.3361 145.927 73.0841 148.898 72.5681 148.898C72.0521 148.898 69.5801 148.992 69.4081 148.458C69.2361 147.924 69.6961 146.036 69.6961 146.036" stroke="#263238" stroke-width="0.44393" stroke-linecap="round" stroke-linejoin="round"/>
<path d="M77.1961 145.551C76.225 145.802 75.2265 145.947 74.2201 145.983C74.2201 145.983 74.2001 148.153 74.6201 148.616C75.0401 149.079 77.2761 148.83 77.6201 148.326C77.9641 147.822 77.2001 146.153 77.2001 146.153" stroke="#263238" stroke-width="0.44393" stroke-linecap="round" stroke-linejoin="round"/>
<path d="M74.0361 143.73C74.0361 143.826 74.0059 143.92 73.9492 144C73.8925 144.08 73.8119 144.142 73.7176 144.179C73.6233 144.215 73.5196 144.225 73.4195 144.206C73.3194 144.187 73.2275 144.141 73.1553 144.073C73.0831 144.006 73.034 143.919 73.0141 143.825C72.9942 143.731 73.0044 143.633 73.0434 143.545C73.0825 143.456 73.1486 143.38 73.2335 143.327C73.3183 143.274 73.4181 143.245 73.5202 143.245C73.5881 143.245 73.6554 143.257 73.7182 143.281C73.7811 143.305 73.8382 143.341 73.8862 143.386C73.9342 143.431 73.9722 143.485 73.998 143.544C74.0237 143.603 74.0367 143.666 74.0361 143.73Z" stroke="#263238" stroke-width="0.44393" stroke-linecap="round" stroke-linejoin="round"/>
<path d="M116.176 81.1299H41.988C41.3319 81.1299 40.8 81.63 40.8 82.2469V108.846C40.8 109.463 41.3319 109.963 41.988 109.963H116.176C116.832 109.963 117.364 109.463 117.364 108.846V82.2469C117.364 81.63 116.832 81.1299 116.176 81.1299Z" fill="white" stroke="#263238" stroke-width="0.44393" stroke-linecap="round" stroke-linejoin="round"/>
<path d="M69.4121 84.4893H44.5161V106.605H69.4121V84.4893Z" fill="white" stroke="#263238" stroke-width="0.44393" stroke-linecap="round" stroke-linejoin="round"/>
<path d="M97.3921 84.4893H74.5321C74.1212 84.4893 73.7881 84.8025 73.7881 85.1888V85.7342C73.7881 86.1206 74.1212 86.4338 74.5321 86.4338H97.3921C97.803 86.4338 98.1361 86.1206 98.1361 85.7342V85.1888C98.1361 84.8025 97.803 84.4893 97.3921 84.4893Z" fill="#263238"/>
<path d="M74.5322 88.7803H84.2802C84.3779 88.7803 84.4746 88.7984 84.5649 88.8335C84.6552 88.8687 84.7372 88.9202 84.8063 88.9852C84.8753 89.0501 84.9302 89.1273 84.9675 89.2121C85.0049 89.297 85.0242 89.388 85.0242 89.4799V90.0215C85.0242 90.208 84.9454 90.3869 84.8051 90.5188C84.6648 90.6507 84.4746 90.7248 84.2762 90.7248H74.5322C74.3338 90.7248 74.1435 90.6507 74.0033 90.5188C73.863 90.3869 73.7842 90.208 73.7842 90.0215V89.4799C73.7842 89.3877 73.8035 89.2964 73.8412 89.2113C73.8788 89.1261 73.934 89.0489 74.0035 88.9838C74.073 88.9188 74.1555 88.8674 74.2462 88.8325C74.337 88.7975 74.4341 88.7798 74.5322 88.7803Z" fill="#263238"/>
<path d="M103.148 101.522C102.763 101.403 102.346 101.409 101.965 101.54C101.583 101.671 101.26 101.919 101.048 102.245C100.84 101.916 100.521 101.664 100.141 101.527C99.7615 101.391 99.3441 101.378 98.9562 101.492C97.7562 101.835 97.3162 103.279 98.3202 104.61C98.9943 105.411 99.8479 106.062 100.82 106.517L101.012 106.604L101.204 106.517C102.186 106.077 103.05 105.434 103.732 104.637C104.764 103.332 104.352 101.88 103.148 101.522Z" fill="#FF725E" stroke="#263238" stroke-width="0.44393" stroke-linecap="round" stroke-linejoin="round"/>
<path d="M111.8 104.856H108.092L107.716 101.418H112.176L111.8 104.856Z" fill="white" stroke="#263238" stroke-width="0.44393" stroke-linecap="round" stroke-linejoin="round"/>
<path d="M107.852 102.591H112.044" stroke="#263238" stroke-width="0.44393" stroke-linecap="round" stroke-linejoin="round"/>
<path d="M107.984 103.682H111.908" stroke="#263238" stroke-width="0.44393" stroke-linecap="round" stroke-linejoin="round"/>
<path d="M109.12 101.418L109.212 104.852" stroke="#263238" stroke-width="0.44393" stroke-linecap="round" stroke-linejoin="round"/>
<path d="M110.772 101.418L110.664 104.852" stroke="#263238" stroke-width="0.44393" stroke-linecap="round" stroke-linejoin="round"/>
<path d="M112.156 101.406L113.192 101.053" stroke="#263238" stroke-width="0.44393" stroke-linecap="round" stroke-linejoin="round"/>
<path d="M112.308 106.962C112.569 106.962 112.78 106.763 112.78 106.518C112.78 106.273 112.569 106.074 112.308 106.074C112.048 106.074 111.836 106.273 111.836 106.518C111.836 106.763 112.048 106.962 112.308 106.962Z" fill="white" stroke="#263238" stroke-width="0.44393" stroke-linecap="round" stroke-linejoin="round"/>
<path d="M107.48 106.962C107.741 106.962 107.952 106.763 107.952 106.518C107.952 106.273 107.741 106.074 107.48 106.074C107.219 106.074 107.008 106.273 107.008 106.518C107.008 106.763 107.219 106.962 107.48 106.962Z" fill="white" stroke="#263238" stroke-width="0.44393" stroke-linecap="round" stroke-linejoin="round"/>
<path d="M107.604 105.461H112.308" stroke="#263238" stroke-width="0.44393" stroke-linecap="round" stroke-linejoin="round"/>
<path d="M53.044 87.7871H60.76L60.944 89.2916L66.796 99.8227C66.796 99.8227 66.284 102.497 64.896 101.572C63.508 100.646 62.772 103.922 60.872 103.11C58.972 102.298 58.008 104.189 55.856 103.655C53.704 103.121 53.056 103.279 51.948 103.753C50.84 104.227 49.9 101.782 49.02 101.936C48.14 102.091 47.272 100.65 47.272 100.65L52.68 89.9197L53.044 87.7871Z" fill="#FF725E" stroke="#263238" stroke-width="0.44393" stroke-linecap="round" stroke-linejoin="round"/>
<path d="M53.6282 89.3027H59.9922" stroke="#263238" stroke-width="0.44393" stroke-linecap="round" stroke-linejoin="round"/>
<path d="M57.072 88.5169C57.072 88.5818 57.0446 88.644 56.9958 88.6898C56.9471 88.7357 56.881 88.7614 56.812 88.7614C56.743 88.7614 56.6769 88.7357 56.6282 88.6898C56.5794 88.644 56.552 88.5818 56.552 88.5169C56.552 88.4521 56.5794 88.3899 56.6282 88.3441C56.6769 88.2982 56.743 88.2725 56.812 88.2725C56.881 88.2725 56.9471 88.2982 56.9958 88.3441C57.0446 88.3899 57.072 88.4521 57.072 88.5169Z" fill="#263238"/>
<path d="M50.0361 100.553C50.0361 100.553 51.9561 95.9114 52.2601 94.8545" stroke="#263238" stroke-width="0.44393" stroke-linecap="round" stroke-linejoin="round"/>
<path d="M56.0801 99.3451C56.1081 97.536 56.1281 95.584 56.1281 95.584L56.0481 99.3451H56.0801Z" fill="white" stroke="#263238" stroke-width="0.44393" stroke-linecap="round" stroke-linejoin="round"/>
<path d="M56.028 100.492L55.988 102.343C56.016 102.17 56.04 101.429 56.056 100.5L56.028 100.492Z" fill="white" stroke="#263238" stroke-width="0.44393" stroke-linecap="round" stroke-linejoin="round"/>
<path d="M61.42 101.467C61.42 101.362 59.636 95.5357 59.584 94.8398L61.42 101.467Z" fill="white"/>
<path d="M61.42 101.467C61.42 101.362 59.636 95.5357 59.584 94.8398" stroke="#263238" stroke-width="0.44393" stroke-linecap="round" stroke-linejoin="round"/>
<path d="M62.6722 94.836L62.0242 93.3691L62.6722 94.836Z" fill="white"/>
<path d="M62.6722 94.836L62.0242 93.3691" stroke="#263238" stroke-width="0.44393" stroke-linecap="round" stroke-linejoin="round"/>
<path d="M64.9322 99.9702C64.3615 98.6764 63.7909 97.3813 63.2202 96.085L64.9322 99.9702Z" fill="white"/>
<path d="M64.9322 99.9702C64.3615 98.6764 63.7909 97.3813 63.2202 96.085" stroke="#263238" stroke-width="0.44393" stroke-linecap="round" stroke-linejoin="round"/>
<path d="M52.668 93.8314L53.028 93.0566" stroke="#263238" stroke-width="0.44393" stroke-linecap="round" stroke-linejoin="round"/>
<path d="M124.948 155.721C124.744 155.721 124.549 155.645 124.405 155.509C124.261 155.374 124.18 155.19 124.18 154.999V64.0434C124.18 63.8519 124.261 63.6682 124.405 63.5328C124.549 63.3974 124.744 63.3213 124.948 63.3213C125.152 63.3213 125.347 63.3974 125.491 63.5328C125.635 63.6682 125.716 63.8519 125.716 64.0434V154.999C125.716 155.19 125.635 155.374 125.491 155.509C125.347 155.645 125.152 155.721 124.948 155.721Z" fill="#263238"/>
<path d="M124.948 70.4823C124.746 70.4827 124.546 70.4458 124.359 70.3734C124.172 70.301 124.003 70.1947 123.859 70.0606C123.716 69.9264 123.603 69.767 123.526 69.5916C123.448 69.4161 123.408 69.228 123.408 69.038V62.9412C123.408 62.5572 123.57 62.1888 123.859 61.9173C124.148 61.6457 124.54 61.4932 124.948 61.4932C125.15 61.4932 125.351 61.5306 125.538 61.6034C125.724 61.6762 125.894 61.7828 126.037 61.9173C126.18 62.0517 126.294 62.2114 126.371 62.3871C126.448 62.5627 126.488 62.751 126.488 62.9412V69.053C126.483 69.4338 126.318 69.7973 126.03 70.0648C125.742 70.3323 125.353 70.4823 124.948 70.4823Z" fill="white" stroke="#263238" stroke-width="0.44393" stroke-linecap="round" stroke-linejoin="round"/>
<g opacity="0.6">
<path d="M97.2602 50.4845L97.0402 52.4102H96.2122L95.7842 48.792H96.3722L96.7162 51.658L97.0042 48.807H97.5882L97.8922 51.6805L98.2042 48.807H98.7162L98.2842 52.4102H97.4842L97.2602 50.4845Z" fill="black"/>
<path d="M99.0122 48.7959H99.6162V52.4103H99.0122V48.7959Z" fill="black"/>
<path d="M99.9801 49.6645C99.9611 49.4214 100.041 49.1807 100.204 48.9912C100.388 48.8389 100.625 48.7549 100.87 48.7549C101.115 48.7549 101.352 48.8389 101.536 48.9912C101.698 49.1814 101.778 49.4216 101.76 49.6645V49.7773H101.188V49.6269C101.198 49.5293 101.169 49.4317 101.108 49.3523C101.079 49.3253 101.045 49.3043 101.007 49.2907C100.969 49.2771 100.929 49.2712 100.888 49.2733C100.847 49.2709 100.806 49.2766 100.767 49.2902C100.729 49.3039 100.693 49.325 100.664 49.3523C100.603 49.4317 100.575 49.5293 100.584 49.6269C100.581 49.7426 100.612 49.8569 100.672 49.9578C100.734 50.055 100.807 50.1447 100.892 50.2249C100.98 50.3076 101.076 50.3941 101.176 50.4769C101.277 50.5631 101.37 50.6562 101.456 50.7552C101.547 50.8571 101.621 50.9712 101.676 51.0937C101.738 51.2369 101.768 51.3905 101.764 51.545C101.781 51.7885 101.7 52.029 101.536 52.2183C101.35 52.3714 101.111 52.4558 100.864 52.4558C100.617 52.4558 100.378 52.3714 100.192 52.2183C100.029 52.029 99.9471 51.7885 99.9641 51.545V51.3231H100.536V51.5789C100.525 51.6772 100.555 51.7759 100.62 51.8534C100.684 51.9043 100.765 51.9323 100.848 51.9323C100.932 51.9323 101.012 51.9043 101.076 51.8534C101.141 51.7759 101.172 51.6772 101.16 51.5789C101.163 51.4643 101.133 51.3511 101.072 51.2517C101.012 51.1537 100.938 51.0638 100.852 50.9846C100.764 50.8981 100.672 50.8154 100.572 50.7326C100.469 50.6474 100.374 50.5543 100.288 50.4543C100.198 50.3507 100.124 50.2354 100.068 50.112C100.005 49.9704 99.9753 49.8178 99.9801 49.6645Z" fill="black"/>
<path d="M102.716 52.4103H102.112V48.7959H102.716V50.3455H103.404V48.7959H104.016V52.4103H103.404V50.8645H102.716V52.4103Z" fill="black"/>
<path d="M104.456 48.7959H105.06V51.8951H106.056V52.4103H104.456V48.7959Z" fill="black"/>
<path d="M106.316 48.7959H106.92V52.4103H106.316V48.7959Z" fill="black"/>
<path d="M107.284 49.6649C107.267 49.422 107.347 49.1819 107.508 48.9916C107.693 48.839 107.93 48.7549 108.176 48.7549C108.422 48.7549 108.659 48.839 108.844 48.9916C109.006 49.1819 109.086 49.422 109.068 49.6649V49.7777H108.496V49.6273C108.506 49.5297 108.477 49.4322 108.416 49.3527C108.387 49.3254 108.352 49.3043 108.313 49.2907C108.274 49.277 108.233 49.2713 108.192 49.2737C108.151 49.2717 108.11 49.2777 108.071 49.2913C108.033 49.3049 107.998 49.3258 107.968 49.3527C107.908 49.4327 107.882 49.5301 107.892 49.6273C107.889 49.743 107.92 49.8573 107.98 49.9582C108.04 50.0553 108.113 50.145 108.196 50.2253C108.288 50.308 108.38 50.3945 108.48 50.4773C108.582 50.5635 108.677 50.6565 108.764 50.7556C108.854 50.8585 108.928 50.9724 108.984 51.0941C109.046 51.2373 109.076 51.3909 109.072 51.5454C109.089 51.7889 109.008 52.0294 108.844 52.2187C108.657 52.3714 108.418 52.4554 108.17 52.4554C107.922 52.4554 107.683 52.3714 107.496 52.2187C107.332 52.0294 107.251 51.7889 107.268 51.5454V51.3235H107.84V51.5793C107.83 51.6781 107.861 51.7768 107.928 51.8539C107.958 51.8809 107.994 51.9018 108.033 51.9154C108.073 51.929 108.114 51.9349 108.156 51.9328C108.24 51.9357 108.322 51.9073 108.384 51.8539C108.449 51.7763 108.48 51.6776 108.468 51.5793C108.471 51.4647 108.441 51.3515 108.38 51.2521C108.319 51.1549 108.245 51.0652 108.16 50.985C108.072 50.8985 107.976 50.8158 107.876 50.733C107.774 50.6468 107.68 50.5538 107.592 50.4547C107.502 50.3519 107.429 50.2364 107.376 50.1125C107.312 49.9711 107.281 49.8185 107.284 49.6649Z" fill="black"/>
<path d="M109.24 48.7959H111.116V49.3149H110.488V52.4103H109.88V49.3149H109.248L109.24 48.7959Z" fill="black"/>
</g>
</svg>
