<svg width="200" height="201" viewBox="0 0 200 201" fill="none" xmlns="http://www.w3.org/2000/svg">
<path d="M179.96 159.424H166.712V159.524H179.96V159.424Z" fill="#EBEBEB"/>
<path d="M132.488 160.512H129.012V160.612H132.488V160.512Z" fill="#EBEBEB"/>
<path d="M166.312 155.712H158.636V155.812H166.312V155.712Z" fill="#EBEBEB"/>
<path d="M38.2599 156.384H20.9839V156.484H38.2599V156.384Z" fill="#EBEBEB"/>
<path d="M44.356 156.384H41.824V156.484H44.356V156.384Z" fill="#EBEBEB"/>
<path d="M90.0599 158.072H52.5879V158.172H90.0599V158.072Z" fill="#EBEBEB"/>
<path d="M95.3599 135.148H18.1199C17.5142 135.148 16.9332 134.908 16.5049 134.479C16.0766 134.051 15.8359 133.47 15.8359 132.864V24.2923C15.8412 23.69 16.0842 23.1142 16.5119 22.6902C16.9397 22.2662 17.5176 22.0283 18.1199 22.0283H95.3599C95.6599 22.0283 95.9569 22.0874 96.234 22.2022C96.5111 22.317 96.7629 22.4852 96.975 22.6973C97.187 22.9094 97.3553 23.1612 97.4701 23.4383C97.5849 23.7154 97.6439 24.0124 97.6439 24.3123V132.864C97.6439 133.164 97.5849 133.461 97.4701 133.738C97.3553 134.015 97.187 134.267 96.975 134.479C96.7629 134.691 96.5111 134.86 96.234 134.974C95.9569 135.089 95.6599 135.148 95.3599 135.148ZM18.1199 22.1083C17.541 22.1094 16.9861 22.3398 16.5768 22.7492C16.1674 23.1585 15.937 23.7134 15.9359 24.2923V132.864C15.937 133.443 16.1674 133.998 16.5768 134.407C16.9861 134.817 17.541 135.047 18.1199 135.048H95.3599C95.9388 135.047 96.4937 134.817 96.9031 134.407C97.3124 133.998 97.5429 133.443 97.5439 132.864V24.2923C97.5429 23.7134 97.3124 23.1585 96.9031 22.7492C96.4937 22.3398 95.9388 22.1094 95.3599 22.1083H18.1199Z" fill="#EBEBEB"/>
<path d="M181.88 135.148H104.64C104.034 135.148 103.453 134.908 103.025 134.479C102.597 134.051 102.356 133.47 102.356 132.864V24.2923C102.361 23.69 102.604 23.1142 103.032 22.6902C103.46 22.2662 104.038 22.0283 104.64 22.0283H181.88C182.486 22.0283 183.067 22.269 183.495 22.6973C183.923 23.1256 184.164 23.7066 184.164 24.3123V132.864C184.164 133.47 183.923 134.051 183.495 134.479C183.067 134.908 182.486 135.148 181.88 135.148ZM104.64 22.1083C104.061 22.1094 103.506 22.3398 103.097 22.7492C102.687 23.1585 102.457 23.7134 102.456 24.2923V132.864C102.457 133.443 102.687 133.998 103.097 134.407C103.506 134.817 104.061 135.047 104.64 135.048H181.88C182.459 135.047 183.014 134.817 183.423 134.407C183.832 133.998 184.063 133.443 184.064 132.864V24.2923C184.063 23.7134 183.832 23.1585 183.423 22.7492C183.014 22.3398 182.459 22.1094 181.88 22.1083H104.64Z" fill="#EBEBEB"/>
<path d="M200 152.988H0V153.088H200V152.988Z" fill="#EBEBEB"/>
<path d="M47.7319 125.928C47.3959 122.064 43.4519 120.62 38.7759 121.028C34.0999 121.436 30.4719 123.544 30.7999 127.408L47.7319 125.928Z" fill="#F0F0F0"/>
<path d="M38.6241 119.264C40.7921 119.072 41.4841 117.24 41.2961 115.072C41.1081 112.904 40.0961 111.22 37.9361 111.408C35.7761 111.596 35.0761 113.432 35.2641 115.6C35.4521 117.768 36.4561 119.452 38.6241 119.264Z" fill="#F0F0F0"/>
<path d="M136.04 43.6282C136.078 44.0571 135.988 44.4875 135.781 44.8651C135.574 45.2427 135.26 45.5505 134.878 45.7496C134.497 45.9486 134.065 46.0299 133.637 45.9832C133.209 45.9365 132.804 45.7639 132.474 45.4873C132.144 45.2106 131.904 44.8423 131.783 44.429C131.663 44.0157 131.668 43.576 131.797 43.1654C131.927 42.7548 132.175 42.3919 132.511 42.1225C132.847 41.8532 133.255 41.6895 133.684 41.6522C134.258 41.6023 134.829 41.7823 135.271 42.1528C135.713 42.5233 135.989 43.0539 136.04 43.6282Z" fill="#F5F5F5"/>
<path d="M148.068 42.5644C148.105 42.9924 148.015 43.4217 147.808 43.7982C147.601 44.1747 147.287 44.4814 146.906 44.6795C146.525 44.8776 146.093 44.9582 145.666 44.9112C145.239 44.8642 144.836 44.6916 144.507 44.4152C144.178 44.1389 143.939 43.7713 143.819 43.3588C143.699 42.9463 143.704 42.5075 143.833 42.0979C143.962 41.6883 144.21 41.3263 144.546 41.0576C144.881 40.7889 145.288 40.6256 145.716 40.5884C146.29 40.5396 146.859 40.7201 147.3 41.0905C147.741 41.4609 148.017 41.9909 148.068 42.5644Z" fill="#F5F5F5"/>
<path d="M160.1 41.5125C160.138 41.9413 160.048 42.3718 159.841 42.7494C159.634 43.127 159.32 43.4348 158.938 43.6338C158.557 43.8329 158.124 43.9142 157.696 43.8675C157.268 43.8208 156.864 43.6482 156.534 43.3716C156.204 43.0949 155.964 42.7266 155.843 42.3133C155.723 41.9 155.728 41.4602 155.857 41.0497C155.987 40.6391 156.235 40.2762 156.571 40.0068C156.907 39.7375 157.315 39.5738 157.744 39.5365C158.318 39.4866 158.889 39.6666 159.331 40.0371C159.772 40.4076 160.049 40.9382 160.1 41.5125Z" fill="#F5F5F5"/>
<path d="M137.112 55.8763C137.15 56.3051 137.06 56.7356 136.853 57.1132C136.646 57.4908 136.332 57.7986 135.951 57.9976C135.569 58.1966 135.137 58.278 134.709 58.2313C134.281 58.1846 133.876 58.012 133.546 57.7353C133.216 57.4587 132.976 57.0904 132.856 56.6771C132.735 56.2638 132.74 55.824 132.869 55.4134C132.999 55.0029 133.247 54.6399 133.583 54.3706C133.919 54.1012 134.327 53.9376 134.756 53.9003C135.33 53.8503 135.901 54.0304 136.343 54.4009C136.785 54.7713 137.061 55.302 137.112 55.8763Z" fill="#F5F5F5"/>
<path d="M149.14 54.8284C149.177 55.2564 149.087 55.6857 148.88 56.0622C148.673 56.4387 148.359 56.7454 147.978 56.9435C147.597 57.1416 147.165 57.2222 146.738 57.1752C146.311 57.1281 145.908 56.9556 145.579 56.6792C145.25 56.4029 145.011 56.0353 144.891 55.6228C144.771 55.2103 144.776 54.7715 144.905 54.3619C145.035 53.9523 145.282 53.5903 145.618 53.3216C145.953 53.0529 146.36 52.8896 146.788 52.8524C147.072 52.8277 147.359 52.8592 147.631 52.9451C147.903 53.0311 148.155 53.1697 148.373 53.3532C148.592 53.5367 148.772 53.7615 148.903 54.0146C149.035 54.2677 149.115 54.5442 149.14 54.8284Z" fill="#F5F5F5"/>
<path d="M161.172 53.7723C161.21 54.2011 161.12 54.6316 160.913 55.0092C160.706 55.3868 160.392 55.6946 160.01 55.8936C159.629 56.0926 159.196 56.1739 158.768 56.1273C158.34 56.0806 157.936 55.908 157.606 55.6313C157.276 55.3547 157.036 54.9864 156.915 54.5731C156.795 54.1598 156.8 53.72 156.929 53.3094C157.059 52.8989 157.307 52.5359 157.643 52.2666C157.979 51.9972 158.387 51.8336 158.816 51.7963C159.39 51.7463 159.961 51.9264 160.403 52.2969C160.844 52.6673 161.121 53.198 161.172 53.7723Z" fill="#F5F5F5"/>
<path d="M138.184 68.1403C138.221 68.5682 138.131 68.9976 137.924 69.3741C137.717 69.7505 137.403 70.0572 137.022 70.2553C136.641 70.4534 136.209 70.5341 135.782 70.487C135.355 70.44 134.952 70.2674 134.623 69.9911C134.294 69.7148 134.055 69.3471 133.935 68.9347C133.815 68.5222 133.82 68.0834 133.949 67.6738C134.078 67.2642 134.326 66.9021 134.662 66.6334C134.997 66.3647 135.404 66.2015 135.832 66.1643C136.116 66.139 136.403 66.1701 136.675 66.2559C136.947 66.3416 137.2 66.4802 137.418 66.6638C137.637 66.8474 137.817 67.0723 137.948 67.3257C138.08 67.5791 138.16 67.8559 138.184 68.1403Z" fill="#F5F5F5"/>
<path d="M150.216 67.0843C150.254 67.5131 150.164 67.9436 149.957 68.3212C149.75 68.6988 149.436 69.0066 149.055 69.2056C148.673 69.4046 148.241 69.486 147.813 69.4393C147.385 69.3926 146.98 69.22 146.65 68.9433C146.32 68.6667 146.08 68.2984 145.96 67.8851C145.839 67.4718 145.844 67.032 145.973 66.6214C146.103 66.2109 146.351 65.848 146.687 65.5786C147.023 65.3092 147.431 65.1456 147.86 65.1083C148.434 65.0583 149.005 65.2384 149.447 65.6089C149.889 65.9794 150.165 66.51 150.216 67.0843Z" fill="#F5F5F5"/>
<path d="M162.244 66.0281C162.282 66.457 162.192 66.8874 161.985 67.265C161.778 67.6427 161.464 67.9504 161.082 68.1495C160.701 68.3485 160.268 68.4298 159.84 68.3831C159.412 68.3364 159.008 68.1638 158.678 67.8872C158.348 67.6105 158.108 67.2422 157.987 66.8289C157.867 66.4156 157.872 65.9759 158.001 65.5653C158.131 65.1547 158.379 64.7918 158.715 64.5224C159.051 64.2531 159.459 64.0894 159.888 64.0521C160.462 64.0022 161.033 64.1822 161.475 64.5527C161.916 64.9232 162.193 65.4538 162.244 66.0281Z" fill="#F5F5F5"/>
<path d="M159.644 66.7404L134.932 68.9004L156.844 42.2764L134.4 44.2404C134.337 44.2464 134.274 44.2399 134.214 44.2211C134.154 44.2023 134.098 44.1717 134.05 44.1311C134.002 44.0905 133.963 44.0407 133.934 43.9846C133.905 43.9284 133.888 43.8672 133.884 43.8044C133.873 43.6787 133.912 43.5537 133.993 43.457C134.074 43.3602 134.19 43.2996 134.316 43.2884L159.032 41.1284L137.116 67.7524L159.568 65.7884C159.694 65.7784 159.82 65.8185 159.917 65.9C160.014 65.9816 160.076 66.0981 160.088 66.2244C160.093 66.2875 160.085 66.3509 160.066 66.411C160.046 66.4711 160.014 66.5268 159.973 66.5747C159.932 66.6227 159.882 66.662 159.825 66.6904C159.769 66.7189 159.707 66.7359 159.644 66.7404Z" fill="#E6E6E6"/>
<path d="M160.024 114.272C159.986 114.156 159.914 114.053 159.818 113.977C159.722 113.901 159.606 113.855 159.484 113.844C158.409 113.795 157.392 113.346 156.632 112.584C155.644 111.588 155.064 110.08 154.968 108.288C154.959 108.127 154.888 107.975 154.771 107.863C154.653 107.752 154.498 107.689 154.336 107.688C154.248 107.689 154.162 107.707 154.082 107.742C154.001 107.777 153.929 107.827 153.869 107.891C153.808 107.954 153.762 108.03 153.731 108.112C153.701 108.194 153.688 108.281 153.692 108.368C153.804 110.472 154.516 112.272 155.728 113.484C156.677 114.435 157.936 115.013 159.276 115.112H159.368C159.473 115.12 159.579 115.102 159.675 115.06C159.772 115.017 159.856 114.951 159.921 114.868C159.986 114.785 160.029 114.687 160.047 114.583C160.065 114.479 160.057 114.373 160.024 114.272Z" fill="#F0F0F0"/>
<path d="M158.744 121.948C153.444 121.484 149.62 117.872 148.412 112.232C148.393 112.148 148.391 112.06 148.406 111.975C148.422 111.889 148.455 111.808 148.502 111.735C148.55 111.663 148.612 111.601 148.685 111.553C148.757 111.505 148.839 111.472 148.924 111.456C149.086 111.428 149.253 111.462 149.39 111.553C149.527 111.644 149.623 111.784 149.66 111.944C150.744 117.012 154.144 120.26 158.86 120.672C164.028 121.124 169.576 117.724 170.572 109.156C170.589 108.989 170.671 108.836 170.801 108.729C170.93 108.622 171.097 108.57 171.264 108.584C171.349 108.591 171.431 108.615 171.507 108.655C171.582 108.694 171.649 108.748 171.703 108.814C171.757 108.88 171.797 108.955 171.821 109.037C171.846 109.118 171.853 109.204 171.844 109.288C170.888 117.368 165.576 122.544 158.744 121.948Z" fill="#F0F0F0"/>
<path d="M148.744 106.612C148.659 106.605 148.577 106.581 148.501 106.542C148.426 106.503 148.359 106.448 148.305 106.383C148.251 106.317 148.211 106.241 148.187 106.16C148.162 106.078 148.155 105.993 148.164 105.908C149.116 97.8283 154.428 92.6483 161.256 93.2483C167.256 93.7723 171.276 98.2523 171.904 105C171.911 105.085 171.9 105.17 171.873 105.251C171.847 105.332 171.804 105.406 171.748 105.47C171.692 105.534 171.624 105.586 171.548 105.624C171.472 105.661 171.389 105.683 171.304 105.688C171.137 105.696 170.974 105.639 170.848 105.528C170.723 105.418 170.645 105.263 170.632 105.096C170.052 99.0163 166.464 94.9883 161.148 94.5243C156 94.0723 150.428 97.4683 149.436 106.028C149.429 106.112 149.405 106.194 149.367 106.268C149.328 106.343 149.275 106.409 149.211 106.464C149.147 106.518 149.072 106.559 148.992 106.584C148.912 106.61 148.828 106.619 148.744 106.612Z" fill="#F0F0F0"/>
<path d="M159.004 118.52C158.054 118.444 157.123 118.212 156.248 117.832C156.166 117.797 156.093 117.744 156.033 117.679C155.973 117.613 155.926 117.536 155.898 117.452C155.869 117.368 155.857 117.278 155.865 117.19C155.872 117.101 155.898 117.015 155.94 116.936C156.015 116.799 156.138 116.694 156.286 116.642C156.434 116.591 156.596 116.596 156.74 116.656C157.574 117.015 158.465 117.22 159.372 117.264C163.288 117.488 167.424 114.712 167.832 108.008C168.08 103.876 166.664 100.54 164.024 98.9444C163.887 98.8617 163.787 98.7309 163.741 98.5777C163.696 98.4245 163.71 98.2599 163.78 98.1164C163.82 98.037 163.875 97.9667 163.944 97.9097C164.012 97.8528 164.091 97.8104 164.176 97.7853C164.261 97.7602 164.35 97.7528 164.438 97.7636C164.527 97.7745 164.611 97.8033 164.688 97.8484C167.748 99.6964 169.388 103.448 169.108 108.084C168.708 114.548 164.684 118.852 159.296 118.544L159.004 118.52Z" fill="#F0F0F0"/>
<path d="M153.308 114.532C153.234 114.582 153.151 114.616 153.064 114.632C152.976 114.649 152.887 114.647 152.8 114.627C152.713 114.607 152.632 114.57 152.56 114.517C152.489 114.464 152.429 114.397 152.384 114.32C151.198 112.116 150.677 109.615 150.884 107.12C151.26 100.932 154.968 96.7201 160.004 96.6481C160.093 96.6463 160.181 96.6628 160.263 96.6967C160.345 96.7306 160.419 96.781 160.481 96.8448C160.542 96.9087 160.59 96.9846 160.621 97.0677C160.652 97.1509 160.665 97.2395 160.66 97.3281C160.65 97.4881 160.58 97.6385 160.465 97.7496C160.349 97.8607 160.196 97.9244 160.036 97.9281C156.3 98.0001 152.548 100.824 152.164 107.196C151.97 109.448 152.434 111.707 153.5 113.7C153.58 113.838 153.605 114.002 153.569 114.158C153.534 114.314 153.44 114.45 153.308 114.54V114.532Z" fill="#F0F0F0"/>
<path d="M162.052 114.028C161.991 113.886 161.984 113.727 162.032 113.58C162.08 113.433 162.179 113.308 162.312 113.228C163.996 112.216 165.028 110.092 165.044 107.528C165.044 105.476 164.464 103.74 163.368 102.64C162.942 102.219 162.435 101.888 161.877 101.67C161.32 101.451 160.723 101.348 160.124 101.368C158.152 101.368 156.552 102.452 155.668 104.356C155.6 104.501 155.48 104.615 155.331 104.675C155.183 104.735 155.018 104.737 154.868 104.68C154.785 104.649 154.708 104.602 154.644 104.54C154.58 104.478 154.53 104.404 154.496 104.321C154.462 104.239 154.446 104.15 154.448 104.062C154.45 103.973 154.47 103.885 154.508 103.804C155.604 101.472 157.656 100.092 160.108 100.088C160.876 100.069 161.64 100.204 162.355 100.488C163.069 100.771 163.718 101.196 164.264 101.736C165.604 103.08 166.332 105.14 166.316 107.54C166.292 110.56 165.02 113.096 162.948 114.34C162.87 114.383 162.783 114.409 162.694 114.416C162.605 114.424 162.515 114.412 162.431 114.383C162.346 114.354 162.269 114.307 162.204 114.246C162.139 114.185 162.087 114.111 162.052 114.028Z" fill="#F0F0F0"/>
<path d="M157.444 109.304C157.358 109.339 157.267 109.355 157.174 109.351C157.082 109.347 156.992 109.323 156.91 109.281C156.828 109.239 156.756 109.179 156.699 109.107C156.642 109.034 156.601 108.95 156.58 108.86C156.536 108.688 156.504 108.508 156.476 108.324C156.112 105.924 157.4 103.848 159.468 103.476C159.949 103.372 160.449 103.381 160.926 103.504C161.403 103.627 161.845 103.86 162.216 104.184C162.286 104.246 162.34 104.323 162.376 104.409C162.412 104.495 162.428 104.588 162.423 104.681C162.418 104.774 162.392 104.865 162.347 104.946C162.302 105.028 162.24 105.098 162.164 105.152L162.124 105.18C162.004 105.264 161.859 105.303 161.713 105.292C161.568 105.282 161.43 105.221 161.324 105.12C161.1 104.931 160.834 104.796 160.549 104.727C160.264 104.657 159.966 104.655 159.68 104.72C158.104 105.004 157.504 106.644 157.728 108.116C157.752 108.26 157.776 108.4 157.812 108.516C157.851 108.667 157.833 108.827 157.763 108.966C157.694 109.105 157.576 109.213 157.432 109.272L157.444 109.304Z" fill="#F0F0F0"/>
<path d="M159.56 111.768C159.459 111.758 159.362 111.723 159.279 111.665C159.196 111.608 159.128 111.53 159.083 111.439C159.039 111.348 159.018 111.247 159.023 111.146C159.028 111.045 159.058 110.946 159.112 110.86L159.168 110.772C159.225 110.681 159.307 110.606 159.403 110.558C159.5 110.509 159.608 110.488 159.716 110.496C159.917 110.508 160.118 110.496 160.316 110.46C161.692 110.212 162.316 108.932 162.316 107.628C162.312 107.472 162.365 107.319 162.465 107.198C162.565 107.078 162.705 106.997 162.86 106.972C162.949 106.959 163.039 106.964 163.126 106.988C163.213 107.011 163.293 107.053 163.363 107.11C163.432 107.167 163.489 107.238 163.529 107.318C163.569 107.399 163.592 107.486 163.596 107.576C163.632 109.664 162.396 111.388 160.544 111.72C160.22 111.78 159.889 111.796 159.56 111.768Z" fill="#F0F0F0"/>
<path d="M159.844 109.404C159.521 109.377 159.214 109.249 158.968 109.039C158.721 108.829 158.546 108.547 158.468 108.232C158.445 108.143 158.444 108.051 158.465 107.961C158.485 107.872 158.527 107.789 158.586 107.719C158.645 107.649 158.72 107.594 158.804 107.559C158.889 107.523 158.981 107.509 159.072 107.516H159.22C159.332 107.528 159.438 107.572 159.525 107.643C159.613 107.714 159.678 107.809 159.712 107.916C159.726 107.972 159.757 108.022 159.801 108.059C159.844 108.097 159.899 108.119 159.956 108.124C160.264 108.152 160.316 107.724 160.324 107.62C160.342 107.464 160.313 107.307 160.24 107.168C160.13 107.035 160.073 106.865 160.08 106.692C160.09 106.565 160.138 106.444 160.217 106.344C160.297 106.244 160.404 106.171 160.526 106.133C160.648 106.094 160.778 106.093 160.9 106.129C161.022 106.166 161.131 106.238 161.212 106.336C161.524 106.731 161.668 107.232 161.612 107.732C161.508 108.784 160.768 109.484 159.844 109.404Z" fill="#F0F0F0"/>
<path d="M147.812 95.0881C147.728 95.0811 147.647 95.0576 147.572 95.0189C147.498 94.9803 147.432 94.9273 147.378 94.8629C147.324 94.7986 147.283 94.7242 147.258 94.6441C147.233 94.564 147.224 94.4797 147.232 94.3961L147.716 88.8481L153.264 89.3361C153.348 89.3432 153.429 89.3667 153.503 89.4054C153.578 89.444 153.644 89.497 153.698 89.5614C153.752 89.6257 153.793 89.7001 153.818 89.7802C153.843 89.8603 153.852 89.9446 153.844 90.0281C153.837 90.1119 153.813 90.1935 153.775 90.2682C153.736 90.3429 153.683 90.4093 153.619 90.4635C153.555 90.5178 153.48 90.5588 153.4 90.5843C153.32 90.6098 153.236 90.6193 153.152 90.6121L148.88 90.2361L148.508 94.5081C148.5 94.592 148.476 94.6735 148.437 94.748C148.398 94.8225 148.345 94.8886 148.28 94.9425C148.216 94.9964 148.141 95.037 148.061 95.062C147.98 95.0869 147.896 95.0958 147.812 95.0881Z" fill="#F0F0F0"/>
<path d="M174.184 97.3964C174.1 97.3894 174.019 97.3659 173.944 97.3272C173.87 97.2885 173.804 97.2355 173.75 97.1712C173.696 97.1069 173.655 97.0325 173.63 96.9524C173.605 96.8723 173.596 96.788 173.604 96.7044L173.976 92.4324L169.704 92.0604C169.62 92.0529 169.539 92.0289 169.464 91.9898C169.39 91.9507 169.324 91.8973 169.27 91.8327C169.216 91.7681 169.175 91.6934 169.15 91.6131C169.125 91.5327 169.116 91.4482 169.124 91.3644C169.131 91.2808 169.155 91.1994 169.193 91.1248C169.232 91.0503 169.285 90.9842 169.349 90.9303C169.414 90.8764 169.488 90.8357 169.568 90.8107C169.648 90.7857 169.732 90.7767 169.816 90.7844L175.364 91.2684L174.88 96.8284C174.862 96.9955 174.779 97.1488 174.648 97.255C174.518 97.3613 174.351 97.4121 174.184 97.3964Z" fill="#F0F0F0"/>
<path d="M172.22 127.228L166.672 126.745C166.588 126.737 166.507 126.713 166.432 126.674C166.358 126.635 166.292 126.581 166.238 126.517C166.184 126.452 166.143 126.378 166.118 126.297C166.093 126.217 166.084 126.132 166.092 126.048C166.099 125.965 166.123 125.883 166.161 125.809C166.2 125.734 166.253 125.668 166.317 125.614C166.382 125.56 166.456 125.52 166.536 125.495C166.616 125.47 166.7 125.461 166.784 125.468L171.056 125.84L171.428 121.572C171.435 121.488 171.459 121.406 171.498 121.331C171.536 121.256 171.59 121.19 171.654 121.136C171.719 121.081 171.794 121.04 171.875 121.015C171.955 120.99 172.04 120.981 172.124 120.988C172.208 120.996 172.289 121.019 172.364 121.058C172.438 121.096 172.504 121.149 172.558 121.214C172.612 121.278 172.653 121.352 172.678 121.433C172.703 121.513 172.712 121.597 172.704 121.68L172.22 127.228Z" fill="#F0F0F0"/>
<path d="M150.12 125.285L144.572 124.797L145.056 119.253C145.072 119.083 145.154 118.927 145.285 118.818C145.415 118.709 145.583 118.655 145.752 118.669C145.836 118.676 145.917 118.7 145.992 118.739C146.066 118.778 146.133 118.832 146.186 118.896C146.24 118.961 146.281 119.036 146.306 119.116C146.331 119.196 146.34 119.281 146.332 119.365L145.96 123.629L150.228 124.005C150.312 124.012 150.393 124.035 150.468 124.074C150.543 124.112 150.609 124.165 150.663 124.229C150.718 124.294 150.759 124.368 150.784 124.448C150.81 124.528 150.819 124.613 150.812 124.697C150.798 124.866 150.717 125.023 150.587 125.133C150.458 125.243 150.29 125.298 150.12 125.285Z" fill="#F0F0F0"/>
<path d="M29.892 113.281C29.7877 113.288 29.6846 113.255 29.6046 113.188C29.5246 113.12 29.4741 113.025 29.464 112.921L29.168 109.513L32.576 109.213C32.6802 109.205 32.7834 109.238 32.8633 109.305C32.9433 109.373 32.9938 109.469 33.004 109.573C33.0107 109.676 32.9769 109.778 32.9097 109.857C32.8426 109.936 32.7473 109.986 32.644 109.997L30.02 110.229L30.248 112.853C30.2558 112.956 30.2231 113.059 30.1566 113.139C30.0902 113.219 29.9953 113.269 29.892 113.281Z" fill="#E0E0E0"/>
<path d="M46.1079 111.86C46.0043 111.868 45.9017 111.836 45.8218 111.769C45.7419 111.703 45.691 111.608 45.6799 111.504L45.4519 108.876L42.8239 109.108C42.7197 109.116 42.6165 109.083 42.5365 109.016C42.4565 108.948 42.4061 108.852 42.3959 108.748C42.3881 108.644 42.4214 108.541 42.4887 108.461C42.5559 108.381 42.6519 108.331 42.7559 108.32L46.1639 108.024L46.4639 111.432C46.4718 111.536 46.439 111.639 46.3726 111.719C46.3061 111.798 46.2112 111.849 46.1079 111.86Z" fill="#E0E0E0"/>
<path d="M47.7879 126.545L44.3759 126.845C44.2717 126.852 44.1685 126.819 44.0885 126.752C44.0085 126.684 43.9581 126.589 43.9479 126.485C43.9401 126.38 43.9734 126.277 44.0407 126.197C44.1079 126.117 44.2039 126.067 44.3079 126.057L46.9319 125.829L46.7039 123.205C46.696 123.101 46.7288 122.998 46.7952 122.918C46.8617 122.839 46.9566 122.788 47.0599 122.777C47.1635 122.769 47.2661 122.801 47.346 122.868C47.4259 122.934 47.4768 123.029 47.4879 123.133L47.7879 126.545Z" fill="#E0E0E0"/>
<path d="M34.1961 127.732L30.8001 128.028L30.5001 124.616C30.4934 124.513 30.5272 124.411 30.5944 124.331C30.6615 124.252 30.7568 124.202 30.8601 124.192C30.9631 124.185 31.0646 124.219 31.1437 124.285C31.2227 124.351 31.273 124.446 31.2841 124.548L31.5161 127.176L34.1401 126.944C34.2443 126.936 34.3475 126.97 34.4275 127.037C34.5075 127.104 34.5579 127.2 34.5681 127.304C34.5719 127.357 34.5653 127.41 34.5487 127.46C34.532 127.51 34.5056 127.556 34.4711 127.596C34.4365 127.635 34.3944 127.668 34.3472 127.691C34.3 127.715 34.2487 127.729 34.1961 127.732Z" fill="#E0E0E0"/>
<path d="M45.832 56.4282L32.8 57.5482L32.532 54.4962C32.5124 53.0396 33.0443 51.6294 34.021 50.5486C34.9977 49.4678 36.3469 48.7963 37.7981 48.6687C39.2492 48.5412 40.6949 48.967 41.8452 49.8609C42.9954 50.7547 43.7652 52.0505 44 53.4882L44.152 55.2642L46.036 55.1002L45.88 53.3242C45.7923 52.3224 45.5081 51.3478 45.0437 50.4559C44.5793 49.564 43.9438 48.7723 43.1735 48.126C42.4031 47.4797 41.513 46.9915 40.554 46.6892C39.5949 46.3869 38.5857 46.2764 37.584 46.3642C35.5609 46.5413 33.6911 47.5149 32.3858 49.0707C31.7395 49.841 31.2513 50.7312 30.949 51.6902C30.6467 52.6492 30.5363 53.6584 30.624 54.6602L30.892 57.7322C30.1499 57.8774 29.4878 58.2919 29.0329 58.8959C28.578 59.5 28.3626 60.2508 28.428 61.0042L29.36 71.6602C29.3932 72.0623 29.5056 72.454 29.6906 72.8126C29.8757 73.1713 30.1297 73.4898 30.4382 73.75C30.7467 74.0102 31.1035 74.2068 31.4883 74.3287C31.873 74.4506 32.278 74.4952 32.68 74.4602L47.292 73.1842C47.6942 73.1509 48.0858 73.0385 48.4445 72.8535C48.8031 72.6685 49.1217 72.4144 49.3818 72.1059C49.642 71.7974 49.8387 71.4406 49.9605 71.0559C50.0824 70.6712 50.1271 70.2662 50.092 69.8642L49.16 59.2082C49.1243 58.807 49.0099 58.4168 48.8232 58.0599C48.6366 57.703 48.3815 57.3864 48.0724 57.1282C47.7633 56.87 47.4063 56.6753 47.0219 56.5551C46.6374 56.435 46.2331 56.3919 45.832 56.4282ZM40.288 64.6402L40.608 68.3082C40.6295 68.4558 40.6207 68.6062 40.582 68.7503C40.5434 68.8944 40.4757 69.0291 40.3832 69.1461C40.2907 69.2632 40.1752 69.3601 40.0439 69.4309C39.9126 69.5018 39.7682 69.545 39.6196 69.5581C39.471 69.5712 39.3213 69.5538 39.1796 69.507C39.038 69.4602 38.9074 69.385 38.7958 69.2859C38.6842 69.1869 38.5941 69.0661 38.5308 68.931C38.4676 68.7959 38.4326 68.6493 38.428 68.5002L38.108 64.8282C37.778 64.6255 37.5204 64.3239 37.3718 63.9663C37.2232 63.6087 37.1912 63.2134 37.2803 62.8365C37.3695 62.4597 37.5753 62.1206 37.8684 61.8675C38.1615 61.6144 38.527 61.4603 38.9128 61.427C39.2986 61.3937 39.6851 61.483 40.0172 61.6822C40.3493 61.8814 40.6101 62.1802 40.7625 62.5362C40.9148 62.8922 40.951 63.2872 40.8658 63.665C40.7806 64.0428 40.5784 64.384 40.288 64.6402Z" fill="#EBEBEB"/>
<path d="M68.1759 62.5842L66.8599 60.4282C66.1966 60.5227 65.5232 60.5227 64.8599 60.4282L63.5399 62.5762L63.2879 62.5082C62.4325 62.2828 61.6117 61.9424 60.8479 61.4962L60.6239 61.3682L61.1799 59.0322C61.1907 58.9869 61.2103 58.9441 61.2378 58.9065C61.2652 58.8688 61.2998 58.837 61.3396 58.8128C61.3794 58.7886 61.4236 58.7726 61.4697 58.7656C61.5157 58.7586 61.5627 58.7609 61.6079 58.7722C61.6986 58.794 61.7769 58.8509 61.8256 58.9304C61.8744 59.0099 61.8896 59.1055 61.8679 59.1962L61.4279 61.0162C61.9963 61.3259 62.5956 61.5752 63.2159 61.7602L64.5039 59.6562L64.7399 59.6962C65.4871 59.8162 66.2487 59.8162 66.9959 59.6962L67.2279 59.6562L68.5159 61.7602C69.1367 61.5767 69.7361 61.3273 70.3039 61.0162L69.7319 58.6162L69.9239 58.4762C70.4449 58.1004 70.912 57.6549 71.3119 57.1522C71.3675 57.0798 71.449 57.0318 71.5393 57.0183C71.6297 57.0049 71.7216 57.0271 71.7959 57.0802C71.8348 57.1072 71.8678 57.1418 71.8928 57.182C71.9179 57.2222 71.9345 57.267 71.9416 57.3138C71.9487 57.3606 71.9462 57.4084 71.9342 57.4542C71.9222 57.5 71.901 57.5429 71.8719 57.5802C71.4788 58.0766 71.0261 58.5226 70.5239 58.9082L71.1119 61.3602L70.8839 61.4882C70.1212 61.9337 69.3018 62.2741 68.4479 62.5002L68.1759 62.5842ZM60.0879 57.8882C59.9799 57.7642 59.8719 57.6322 59.7679 57.4882L57.3159 58.0762L57.1839 57.8522C56.741 57.0868 56.4007 56.2664 56.1719 55.4122L56.1079 55.1602L58.2559 53.8402C58.1614 53.1769 58.1614 52.5035 58.2559 51.8402L56.1079 50.5242L56.1719 50.2682C56.4008 49.4153 56.741 48.5962 57.1839 47.8322L57.3159 47.6042L59.7679 48.1922C60.1773 47.6565 60.6562 47.1776 61.1919 46.7682L60.7479 44.9122C60.7262 44.8215 60.7415 44.7259 60.7902 44.6464C60.839 44.5669 60.9172 44.51 61.0079 44.4882C61.0526 44.4775 61.0989 44.4758 61.1442 44.4831C61.1896 44.4904 61.233 44.5066 61.272 44.5308C61.3111 44.5549 61.345 44.5866 61.3717 44.6239C61.3985 44.6612 61.4176 44.7035 61.4279 44.7482L61.9839 47.0602L61.7919 47.1962C61.1757 47.6396 60.6353 48.1799 60.1919 48.7962L60.0519 48.9882L57.6519 48.4162C57.3409 48.984 57.0914 49.5834 56.9079 50.2042L59.0079 51.4922L58.9719 51.7242C58.8383 52.4703 58.8383 53.2341 58.9719 53.9802L59.0079 54.2162L56.9079 55.5042C57.0922 56.1235 57.3416 56.7215 57.6519 57.2882L60.0519 56.7162L60.1919 56.9082C60.3162 57.0896 60.4497 57.2644 60.5919 57.4322C60.6535 57.4969 60.6879 57.5828 60.6879 57.6722C60.6879 57.7616 60.6535 57.8475 60.5919 57.9122C60.5578 57.9448 60.5174 57.9702 60.4732 57.9867C60.429 58.0032 60.3819 58.0106 60.3348 58.0084C60.2876 58.0061 60.2414 57.9943 60.199 57.9737C60.1565 57.953 60.1188 57.9239 60.0879 57.8882ZM74.3839 58.0842L73.4799 57.8682C73.3892 57.8464 73.3109 57.7895 73.2622 57.71C73.2135 57.6305 73.1982 57.5349 73.2199 57.4442C73.2417 57.3535 73.2986 57.2752 73.3781 57.2265C73.4576 57.1777 73.5532 57.1625 73.6439 57.1842L74.0439 57.2762C74.353 56.7094 74.601 56.1114 74.7839 55.4922L72.6839 54.2042L72.7239 53.9682C72.8575 53.2221 72.8575 52.4583 72.7239 51.7122L72.6839 51.4802L74.7839 50.1922C74.6018 49.5715 74.3537 48.9721 74.0439 48.4042L71.6439 48.9762L71.5079 48.7842C71.0634 48.1688 70.5233 47.6287 69.9079 47.1842L69.7159 47.0482L70.2879 44.6482C69.72 44.3384 69.1206 44.0903 68.4999 43.9082L67.1999 46.0282L66.9679 45.9882C66.2207 45.8682 65.4591 45.8682 64.7119 45.9882L64.4759 46.0282L63.1999 43.9162L62.9599 43.9882C62.8745 44.0164 62.7814 44.0099 62.7007 43.9703C62.6199 43.9307 62.5579 43.861 62.5279 43.7762C62.5114 43.7324 62.5038 43.6857 62.5055 43.6389C62.5073 43.5921 62.5184 43.5461 62.5381 43.5036C62.5578 43.4612 62.5859 43.4231 62.6205 43.3916C62.6552 43.3601 62.6958 43.3358 62.7399 43.3202C62.9159 43.2642 63.0959 43.2122 63.2719 43.1642L63.5239 43.0962L64.8439 45.2482C65.5069 45.1496 66.1809 45.1496 66.8439 45.2482L68.1599 43.0962L68.4159 43.1642C69.2692 43.392 70.0884 43.7323 70.8519 44.1762L71.0799 44.3082L70.4919 46.7602C71.0284 47.1687 71.5074 47.6477 71.9159 48.1842L74.3679 47.5962L74.4999 47.8242C74.9444 48.5874 75.2848 49.4067 75.5119 50.2602L75.5799 50.5162L73.4279 51.8322C73.5276 52.4951 73.5276 53.1693 73.4279 53.8322L75.5799 55.1522L75.5119 55.4042C75.2848 56.259 74.9445 57.0796 74.4999 57.8442L74.3839 58.0842ZM65.7519 56.2682C64.8803 56.2337 64.0537 55.872 63.4369 55.2552C62.8201 54.6384 62.4584 53.8118 62.4239 52.9402C62.4001 52.0829 62.6981 51.2478 63.2593 50.5993C63.8205 49.9507 64.6041 49.5358 65.4559 49.4362C65.5059 49.43 65.5566 49.4344 65.6047 49.4492C65.6529 49.4641 65.6973 49.4889 65.7351 49.5222C65.7729 49.5555 65.8032 49.5964 65.824 49.6422C65.8449 49.6881 65.8557 49.7378 65.8559 49.7882C65.8555 49.8733 65.8239 49.9552 65.7672 50.0186C65.7104 50.082 65.6324 50.1224 65.5479 50.1322C64.9552 50.1998 64.401 50.4601 63.9706 50.8732C63.5401 51.2862 63.2571 51.8292 63.1651 52.4186C63.0732 53.0081 63.1772 53.6114 63.4613 54.136C63.7455 54.6606 64.194 55.0774 64.7379 55.3224C65.2819 55.5674 65.8912 55.627 66.4724 55.4921C67.0535 55.3573 67.5743 55.0354 67.9547 54.5758C68.3352 54.1163 68.5543 53.5446 68.5783 52.9485C68.6024 52.3524 68.4301 51.7649 68.0879 51.2762C68.0385 51.207 68.0169 51.1217 68.0272 51.0373C68.0376 50.9529 68.0792 50.8754 68.1439 50.8202C68.1812 50.787 68.2252 50.7622 68.2729 50.7473C68.3205 50.7325 68.3708 50.7279 68.4203 50.734C68.4699 50.74 68.5176 50.7565 68.5603 50.7824C68.603 50.8083 68.6397 50.843 68.6679 50.8842C69.0318 51.4047 69.2437 52.0163 69.2799 52.6503C69.3162 53.2844 69.1754 53.9161 68.8732 54.4747C68.5711 55.0334 68.1195 55.497 67.569 55.8137C67.0185 56.1304 66.3907 56.2878 65.7559 56.2682H65.7519Z" fill="#F0F0F0"/>
<path d="M43.3241 91.8645L42.4721 90.4765C42.0411 90.5405 41.603 90.5405 41.1721 90.4765L40.3201 91.8645L40.1561 91.8205C39.6039 91.6748 39.0738 91.4555 38.5801 91.1685L38.4361 91.0845L38.7961 89.5725C38.8103 89.5144 38.8468 89.4642 38.8977 89.4328C38.9486 89.4014 39.0098 89.3912 39.0681 89.4045C39.0973 89.4115 39.1248 89.4242 39.149 89.4419C39.1733 89.4596 39.1938 89.4819 39.2094 89.5076C39.225 89.5332 39.2354 89.5617 39.24 89.5914C39.2446 89.621 39.2432 89.6513 39.2361 89.6805L38.9561 90.8565C39.3231 91.0575 39.7106 91.2184 40.1121 91.3365L40.9441 89.9805L41.0921 90.0045C41.5755 90.0844 42.0687 90.0844 42.5521 90.0045L42.7001 89.9805L43.5361 91.3365C43.9354 91.2159 44.3213 91.0551 44.6881 90.8565L44.3201 89.3125L44.4441 89.2205C44.7804 88.9788 45.0818 88.6922 45.3401 88.3685C45.3752 88.3209 45.4277 88.2892 45.4862 88.2802C45.5446 88.2712 45.6043 88.2857 45.6521 88.3205C45.6766 88.3379 45.6975 88.3601 45.7134 88.3857C45.7293 88.4113 45.74 88.4398 45.7449 88.4696C45.7497 88.4994 45.7486 88.5298 45.7416 88.5591C45.7346 88.5884 45.7218 88.6161 45.7041 88.6405C45.4492 88.9613 45.1564 89.2501 44.8321 89.5005L45.2321 91.1005L45.0841 91.1845C44.5907 91.4721 44.0605 91.6915 43.5081 91.8365L43.3241 91.8645ZM38.1001 88.8285L37.8921 88.5765L36.2921 88.9525L36.2081 88.8085C35.9263 88.3126 35.7124 87.7812 35.5721 87.2285L35.5281 87.0645L36.9161 86.2125C36.8521 85.7815 36.8521 85.3434 36.9161 84.9125L35.5281 84.0605L35.5721 83.8965C35.7171 83.344 35.9364 82.8139 36.2241 82.3205L36.3081 82.1725L37.9081 82.5725C38.1654 82.2222 38.465 81.9052 38.8001 81.6285L38.5161 80.4285C38.509 80.3996 38.5077 80.3695 38.5123 80.3401C38.5169 80.3107 38.5274 80.2825 38.543 80.2572C38.5586 80.2319 38.5792 80.2099 38.6034 80.1926C38.6276 80.1753 38.655 80.163 38.6841 80.1565C38.7424 80.1432 38.8036 80.1534 38.8545 80.1848C38.9053 80.2162 38.9418 80.2664 38.9561 80.3245L39.3161 81.8165L39.1881 81.9085C38.7917 82.1928 38.4444 82.5401 38.1601 82.9365L38.0681 83.0605L36.5241 82.6925C36.3254 83.0592 36.1646 83.4452 36.0441 83.8445L37.4001 84.6765L37.3761 84.8285C37.3348 85.069 37.3134 85.3125 37.3121 85.5565C37.3134 85.8018 37.3348 86.0466 37.3761 86.2885L37.4001 86.4365L36.0441 87.2685C36.1639 87.6693 36.3247 88.0567 36.5241 88.4245L38.0681 88.0525L38.1601 88.1765C38.2427 88.2949 38.3322 88.4084 38.4281 88.5165C38.4675 88.5581 38.4894 88.6132 38.4894 88.6705C38.4894 88.7277 38.4675 88.7829 38.4281 88.8245C38.4074 88.8473 38.3822 88.8655 38.3542 88.8782C38.3261 88.8908 38.2957 88.8975 38.2649 88.8979C38.2342 88.8983 38.2036 88.8923 38.1753 88.8803C38.1469 88.8684 38.1213 88.8507 38.1001 88.8285ZM47.3361 88.9525L46.7521 88.8165C46.7229 88.8094 46.6954 88.7967 46.6711 88.779C46.6469 88.7613 46.6264 88.739 46.6107 88.7134C46.5951 88.6877 46.5847 88.6592 46.5802 88.6296C46.5756 88.5999 46.5769 88.5696 46.5841 88.5405C46.5907 88.5114 46.603 88.484 46.6203 88.4598C46.6376 88.4356 46.6595 88.415 46.6848 88.3994C46.7102 88.3837 46.7383 88.3733 46.7677 88.3687C46.7971 88.3641 46.8272 88.3653 46.8561 88.3725L47.1081 88.4325C47.3091 88.0655 47.47 87.6779 47.5881 87.2765L46.2321 86.4445L46.2561 86.2965C46.2973 86.0546 46.3188 85.8098 46.3201 85.5645C46.3187 85.3204 46.2973 85.077 46.2561 84.8365L46.2321 84.6845L47.5881 83.8525C47.4693 83.4526 47.3084 83.0664 47.1081 82.7005L45.5641 83.0685L45.4721 82.9445C45.1877 82.5481 44.8405 82.2008 44.4441 81.9165L44.3201 81.8245L44.6881 80.2805C44.3221 80.0802 43.936 79.9193 43.5361 79.8005L42.7001 81.1565L42.5521 81.1325C42.0687 81.0525 41.5755 81.0525 41.0921 81.1325L40.9441 81.1565L40.1121 79.8005L39.9561 79.8485C39.9004 79.8663 39.8399 79.8617 39.7876 79.8355C39.7352 79.8093 39.6952 79.7637 39.6761 79.7085C39.6653 79.6804 39.6603 79.6505 39.6613 79.6204C39.6624 79.5904 39.6695 79.5609 39.6821 79.5336C39.6948 79.5064 39.7129 79.482 39.7352 79.4618C39.7575 79.4417 39.7837 79.4263 39.8121 79.4165L40.1561 79.3125L40.3201 79.2725L41.1721 80.6605C41.603 80.5964 42.0411 80.5964 42.4721 80.6605L43.3241 79.2725L43.4881 79.3125C44.0401 79.4606 44.57 79.6812 45.0641 79.9685L45.2121 80.0525L44.8121 81.6525C45.1565 81.9189 45.4657 82.228 45.7321 82.5725L47.3321 82.1725L47.4161 82.3205C47.7038 82.8139 47.9231 83.344 48.0681 83.8965L48.1121 84.0605L46.7241 84.9125C46.7881 85.3434 46.7881 85.7815 46.7241 86.2125L48.1121 87.0645L48.0681 87.2285C47.9224 87.7807 47.7031 88.3107 47.4161 88.8045L47.3361 88.9525ZM41.7601 87.7805C41.2166 87.7432 40.7058 87.507 40.3254 87.117C39.945 86.727 39.7216 86.2105 39.6978 85.6663C39.6741 85.122 39.8516 84.588 40.1966 84.1664C40.5416 83.7447 41.0299 83.4649 41.5681 83.3805C41.6002 83.3771 41.6326 83.3805 41.6633 83.3904C41.694 83.4003 41.7223 83.4165 41.7464 83.438C41.7705 83.4594 41.7898 83.4857 41.8032 83.515C41.8166 83.5444 41.8237 83.5762 41.8241 83.6085C41.8244 83.6639 41.8041 83.7176 41.7672 83.7589C41.7302 83.8003 41.6792 83.8265 41.6241 83.8325C41.2867 83.871 40.9677 84.0064 40.7055 84.2223C40.4433 84.4381 40.2492 84.7252 40.1465 85.0488C40.0438 85.3725 40.0369 85.719 40.1267 86.0465C40.2166 86.374 40.3992 86.6685 40.6526 86.8946C40.9061 87.1206 41.2195 87.2685 41.5551 87.3204C41.8907 87.3723 42.2341 87.326 42.544 87.1871C42.8539 87.0482 43.117 86.8226 43.3015 86.5375C43.4861 86.2524 43.5842 85.9201 43.5841 85.5805C43.5848 85.2194 43.473 84.867 43.2641 84.5725C43.2335 84.527 43.2204 84.4721 43.227 84.4178C43.2336 84.3634 43.2595 84.3133 43.3001 84.2765C43.3242 84.2548 43.3526 84.2385 43.3835 84.2287C43.4143 84.2189 43.447 84.2158 43.4791 84.2196C43.5113 84.2234 43.5423 84.234 43.57 84.2507C43.5978 84.2674 43.6217 84.2898 43.6401 84.3165C43.874 84.653 44.01 85.0479 44.033 85.4571C44.056 85.8663 43.965 86.2739 43.7702 86.6346C43.5754 86.9952 43.2843 87.2947 42.9295 87.4998C42.5746 87.705 42.1698 87.8076 41.7601 87.7965V87.7805Z" fill="#E6E6E6"/>
<path d="M100 170.832C142.833 170.832 177.556 168.805 177.556 166.304C177.556 163.804 142.833 161.776 100 161.776C57.1671 161.776 22.4441 163.804 22.4441 166.304C22.4441 168.805 57.1671 170.832 100 170.832Z" fill="#F5F5F5"/>
<path d="M145.38 58.3605H132.356L123.156 163.66H136.18C138.008 163.625 139.76 162.922 141.105 161.684C142.451 160.447 143.297 158.759 143.484 156.94L151.52 65.0765C151.613 64.2206 151.523 63.3546 151.256 62.5362C150.988 61.7178 150.549 60.9659 149.968 60.3304C149.387 59.6949 148.678 59.1906 147.886 58.8509C147.095 58.5112 146.241 58.344 145.38 58.3605Z" fill="#FF725E"/>
<path d="M142.724 58.3605H98.6441C96.8161 58.3947 95.0638 59.0966 93.7176 60.3338C92.3713 61.5709 91.5243 63.2579 91.3361 65.0765L83.3001 156.94C83.2076 157.796 83.2979 158.661 83.5652 159.479C83.8325 160.296 84.2707 161.048 84.8506 161.683C85.4304 162.319 86.1388 162.824 86.9287 163.165C87.7186 163.506 88.5719 163.675 89.4321 163.66H133.508C135.334 163.621 137.082 162.917 138.425 161.68C139.768 160.442 140.612 158.757 140.8 156.94L148.836 65.0765C148.929 64.223 148.84 63.3594 148.574 62.543C148.308 61.7266 147.872 60.9761 147.294 60.3411C146.716 59.7061 146.01 59.2011 145.222 58.8597C144.434 58.5182 143.583 58.3481 142.724 58.3605Z" fill="#FF725E"/>
<path opacity="0.3" d="M142.724 58.3605H98.6441C96.8161 58.3947 95.0638 59.0966 93.7176 60.3338C92.3713 61.5709 91.5243 63.2579 91.3361 65.0765L83.3001 156.94C83.2076 157.796 83.2979 158.661 83.5652 159.479C83.8325 160.296 84.2707 161.048 84.8506 161.683C85.4304 162.319 86.1388 162.824 86.9287 163.165C87.7186 163.506 88.5719 163.675 89.4321 163.66H133.508C135.334 163.621 137.082 162.917 138.425 161.68C139.768 160.442 140.612 158.757 140.8 156.94L148.836 65.0765C148.929 64.223 148.84 63.3594 148.574 62.543C148.308 61.7266 147.872 60.9761 147.294 60.3411C146.716 59.7061 146.01 59.2011 145.222 58.8597C144.434 58.5182 143.583 58.3481 142.724 58.3605Z" fill="white"/>
<path opacity="0.4" d="M142.536 60.5124H130.912C130.566 60.5152 130.228 60.6219 129.943 60.8187C129.657 61.0156 129.438 61.2934 129.312 61.6164C128.854 62.8027 128.052 63.8256 127.01 64.5544C125.968 65.2832 124.732 65.685 123.46 65.7084H116.604C115.407 65.7325 114.238 65.3383 113.3 64.5936C112.362 63.8488 111.712 62.8002 111.464 61.6284C111.398 61.3113 111.223 61.0274 110.97 60.8258C110.716 60.6242 110.4 60.5175 110.076 60.5244H98.4562C97.2138 60.5463 96.0225 61.0229 95.1078 61.864C94.193 62.705 93.6182 63.8522 93.4922 65.0884L85.4522 156.952C85.3879 157.534 85.4483 158.123 85.6294 158.679C85.8106 159.236 86.1083 159.747 86.5027 160.179C86.8972 160.612 87.3792 160.955 87.9168 161.186C88.4544 161.417 89.0351 161.531 89.6202 161.52H133.7C134.943 161.497 136.134 161.02 137.049 160.178C137.964 159.337 138.538 158.189 138.664 156.952L146.7 65.0884C146.766 64.5064 146.706 63.9172 146.526 63.3601C146.346 62.8029 146.048 62.2907 145.654 61.8575C145.26 61.4244 144.778 61.0804 144.24 60.8484C143.703 60.6164 143.122 60.5019 142.536 60.5124Z" fill="white"/>
<path d="M131.552 110.428H100.704C100.492 110.432 100.282 110.39 100.087 110.306C99.8924 110.222 99.7178 110.098 99.5748 109.941C99.4318 109.785 99.3238 109.599 99.2578 109.398C99.1919 109.196 99.1695 108.983 99.1922 108.772L99.3482 107.004C99.3941 106.556 99.6025 106.14 99.9341 105.835C100.266 105.53 100.698 105.357 101.148 105.348H132C132.212 105.345 132.423 105.386 132.617 105.47C132.812 105.554 132.987 105.679 133.13 105.835C133.273 105.992 133.381 106.177 133.447 106.379C133.513 106.58 133.535 106.794 133.512 107.004L133.36 108.772C133.313 109.222 133.103 109.638 132.77 109.943C132.437 110.248 132.004 110.421 131.552 110.428Z" fill="white"/>
<path d="M130.888 118.028H100.036C99.8242 118.032 99.614 117.99 99.4195 117.906C99.225 117.822 99.0506 117.698 98.9079 117.541C98.7652 117.385 98.6576 117.199 98.5921 116.998C98.5266 116.796 98.5048 116.583 98.5281 116.372L98.6801 114.604C98.7268 114.156 98.9355 113.741 99.2669 113.436C99.5984 113.131 100.03 112.958 100.48 112.948H131.332C131.544 112.945 131.754 112.987 131.949 113.071C132.144 113.155 132.319 113.279 132.461 113.436C132.604 113.592 132.713 113.777 132.778 113.979C132.844 114.18 132.867 114.394 132.844 114.604L132.688 116.372C132.641 116.82 132.433 117.236 132.101 117.541C131.77 117.846 131.338 118.019 130.888 118.028Z" fill="white"/>
<path opacity="0.1" d="M122.18 62.2323C122.129 62.7301 121.898 63.1919 121.529 63.5303C121.16 63.8687 120.681 64.0601 120.18 64.0683C119.945 64.0725 119.712 64.0266 119.496 63.9336C119.28 63.8406 119.086 63.7027 118.927 63.529C118.769 63.3553 118.649 63.1498 118.576 62.9262C118.503 62.7026 118.479 62.4661 118.504 62.2323C118.555 61.7345 118.787 61.2726 119.155 60.9342C119.524 60.5959 120.004 60.4044 120.504 60.3963C120.739 60.392 120.973 60.4379 121.189 60.5309C121.405 60.6239 121.599 60.7618 121.757 60.9355C121.916 61.1092 122.035 61.3147 122.108 61.5383C122.181 61.7619 122.206 61.9985 122.18 62.2323Z" fill="black"/>
<path opacity="0.1" d="M121.348 62.2326C121.32 62.5043 121.193 62.7564 120.992 62.9413C120.791 63.1262 120.529 63.2312 120.256 63.2366C120.127 63.2391 120 63.2141 119.882 63.1633C119.763 63.1125 119.657 63.0371 119.571 62.9421C119.484 62.847 119.419 62.7346 119.379 62.6122C119.339 62.4899 119.326 62.3605 119.34 62.2326C119.367 61.9605 119.494 61.708 119.695 61.5229C119.896 61.3378 120.159 61.2331 120.432 61.2286C120.56 61.2268 120.688 61.2522 120.806 61.3032C120.924 61.3542 121.029 61.4296 121.116 61.5245C121.202 61.6194 121.268 61.7316 121.308 61.8537C121.348 61.9757 121.362 62.1049 121.348 62.2326Z" fill="black"/>
<g opacity="0.8">
<path d="M137.108 65.2969C137.039 65.2978 136.971 65.2841 136.907 65.2567C136.844 65.2292 136.787 65.1886 136.741 65.1376C136.694 65.0865 136.659 65.0262 136.637 64.9606C136.616 64.8949 136.609 64.8255 136.616 64.7569L136.704 63.7729C136.719 63.6275 136.786 63.4925 136.894 63.3937C137.002 63.2949 137.142 63.2391 137.288 63.2369C137.357 63.236 137.425 63.2496 137.488 63.2768C137.551 63.304 137.608 63.3442 137.654 63.3948C137.7 63.4454 137.736 63.5052 137.757 63.5704C137.779 63.6355 137.787 63.7045 137.78 63.7729L137.692 64.7569C137.677 64.9027 137.61 65.0381 137.502 65.1375C137.395 65.237 137.255 65.2937 137.108 65.2969Z" fill="white"/>
<path d="M141.412 65.2966C141.343 65.2976 141.275 65.2839 141.211 65.2564C141.148 65.229 141.091 65.1884 141.045 65.1373C140.998 65.0863 140.963 65.026 140.941 64.9604C140.92 64.8947 140.913 64.8253 140.92 64.7566L141.124 62.4486C141.139 62.3032 141.206 62.1683 141.314 62.0695C141.422 61.9707 141.562 61.9148 141.708 61.9126C141.777 61.9117 141.845 61.9253 141.908 61.9526C141.971 61.9798 142.027 62.02 142.074 62.0706C142.12 62.1212 142.156 62.181 142.177 62.2462C142.199 62.3113 142.207 62.3803 142.2 62.4486L141.996 64.7566C141.981 64.9024 141.914 65.0378 141.806 65.1373C141.699 65.2368 141.559 65.2935 141.412 65.2966Z" fill="white"/>
<path d="M139.26 65.2968C139.191 65.2978 139.123 65.2841 139.059 65.2566C138.996 65.2292 138.939 65.1886 138.893 65.1375C138.846 65.0865 138.811 65.0261 138.79 64.9605C138.768 64.8949 138.761 64.8255 138.768 64.7568L138.912 63.1128C138.927 62.9663 138.995 62.8304 139.103 62.7308C139.212 62.6313 139.353 62.575 139.5 62.5728C139.569 62.5718 139.637 62.5855 139.701 62.613C139.764 62.6405 139.82 62.6811 139.867 62.7322C139.913 62.7834 139.947 62.8438 139.968 62.9094C139.989 62.975 139.996 63.0444 139.988 63.1128L139.844 64.7568C139.83 64.9026 139.762 65.038 139.654 65.1375C139.547 65.237 139.407 65.2936 139.26 65.2968Z" fill="white"/>
</g>
<g opacity="0.8">
<path d="M100.256 65.2964H97.5521C97.5132 65.2972 97.4745 65.2897 97.4387 65.2743C97.403 65.259 97.3709 65.2361 97.3448 65.2073C97.3186 65.1785 97.299 65.1444 97.2871 65.1073C97.2752 65.0702 97.2715 65.031 97.2761 64.9924L97.4001 63.5404C97.4088 63.458 97.4474 63.3816 97.5085 63.3256C97.5697 63.2696 97.6492 63.2379 97.7321 63.2364H100.436C100.475 63.2355 100.514 63.2431 100.549 63.2584C100.585 63.2738 100.617 63.2967 100.643 63.3255C100.67 63.3543 100.689 63.3884 100.701 63.4255C100.713 63.4626 100.717 63.5017 100.712 63.5404L100.584 64.9924C100.577 65.0748 100.54 65.1517 100.479 65.2079C100.418 65.2641 100.339 65.2957 100.256 65.2964Z" fill="white"/>
<path d="M101.508 64.9005C101.469 64.9012 101.43 64.8937 101.394 64.8784C101.358 64.863 101.326 64.8403 101.3 64.8115C101.273 64.7828 101.253 64.7488 101.241 64.7117C101.228 64.6746 101.224 64.6353 101.228 64.5965L101.288 63.9325C101.296 63.8497 101.334 63.7728 101.396 63.7167C101.457 63.6605 101.537 63.6291 101.62 63.6285C101.659 63.6276 101.698 63.6352 101.733 63.6505C101.769 63.6659 101.801 63.6888 101.827 63.7176C101.853 63.7464 101.873 63.7805 101.885 63.8176C101.897 63.8546 101.901 63.8938 101.896 63.9325L101.84 64.5965C101.831 64.6789 101.793 64.7553 101.732 64.8113C101.67 64.8673 101.591 64.899 101.508 64.9005Z" fill="white"/>
</g>
<path d="M126.469 98.8009C131.852 93.6481 132.388 85.4736 127.668 80.5426C122.948 75.6115 114.757 75.7913 109.375 80.944C103.992 86.0968 103.455 94.2713 108.176 99.2023C112.896 104.133 121.086 103.954 126.469 98.8009Z" fill="white"/>
<path d="M117.968 89.3804C114.576 89.3804 111.708 90.6724 111.464 93.4764L111.192 96.5924H123.484L123.756 93.4764C124 90.6724 121.364 89.3804 117.968 89.3804Z" fill="#FF725E"/>
<path d="M118.08 88.0966C119.656 88.0966 120.384 86.8206 120.52 85.2446C120.656 83.6686 120.156 82.3926 118.58 82.3926C117.004 82.3926 116.28 83.6726 116.14 85.2446C116 86.8166 116.504 88.0966 118.08 88.0966Z" fill="#FF725E"/>
<path d="M130.144 107.78C129.308 107.78 128.6 108.1 128.544 108.792L128.476 109.564H131.512L131.58 108.792C131.636 108.1 130.984 107.78 130.144 107.78Z" fill="#FF725E"/>
<path d="M130.172 107.465C130.572 107.465 130.74 107.149 130.776 106.761C130.812 106.373 130.684 106.057 130.296 106.057C129.908 106.057 129.728 106.373 129.692 106.761C129.656 107.149 129.784 107.465 130.172 107.465Z" fill="#FF725E"/>
<path d="M120.8 125.629H108.8C108.475 125.635 108.152 125.571 107.853 125.442C107.554 125.314 107.286 125.123 107.066 124.883C106.847 124.642 106.681 124.358 106.58 124.049C106.479 123.739 106.445 123.412 106.48 123.089C106.551 122.401 106.872 121.763 107.381 121.295C107.89 120.827 108.553 120.562 109.244 120.549H121.244C121.569 120.543 121.892 120.607 122.191 120.736C122.489 120.865 122.757 121.056 122.976 121.296C123.196 121.536 123.362 121.82 123.463 122.129C123.564 122.438 123.599 122.765 123.564 123.089C123.494 123.777 123.174 124.415 122.664 124.883C122.155 125.351 121.492 125.617 120.8 125.629Z" fill="#FF725E"/>
<path d="M119.348 153.957H106.504C106.159 153.966 105.817 153.901 105.5 153.766C105.183 153.631 104.898 153.429 104.666 153.175C104.434 152.92 104.259 152.618 104.154 152.29C104.048 151.962 104.015 151.615 104.056 151.273L104.876 141.905C104.949 141.178 105.287 140.503 105.824 140.009C106.362 139.514 107.062 139.234 107.792 139.221H120.64C120.984 139.215 121.325 139.282 121.64 139.418C121.956 139.554 122.239 139.756 122.471 140.009C122.702 140.263 122.877 140.564 122.983 140.89C123.09 141.217 123.126 141.563 123.088 141.905L122.268 151.273C122.193 151.999 121.855 152.673 121.317 153.168C120.779 153.662 120.079 153.943 119.348 153.957Z" fill="#FF725E"/>
<g opacity="0.6">
<path d="M115.388 144.269C115.409 144.064 115.386 143.858 115.322 143.663C115.257 143.468 115.151 143.289 115.012 143.137C114.873 142.986 114.703 142.866 114.514 142.785C114.325 142.705 114.122 142.665 113.916 142.669C113.478 142.675 113.058 142.841 112.735 143.136C112.411 143.431 112.207 143.834 112.16 144.269C112.135 144.512 112.171 144.758 112.265 144.984C112.359 145.209 112.509 145.408 112.7 145.561L112.42 148.789C112.406 148.911 112.419 149.035 112.457 149.152C112.495 149.269 112.557 149.376 112.64 149.467C112.723 149.558 112.825 149.63 112.938 149.679C113.051 149.727 113.173 149.751 113.296 149.749C113.557 149.743 113.806 149.643 113.998 149.466C114.189 149.289 114.31 149.048 114.336 148.789L114.62 145.561C114.834 145.414 115.014 145.223 115.147 145C115.279 144.776 115.362 144.527 115.388 144.269Z" fill="white"/>
</g>
<path d="M120.752 141.173H119.096L119.496 136.537C119.566 135.893 119.498 135.242 119.297 134.627C119.096 134.012 118.767 133.446 118.331 132.968C117.894 132.49 117.362 132.11 116.767 131.854C116.173 131.597 115.531 131.47 114.884 131.481C113.509 131.507 112.191 132.036 111.178 132.968C110.166 133.899 109.529 135.168 109.388 136.537L108.988 141.173H107.332L107.732 136.537C107.918 134.721 108.763 133.036 110.106 131.8C111.45 130.564 113.199 129.863 115.024 129.829C115.883 129.814 116.735 129.982 117.524 130.322C118.313 130.662 119.021 131.166 119.6 131.801C120.179 132.435 120.617 133.185 120.884 134.002C121.15 134.818 121.241 135.682 121.148 136.537L120.752 141.173Z" fill="#FF725E"/>
<path d="M130.348 114.881L130.4 114.429C130.411 114.324 130.399 114.218 130.366 114.118C130.333 114.018 130.279 113.926 130.208 113.848C130.137 113.77 130.051 113.709 129.954 113.667C129.858 113.625 129.753 113.603 129.648 113.605C129.424 113.609 129.209 113.695 129.044 113.847C128.879 113.999 128.775 114.206 128.752 114.429L128.712 114.873C128.622 114.875 128.537 114.91 128.471 114.971C128.406 115.032 128.365 115.115 128.356 115.205L128.252 116.405C128.247 116.446 128.251 116.489 128.264 116.529C128.276 116.57 128.298 116.607 128.326 116.638C128.355 116.669 128.39 116.694 128.429 116.71C128.468 116.726 128.51 116.734 128.552 116.733H130.2C130.289 116.731 130.375 116.697 130.44 116.636C130.506 116.576 130.547 116.493 130.556 116.405L130.66 115.205C130.663 115.162 130.658 115.119 130.644 115.079C130.629 115.039 130.607 115.003 130.577 114.972C130.548 114.942 130.512 114.917 130.472 114.902C130.433 114.886 130.391 114.879 130.348 114.881ZM129.6 113.817C129.679 113.816 129.758 113.831 129.831 113.863C129.904 113.894 129.969 113.941 130.023 114C130.076 114.058 130.117 114.127 130.142 114.203C130.167 114.278 130.176 114.358 130.168 114.437L130.128 114.881H128.888L128.928 114.437C128.945 114.269 129.023 114.114 129.147 114C129.271 113.886 129.432 113.82 129.6 113.817Z" fill="#FF725E"/>
<path d="M105.54 115.357L104.964 115.237C104.948 115.233 104.933 115.226 104.92 115.216C104.907 115.207 104.896 115.194 104.889 115.179C104.882 115.164 104.878 115.148 104.878 115.132C104.878 115.116 104.881 115.099 104.888 115.085L105.128 114.517C105.138 114.492 105.139 114.465 105.131 114.44C105.123 114.414 105.106 114.393 105.083 114.379C105.061 114.365 105.034 114.36 105.008 114.364C104.982 114.368 104.958 114.381 104.94 114.401L104.504 114.849C104.494 114.862 104.48 114.873 104.465 114.88C104.45 114.887 104.433 114.891 104.416 114.891C104.399 114.891 104.382 114.887 104.367 114.88C104.352 114.873 104.339 114.862 104.328 114.849L103.972 114.401C103.896 114.305 103.732 114.401 103.76 114.517L103.9 115.085C103.904 115.101 103.905 115.118 103.902 115.135C103.899 115.152 103.893 115.168 103.883 115.182C103.874 115.197 103.862 115.209 103.847 115.218C103.833 115.228 103.817 115.234 103.8 115.237L103.204 115.357C103.076 115.381 103.06 115.561 103.184 115.585L103.76 115.705C103.776 115.708 103.791 115.714 103.804 115.724C103.817 115.735 103.828 115.747 103.835 115.762C103.842 115.777 103.845 115.793 103.845 115.81C103.844 115.826 103.84 115.842 103.832 115.857L103.6 116.429C103.59 116.453 103.589 116.48 103.597 116.506C103.606 116.531 103.622 116.552 103.645 116.566C103.668 116.58 103.694 116.586 103.721 116.582C103.747 116.578 103.771 116.565 103.788 116.545L104.224 116.097C104.235 116.084 104.249 116.075 104.264 116.068C104.279 116.062 104.296 116.058 104.312 116.058C104.329 116.058 104.345 116.062 104.36 116.068C104.375 116.075 104.389 116.084 104.4 116.097L104.756 116.545C104.832 116.641 104.996 116.545 104.964 116.429L104.824 115.861C104.818 115.827 104.826 115.792 104.845 115.763C104.865 115.735 104.894 115.715 104.928 115.709L105.524 115.589C105.648 115.561 105.664 115.381 105.54 115.357Z" fill="#263238"/>
<path d="M109.324 115.357L108.748 115.237C108.732 115.233 108.717 115.226 108.704 115.216C108.691 115.207 108.68 115.194 108.673 115.179C108.666 115.164 108.662 115.148 108.662 115.132C108.661 115.116 108.665 115.099 108.672 115.085L108.912 114.517C108.922 114.492 108.923 114.465 108.915 114.44C108.907 114.414 108.89 114.393 108.867 114.379C108.845 114.365 108.818 114.36 108.792 114.364C108.765 114.368 108.741 114.381 108.724 114.401L108.288 114.849C108.278 114.862 108.264 114.873 108.249 114.88C108.234 114.887 108.217 114.891 108.2 114.891C108.183 114.891 108.166 114.887 108.151 114.88C108.136 114.873 108.123 114.862 108.112 114.849L107.756 114.401C107.68 114.305 107.516 114.401 107.548 114.517L107.688 115.085C107.691 115.101 107.692 115.119 107.688 115.136C107.685 115.153 107.678 115.168 107.668 115.183C107.659 115.197 107.646 115.209 107.632 115.218C107.617 115.227 107.601 115.234 107.584 115.237L106.988 115.357C106.86 115.381 106.844 115.561 106.968 115.585L107.544 115.705C107.56 115.708 107.575 115.715 107.588 115.725C107.601 115.735 107.612 115.747 107.619 115.762C107.626 115.777 107.63 115.793 107.63 115.809C107.631 115.826 107.627 115.842 107.62 115.857L107.38 116.425C107.37 116.449 107.369 116.476 107.377 116.502C107.386 116.527 107.402 116.548 107.425 116.562C107.448 116.576 107.474 116.582 107.5 116.578C107.527 116.574 107.551 116.561 107.568 116.541L108.004 116.093C108.015 116.08 108.029 116.071 108.044 116.064C108.059 116.058 108.076 116.054 108.092 116.054C108.109 116.054 108.125 116.058 108.14 116.064C108.155 116.071 108.169 116.08 108.18 116.093L108.536 116.541C108.612 116.637 108.776 116.541 108.748 116.425L108.608 115.857C108.605 115.84 108.604 115.823 108.607 115.806C108.611 115.79 108.617 115.774 108.626 115.76C108.636 115.746 108.648 115.733 108.662 115.724C108.676 115.715 108.691 115.708 108.708 115.705L109.304 115.585C109.432 115.561 109.448 115.381 109.324 115.357Z" fill="#263238"/>
<path d="M113.108 115.356L112.536 115.236C112.52 115.234 112.504 115.227 112.491 115.218C112.477 115.208 112.466 115.195 112.459 115.18C112.451 115.165 112.448 115.149 112.448 115.132C112.448 115.115 112.452 115.099 112.46 115.084L112.7 114.516C112.716 114.491 112.72 114.46 112.713 114.431C112.706 114.403 112.688 114.378 112.662 114.362C112.637 114.347 112.606 114.342 112.577 114.349C112.548 114.357 112.523 114.375 112.508 114.4L112.076 114.848C112.065 114.862 112.052 114.873 112.036 114.88C112.02 114.887 112.003 114.891 111.986 114.891C111.969 114.891 111.952 114.887 111.936 114.88C111.921 114.873 111.907 114.862 111.896 114.848L111.54 114.4C111.464 114.304 111.3 114.4 111.332 114.516L111.472 115.084C111.476 115.101 111.476 115.118 111.473 115.135C111.47 115.151 111.463 115.167 111.454 115.181C111.445 115.195 111.433 115.207 111.418 115.217C111.404 115.226 111.389 115.233 111.372 115.236L110.776 115.356C110.648 115.38 110.632 115.56 110.756 115.584L111.328 115.704C111.344 115.708 111.359 115.715 111.372 115.724C111.385 115.734 111.396 115.747 111.403 115.762C111.41 115.777 111.414 115.793 111.414 115.809C111.415 115.825 111.411 115.842 111.404 115.856L111.164 116.424C111.149 116.45 111.144 116.48 111.151 116.509C111.158 116.538 111.177 116.563 111.202 116.578C111.228 116.594 111.258 116.598 111.287 116.591C111.316 116.584 111.341 116.566 111.356 116.54L111.788 116.092C111.799 116.08 111.813 116.071 111.828 116.064C111.843 116.057 111.86 116.054 111.876 116.054C111.893 116.054 111.909 116.057 111.924 116.064C111.939 116.071 111.953 116.08 111.964 116.092L112.324 116.54C112.4 116.636 112.564 116.54 112.532 116.424L112.392 115.856C112.386 115.823 112.393 115.789 112.412 115.76C112.43 115.732 112.459 115.712 112.492 115.704L113.088 115.584C113.2 115.56 113.232 115.38 113.108 115.356Z" fill="#263238"/>
<path d="M116.896 115.357L116.32 115.237C116.304 115.233 116.289 115.226 116.276 115.216C116.263 115.207 116.252 115.194 116.245 115.179C116.238 115.164 116.234 115.148 116.234 115.132C116.234 115.116 116.237 115.099 116.244 115.085L116.484 114.517C116.494 114.492 116.495 114.465 116.487 114.44C116.479 114.414 116.462 114.393 116.439 114.379C116.417 114.365 116.39 114.36 116.364 114.364C116.338 114.368 116.314 114.381 116.296 114.401L115.86 114.849C115.85 114.862 115.836 114.873 115.821 114.88C115.806 114.887 115.789 114.891 115.772 114.891C115.755 114.891 115.738 114.887 115.723 114.88C115.708 114.873 115.695 114.862 115.684 114.849L115.328 114.401C115.252 114.305 115.088 114.401 115.116 114.517L115.256 115.085C115.26 115.101 115.261 115.118 115.258 115.135C115.255 115.152 115.249 115.168 115.239 115.182C115.23 115.197 115.218 115.209 115.203 115.218C115.189 115.228 115.173 115.234 115.156 115.237L114.56 115.357C114.432 115.381 114.416 115.561 114.56 115.585L115.136 115.705C115.152 115.708 115.167 115.714 115.18 115.724C115.193 115.735 115.204 115.747 115.211 115.762C115.218 115.777 115.221 115.793 115.221 115.81C115.22 115.826 115.216 115.842 115.208 115.857L114.972 116.425C114.962 116.449 114.961 116.476 114.969 116.502C114.978 116.527 114.994 116.548 115.017 116.562C115.04 116.576 115.066 116.582 115.093 116.578C115.119 116.574 115.143 116.561 115.16 116.541L115.596 116.093C115.607 116.08 115.621 116.071 115.636 116.064C115.651 116.058 115.668 116.054 115.684 116.054C115.701 116.054 115.717 116.058 115.732 116.064C115.747 116.071 115.761 116.08 115.772 116.093L116.128 116.541C116.204 116.637 116.368 116.541 116.336 116.425L116.196 115.857C116.19 115.823 116.198 115.788 116.217 115.759C116.237 115.731 116.266 115.711 116.3 115.705L116.896 115.585C117.004 115.561 117.02 115.381 116.896 115.357Z" fill="#263238"/>
<path d="M120.68 115.357L120.104 115.237C120.088 115.233 120.073 115.226 120.06 115.216C120.047 115.207 120.036 115.194 120.029 115.179C120.022 115.164 120.018 115.148 120.018 115.132C120.017 115.116 120.021 115.099 120.028 115.085L120.268 114.517C120.278 114.492 120.279 114.465 120.271 114.44C120.262 114.414 120.246 114.393 120.223 114.379C120.201 114.365 120.174 114.36 120.148 114.364C120.121 114.368 120.097 114.381 120.08 114.401L119.644 114.849C119.634 114.862 119.62 114.873 119.605 114.88C119.59 114.887 119.573 114.891 119.556 114.891C119.539 114.891 119.522 114.887 119.507 114.88C119.492 114.873 119.478 114.862 119.468 114.849L119.112 114.401C119.036 114.305 118.872 114.401 118.904 114.517L119.044 115.085C119.047 115.101 119.048 115.119 119.044 115.136C119.041 115.153 119.034 115.168 119.024 115.183C119.015 115.197 119.002 115.209 118.988 115.218C118.973 115.227 118.957 115.234 118.94 115.237L118.344 115.357C118.216 115.381 118.2 115.561 118.324 115.585L118.9 115.705C118.916 115.708 118.931 115.715 118.944 115.725C118.957 115.735 118.968 115.747 118.975 115.762C118.982 115.777 118.986 115.793 118.986 115.809C118.987 115.826 118.983 115.842 118.976 115.857L118.736 116.425C118.726 116.449 118.725 116.476 118.733 116.502C118.741 116.527 118.758 116.548 118.781 116.562C118.803 116.576 118.83 116.582 118.856 116.578C118.883 116.574 118.907 116.561 118.924 116.541L119.36 116.093C119.371 116.08 119.385 116.071 119.4 116.064C119.415 116.058 119.431 116.054 119.448 116.054C119.465 116.054 119.481 116.058 119.496 116.064C119.511 116.071 119.525 116.08 119.536 116.093L119.892 116.541C119.968 116.637 120.132 116.541 120.104 116.425L119.964 115.857C119.96 115.84 119.96 115.823 119.963 115.806C119.967 115.79 119.973 115.774 119.982 115.76C119.992 115.746 120.004 115.733 120.018 115.724C120.032 115.715 120.047 115.708 120.064 115.705L120.66 115.585C120.8 115.561 120.8 115.381 120.68 115.357Z" fill="#263238"/>
<path d="M124.464 115.356L123.888 115.236C123.872 115.233 123.857 115.226 123.844 115.216C123.831 115.206 123.82 115.193 123.813 115.179C123.806 115.164 123.803 115.148 123.803 115.131C123.804 115.115 123.808 115.099 123.816 115.084L124.056 114.516C124.064 114.504 124.069 114.49 124.071 114.475C124.073 114.461 124.073 114.446 124.069 114.431C124.065 114.417 124.059 114.404 124.05 114.392C124.042 114.38 124.031 114.37 124.018 114.362C124.005 114.355 123.991 114.35 123.977 114.347C123.962 114.345 123.948 114.346 123.933 114.349C123.919 114.353 123.905 114.359 123.894 114.368C123.882 114.377 123.872 114.388 123.864 114.4L123.432 114.848C123.421 114.862 123.407 114.873 123.392 114.88C123.376 114.887 123.359 114.891 123.342 114.891C123.325 114.891 123.308 114.887 123.292 114.88C123.277 114.873 123.263 114.862 123.252 114.848L122.896 114.4C122.82 114.304 122.656 114.4 122.688 114.516L122.828 115.084C122.832 115.101 122.832 115.118 122.829 115.135C122.825 115.151 122.819 115.167 122.81 115.181C122.8 115.195 122.788 115.207 122.774 115.217C122.76 115.226 122.745 115.233 122.728 115.236L122.132 115.356C122.004 115.38 121.988 115.56 122.112 115.584L122.684 115.704C122.7 115.708 122.715 115.715 122.728 115.724C122.741 115.734 122.752 115.747 122.759 115.762C122.766 115.776 122.77 115.793 122.77 115.809C122.771 115.825 122.767 115.842 122.76 115.856L122.52 116.424C122.505 116.45 122.5 116.48 122.507 116.509C122.514 116.538 122.533 116.563 122.558 116.578C122.584 116.594 122.614 116.598 122.643 116.591C122.672 116.584 122.697 116.566 122.712 116.54L123.144 116.092C123.155 116.08 123.169 116.071 123.184 116.064C123.199 116.057 123.216 116.054 123.232 116.054C123.249 116.054 123.265 116.057 123.28 116.064C123.295 116.071 123.309 116.08 123.32 116.092L123.676 116.54C123.695 116.561 123.72 116.575 123.748 116.58C123.775 116.585 123.804 116.58 123.828 116.567C123.853 116.553 123.872 116.532 123.883 116.506C123.894 116.48 123.896 116.451 123.888 116.424L123.748 115.856C123.742 115.823 123.749 115.789 123.768 115.76C123.786 115.732 123.815 115.712 123.848 115.704L124.444 115.584C124.572 115.56 124.588 115.38 124.464 115.356Z" fill="#263238"/>
<path d="M115.34 107.072H108.236C108.018 107.076 107.809 107.16 107.648 107.307C107.488 107.454 107.387 107.655 107.364 107.872C107.353 107.974 107.363 108.078 107.395 108.175C107.427 108.273 107.479 108.363 107.548 108.439C107.618 108.514 107.702 108.574 107.797 108.615C107.891 108.655 107.993 108.675 108.096 108.672H115.2C115.418 108.669 115.627 108.585 115.788 108.438C115.949 108.29 116.05 108.089 116.072 107.872C116.083 107.77 116.072 107.667 116.04 107.57C116.008 107.473 115.955 107.383 115.886 107.308C115.817 107.232 115.733 107.172 115.638 107.131C115.544 107.091 115.443 107.071 115.34 107.072Z" fill="#263238"/>
<path d="M122.556 107.072H118.432C118.214 107.076 118.006 107.16 117.846 107.307C117.686 107.455 117.586 107.656 117.564 107.872C117.553 107.974 117.563 108.077 117.595 108.174C117.626 108.272 117.678 108.361 117.747 108.437C117.816 108.513 117.9 108.573 117.994 108.613C118.088 108.654 118.19 108.674 118.292 108.672H122.4C122.618 108.668 122.826 108.585 122.986 108.437C123.146 108.29 123.247 108.089 123.268 107.872C123.279 107.772 123.269 107.67 123.239 107.574C123.208 107.478 123.157 107.389 123.09 107.314C123.023 107.238 122.941 107.178 122.849 107.136C122.757 107.095 122.657 107.073 122.556 107.072Z" fill="#263238"/>
<path d="M128 143.333C125.489 144.289 123.222 145.792 121.364 147.733C120.236 146.856 118.89 146.303 117.472 146.133L117.284 146.105L117.204 147.049L117.308 147.089C118.864 147.661 120.179 148.744 121.04 150.161L121.176 150.385L121.324 150.145C122.981 147.5 125.318 145.35 128.092 143.921L128.184 143.873L128.236 143.249L128 143.333Z" fill="#263238"/>
<path opacity="0.2" d="M92.2561 64.5762C91.7464 65.4663 91.4327 66.455 91.3361 67.4762L85.3801 135.564H103.812L107.516 121.368L106.296 107.168L110 92.9722L108.8 78.7762L112.504 64.5762H92.2561Z" fill="black"/>
<path d="M107.18 74.7762L110.884 60.5762H64.272L60.572 74.7762L61.788 88.9722L58.088 103.168L59.304 117.368L55.604 131.564H102.212L105.916 117.368L104.696 103.168L108.4 88.9722L107.18 74.7762Z" fill="#FF725E"/>
<path opacity="0.7" d="M107.18 74.7762L110.884 60.5762H64.272L60.572 74.7762L61.788 88.9722L58.088 103.168L59.304 117.368L55.604 131.564H102.212L105.916 117.368L104.696 103.168L108.4 88.9722L107.18 74.7762Z" fill="white"/>
<path opacity="0.5" d="M107.18 74.7762H60.572L64.272 60.5762H110.884L107.18 74.7762Z" fill="white"/>
<path opacity="0.5" d="M104.696 103.168H58.0881L61.7881 88.9722H108.4L104.696 103.168Z" fill="white"/>
<path opacity="0.5" d="M102.212 131.564H55.6001L59.3041 117.368H105.916L102.212 131.564Z" fill="white"/>
<path opacity="0.2" d="M100.944 80.7082C100.466 80.8464 99.9698 80.9138 99.472 80.9082C98.797 80.9381 98.1251 80.8007 97.516 80.5082C97.4058 80.4429 97.2801 80.4084 97.152 80.4082C97.0345 80.4098 96.9192 80.44 96.816 80.4962H96.792C96.6134 80.5965 96.4224 80.6731 96.224 80.7242C95.7764 80.8424 95.315 80.9002 94.852 80.8962C94.712 80.8962 94.576 80.8962 94.452 80.8962C94.0928 80.8731 93.7373 80.8101 93.392 80.7082C93.3412 80.6931 93.2889 80.6837 93.236 80.6802C93.148 80.673 93.0595 80.6841 92.9761 80.7128C92.8926 80.7415 92.8159 80.7871 92.7509 80.8469C92.6859 80.9066 92.634 80.9791 92.5984 81.0599C92.5628 81.1407 92.5443 81.2279 92.544 81.3162V81.7482H74.4C74.0667 81.7482 73.7366 81.8139 73.4286 81.9416C73.1207 82.0693 72.8409 82.2565 72.6054 82.4924C72.3698 82.7283 72.1831 83.0083 72.0559 83.3165C71.9287 83.6246 71.8635 83.9548 71.864 84.2882V86.8442C71.863 87.1779 71.9278 87.5085 72.0548 87.8171C72.1817 88.1258 72.3684 88.4063 72.604 88.6426C72.8396 88.8789 73.1195 89.0665 73.4277 89.1944C73.7359 89.3223 74.0663 89.3882 74.4 89.3882H95.012H95.148C95.368 89.5722 95.6 89.7562 95.848 89.9442C96.096 90.1322 96.448 90.3922 96.772 90.6242C96.8826 90.7042 97.0156 90.7473 97.152 90.7473C97.2885 90.7473 97.4215 90.7042 97.532 90.6242C100.124 88.7442 101.788 87.4482 101.788 83.8882V81.3282C101.789 81.2258 101.766 81.1246 101.72 81.033C101.675 80.9414 101.608 80.862 101.525 80.8013C101.443 80.7407 101.347 80.7007 101.246 80.6845C101.145 80.6683 101.041 80.6764 100.944 80.7082Z" fill="black"/>
<path d="M94.616 80.3442H74.008C72.6052 80.3442 71.468 81.4814 71.468 82.8842V85.4402C71.468 86.843 72.6052 87.9802 74.008 87.9802H94.616C96.0188 87.9802 97.156 86.843 97.156 85.4402V82.8842C97.156 81.4814 96.0188 80.3442 94.616 80.3442Z" fill="#FF725E"/>
<path d="M99.076 79.5002C98.4011 79.5291 97.7294 79.3918 97.12 79.1002C97.0117 79.0337 96.8871 78.9985 96.76 78.9985C96.6329 78.9985 96.5083 79.0337 96.4 79.1002C95.7894 79.3922 95.1163 79.5296 94.44 79.5002C93.9422 79.5055 93.4463 79.4382 92.968 79.3002C92.8717 79.2678 92.769 79.2588 92.6684 79.274C92.5679 79.2892 92.4724 79.3281 92.3899 79.3876C92.3074 79.447 92.2403 79.5252 92.1941 79.6158C92.1478 79.7063 92.1238 79.8066 92.124 79.9082V82.4682C92.124 86.0322 93.788 87.3282 96.38 89.2082C96.4906 89.2883 96.6236 89.3314 96.76 89.3314C96.8965 89.3314 97.0295 89.2883 97.14 89.2082C99.732 87.3282 101.396 86.0322 101.396 82.4682V79.9082C101.396 79.8064 101.371 79.7061 101.324 79.6156C101.278 79.5252 101.21 79.447 101.127 79.3877C101.045 79.3284 100.949 79.2895 100.848 79.2743C100.747 79.2591 100.645 79.268 100.548 79.3002C100.07 79.4384 99.5738 79.5058 99.076 79.5002Z" fill="#FF725E"/>
<path opacity="0.3" d="M99.076 79.5002C98.4011 79.5291 97.7294 79.3918 97.12 79.1002C97.0117 79.0337 96.8871 78.9985 96.76 78.9985C96.6329 78.9985 96.5083 79.0337 96.4 79.1002C95.7894 79.3922 95.1163 79.5296 94.44 79.5002C93.9422 79.5055 93.4463 79.4382 92.968 79.3002C92.8717 79.2678 92.769 79.2588 92.6684 79.274C92.5679 79.2892 92.4724 79.3281 92.3899 79.3876C92.3074 79.447 92.2403 79.5252 92.1941 79.6158C92.1478 79.7063 92.1238 79.8066 92.124 79.9082V82.4682C92.124 86.0322 93.788 87.3282 96.38 89.2082C96.4906 89.2883 96.6236 89.3314 96.76 89.3314C96.8965 89.3314 97.0295 89.2883 97.14 89.2082C99.732 87.3282 101.396 86.0322 101.396 82.4682V79.9082C101.396 79.8064 101.371 79.7061 101.324 79.6156C101.278 79.5252 101.21 79.447 101.127 79.3877C101.045 79.3284 100.949 79.2895 100.848 79.2743C100.747 79.2591 100.645 79.268 100.548 79.3002C100.07 79.4384 99.5738 79.5058 99.076 79.5002Z" fill="white"/>
<path opacity="0.2" d="M96.4 79.0924C95.7894 79.3844 95.1163 79.5218 94.44 79.4924C93.9423 79.4974 93.4464 79.4301 92.968 79.2924C92.8717 79.26 92.769 79.251 92.6684 79.2662C92.5679 79.2814 92.4724 79.3203 92.3899 79.3798C92.3074 79.4392 92.2403 79.5174 92.1941 79.6079C92.1478 79.6985 92.1238 79.7987 92.124 79.9004V82.4604C92.124 86.0244 93.788 87.3204 96.38 89.2004C96.4961 89.2846 96.6367 89.3282 96.78 89.3244V78.9884C96.646 78.9858 96.514 79.0219 96.4 79.0924Z" fill="white"/>
<path d="M100.476 81.7721C98.9169 82.383 97.5282 83.3614 96.4281 84.6241C95.661 84.0586 94.7617 83.6992 93.8161 83.5801H93.6921V84.1921L93.7601 84.2161C94.8118 84.5957 95.7183 85.2951 96.3521 86.2161L96.4521 86.3601L96.5361 86.2041C97.4557 84.4952 98.8561 83.0934 100.564 82.1721L100.624 82.1441V81.7441L100.476 81.7721Z" fill="#263238"/>
<path d="M110.06 64.5723H108.292C108.065 64.5765 107.839 64.5322 107.63 64.4423C107.421 64.3524 107.234 64.2189 107.08 64.0509C106.927 63.8828 106.811 63.6839 106.741 63.4676C106.67 63.2513 106.647 63.0224 106.672 62.7963L106.828 61.0283C106.876 60.5475 107.099 60.101 107.454 59.7736C107.81 59.4462 108.273 59.2607 108.756 59.2523H110.524C110.752 59.2475 110.978 59.2914 111.188 59.3811C111.397 59.4707 111.585 59.6041 111.739 59.7722C111.892 59.9404 112.008 60.1394 112.079 60.356C112.15 60.5727 112.173 60.8019 112.148 61.0283L111.992 62.7963C111.938 63.2755 111.713 63.7191 111.358 64.0455C111.003 64.3718 110.542 64.5589 110.06 64.5723Z" fill="#FF725E"/>
<path d="M110.796 61.0241L110.412 60.6001L109.444 61.4881L108.636 60.6001L108.176 61.0241L108.988 61.9121L108.024 62.8001L108.408 63.2201L109.372 62.3321L110.184 63.2201L110.64 62.8001L109.828 61.9121L110.796 61.0241Z" fill="white"/>
</svg>
