<svg width="19" height="18" viewBox="0 0 19 18" fill="none" xmlns="http://www.w3.org/2000/svg">
<path d="M2.20086 2.64906C0.0956897 4.66981 0 4.83019 0 6.27358C0 7.65283 0.223276 8.03774 3.44483 12.2717C5.32672 14.7736 6.95345 16.8264 7.04914 16.8264C7.27241 16.8585 14.9595 7.0434 15.2147 6.40189C15.3422 6.01698 14.5129 5.95283 9.69655 5.98491C6.53879 5.98491 4.14655 6.04906 4.30603 6.14528C4.49741 6.20943 6.09224 6.53019 7.91034 6.88302C9.72845 7.20377 11.3233 7.62075 11.4828 7.74906C11.7379 8.03774 7.49569 13.6509 7.08103 13.6509C6.69828 13.6189 1.27586 6.30566 1.30776 5.88868C1.30776 5.66415 2.10517 4.79811 3.06207 3.93208L4.78448 2.42453H8.99483H13.1733L15.3741 4.22075C17.3517 5.82453 17.5431 6.08113 17.1284 6.53019C16.8733 6.85094 14.9914 9.19245 12.95 11.7906C10.8767 14.3887 8.89914 16.7623 8.51638 17.0189C7.87845 17.4679 7.84655 17.5 8.45259 17.5C8.86724 17.5 10.8448 15.7038 13.8112 12.6245L18.5 7.74906V6.11321L18.4681 4.50943L15.9802 2.48868L13.4922 0.5H8.93103H4.40172L2.20086 2.64906Z" fill="#F36234"/>
</svg>
