<svg width="200" height="201" viewBox="0 0 200 201" fill="none" xmlns="http://www.w3.org/2000/svg">
<g clip-path="url(#clip0_38_2884)">
<path d="M200 153.239H0V153.333H200V153.239Z" fill="#E0E0E0"/>
<path d="M171.888 158.15H160.532V158.244H171.888V158.15Z" fill="#E0E0E0"/>
<path d="M157.6 158.196H147.452V158.29H157.6V158.196Z" fill="#E0E0E0"/>
<path d="M110.648 156.019H96.988V156.113H110.648V156.019Z" fill="#E0E0E0"/>
<path d="M136.408 158.934H117.424V159.028H136.408V158.934Z" fill="#E0E0E0"/>
<path d="M57.1359 155.909H38.7559V156.003H57.1359V155.909Z" fill="#E0E0E0"/>
<path d="M65.6 155.909H59.356V156.003H65.6V155.909Z" fill="#E0E0E0"/>
<path d="M41.0679 157.602H24.9839V157.696H41.0679V157.602Z" fill="#E0E0E0"/>
<path d="M94.7999 136.464H17.5639C16.9589 136.463 16.379 136.237 15.9515 135.834C15.524 135.431 15.2839 134.886 15.2839 134.317V32.2284C15.2892 31.6627 15.5316 31.1219 15.9585 30.7233C16.3854 30.3247 16.9623 30.1006 17.5639 30.0996H94.7999C95.4057 30.0996 95.9866 30.3259 96.415 30.7286C96.8433 31.1314 97.0839 31.6776 97.0839 32.2472V134.317C97.0839 134.886 96.8433 135.432 96.415 135.835C95.9866 136.238 95.4057 136.464 94.7999 136.464ZM17.5639 30.1748C16.9854 30.1758 16.4309 30.3926 16.0222 30.7776C15.6135 31.1626 15.3839 31.6844 15.3839 32.2284V134.317C15.3839 134.861 15.6135 135.382 16.0222 135.767C16.4309 136.152 16.9854 136.369 17.5639 136.37H94.7999C95.3785 136.368 95.9328 136.151 96.3419 135.767C96.7511 135.382 96.9818 134.861 96.9839 134.317V32.2284C96.9818 31.6844 96.7511 31.1632 96.3419 30.7785C95.9328 30.3938 95.3785 30.1768 94.7999 30.1748H17.5639Z" fill="#E0E0E0"/>
<path d="M181.324 136.464H104.084C103.479 136.462 102.899 136.235 102.471 135.833C102.043 135.431 101.802 134.886 101.8 134.317V32.2284C101.806 31.6624 102.05 31.1215 102.477 30.7231C102.905 30.3246 103.482 30.1006 104.084 30.0996H181.324C181.925 30.1016 182.501 30.3261 182.927 30.7246C183.353 31.1231 183.595 31.6634 183.6 32.2284V134.317C183.601 134.598 183.542 134.877 183.428 135.137C183.314 135.398 183.146 135.634 182.935 135.834C182.724 136.033 182.473 136.191 182.196 136.3C181.92 136.408 181.623 136.464 181.324 136.464ZM104.084 30.1748C103.505 30.1768 102.951 30.3938 102.542 30.7785C102.133 31.1632 101.902 31.6844 101.9 32.2284V134.317C101.902 134.861 102.133 135.382 102.542 135.767C102.951 136.151 103.505 136.368 104.084 136.37H181.324C181.903 136.368 182.457 136.151 182.866 135.767C183.275 135.382 183.506 134.861 183.508 134.317V32.2284C183.506 31.6844 183.275 31.1632 182.866 30.7785C182.457 30.3938 181.903 30.1768 181.324 30.1748H104.084Z" fill="#E0E0E0"/>
<path d="M131.344 39.2275H28.5439V87.9567H131.344V39.2275Z" fill="#E0E0E0"/>
<path d="M132.684 39.2275H29.884V87.9567H132.684V39.2275Z" fill="#EFEFEF"/>
<path d="M130.28 41.5107H32.292V85.6664H130.28V41.5107Z" fill="#F4F4F4"/>
<path d="M39.5481 85.6703L66.1241 41.5146H78.5761L52.0041 85.6703H39.5481Z" fill="white"/>
<path d="M56.1838 85.6703L82.7598 41.5146H95.2118L68.6398 85.6703H56.1838Z" fill="white"/>
<path d="M90.8 85.6703L117.372 41.5146H122.5L95.9281 85.6703H90.8Z" fill="white"/>
<path d="M98.3799 41.5107H94.7559V85.6664H98.3799V41.5107Z" fill="#E0E0E0"/>
<path d="M65.1399 41.5107H61.5159V85.6664H65.1399V41.5107Z" fill="#E0E0E0"/>
<path d="M99.6521 39.8145H96.0281V87.1219H99.6521V39.8145Z" fill="#F4F4F4"/>
<path d="M66.4118 39.8145H62.7878V87.1219H66.4118V39.8145Z" fill="#F4F4F4"/>
<path d="M130.28 41.5107H129.268V85.6664H130.28V41.5107Z" fill="#E0E0E0"/>
<path d="M156.736 102.343C156.736 102.343 149.4 90.4542 159.576 80.9912C159.576 80.9912 162.232 82.616 162.192 84.805C162.152 86.994 159.348 87.5469 159.948 89.3748C160.548 91.2027 163.2 92.993 161.464 94.5012C159.728 96.0094 161.74 97.3559 161.624 99.2026C161.508 101.049 156.736 102.343 156.736 102.343Z" fill="#E0E0E0"/>
<path d="M157.888 104.288C157.888 104.288 160.86 90.8304 148.028 84.8652C148.028 84.8652 146.056 87.1971 146.828 89.262C147.6 91.3268 150.448 91.0222 150.488 92.9328C150.528 94.8435 148.616 97.3296 150.772 98.2473C152.928 99.165 151.464 101.038 152.196 102.761C152.928 104.483 157.888 104.288 157.888 104.288Z" fill="#EBEBEB"/>
<path d="M151.356 100.869C151.356 100.869 151.484 106.481 156.42 106.481C161.356 106.481 161.488 100.869 161.488 100.869H151.356Z" fill="#F4F4F4"/>
<path d="M117.104 102.11C117.104 102.11 117.272 106.481 123.764 106.481C130.256 106.481 130.428 102.11 130.428 102.11H117.104Z" fill="#EBEBEB"/>
<path d="M132.172 103.193C132.172 103.193 132.3 106.481 137.18 106.481C142.06 106.481 142.184 103.193 142.184 103.193H132.172Z" fill="#EBEBEB"/>
<path d="M121.676 109.207H110.748V150.418H121.676V109.207Z" fill="#EBEBEB"/>
<path d="M166.732 150.414H112.844V153.239H166.732V150.414Z" fill="#EBEBEB"/>
<path d="M168.832 109.204H121.676V150.415H168.832V109.204Z" fill="#F4F4F4"/>
<path d="M164.536 113.19H125.972V127.806H164.536V113.19Z" fill="#EBEBEB"/>
<path d="M164.536 130.469H125.972V145.084H164.536V130.469Z" fill="#EBEBEB"/>
<path d="M149.6 114.793H140.924C140.641 114.793 140.37 114.687 140.17 114.5C139.97 114.312 139.857 114.058 139.856 113.792C139.858 113.527 139.971 113.272 140.171 113.084C140.371 112.896 140.641 112.79 140.924 112.788H149.6C149.883 112.79 150.153 112.896 150.353 113.084C150.553 113.272 150.666 113.527 150.668 113.792C150.667 114.058 150.554 114.312 150.354 114.5C150.154 114.687 149.883 114.793 149.6 114.793Z" fill="#F4F4F4"/>
<path d="M149.6 132.071H140.924C140.641 132.071 140.37 131.966 140.17 131.778C139.97 131.591 139.857 131.336 139.856 131.071C139.858 130.805 139.971 130.551 140.171 130.363C140.371 130.175 140.641 130.068 140.924 130.066H149.6C149.883 130.068 150.153 130.175 150.353 130.363C150.553 130.551 150.666 130.805 150.668 131.071C150.667 131.336 150.554 131.591 150.354 131.778C150.154 131.966 149.883 132.071 149.6 132.071Z" fill="#F4F4F4"/>
<path d="M170.284 106.48H121.672V109.207H170.284V106.48Z" fill="#EBEBEB"/>
<path d="M121.672 106.477H109.216V109.203H121.672V106.477Z" fill="#E0E0E0"/>
<path d="M167.848 46.0879H144.176V71.7312H167.848V46.0879Z" fill="#EBEBEB"/>
<path d="M170.536 46.0879H144.884V71.7312H170.536V46.0879Z" fill="#F4F4F4"/>
<path d="M168.388 48.1074H147.032V69.7076H168.388V48.1074Z" fill="white"/>
<path d="M161.328 53.3428H154.092C153.052 53.3428 152.208 54.1359 152.208 55.1143V62.7005C152.208 63.6788 153.052 64.4719 154.092 64.4719H161.328C162.369 64.4719 163.212 63.6788 163.212 62.7005V55.1143C163.212 54.1359 162.369 53.3428 161.328 53.3428Z" fill="#F4F4F4"/>
<path d="M107.636 129.363H104.888V153.239H107.636V129.363Z" fill="#E0E0E0"/>
<path opacity="0.5" d="M107.636 129.363H106.26V153.239H107.636V129.363Z" fill="#F4F4F4"/>
<path d="M95.6 136.05H93.712C93.919 135.885 94.0852 135.68 94.1992 135.449C94.3132 135.218 94.3722 134.966 94.372 134.711H72C72.0004 134.966 72.06 135.218 72.1747 135.449C72.2894 135.681 72.4564 135.886 72.664 136.05H70.8C70.1317 136.05 69.4907 136.3 69.0181 136.744C68.5455 137.188 68.28 137.791 68.28 138.419V145.329C68.28 145.957 68.5455 146.56 69.0181 147.004C69.4907 147.448 70.1317 147.698 70.8 147.698H95.6C96.2684 147.698 96.9093 147.448 97.3819 147.004C97.8545 146.56 98.12 145.957 98.12 145.329V138.419C98.12 137.791 97.8545 137.188 97.3819 136.744C96.9093 136.3 96.2684 136.05 95.6 136.05Z" fill="#F4F4F4"/>
<path d="M74.908 141.154H59.864C58.9273 141.154 58.168 141.868 58.168 142.749V146.104C58.168 146.985 58.9273 147.699 59.864 147.699H74.908C75.8446 147.699 76.604 146.985 76.604 146.104V142.749C76.604 141.868 75.8446 141.154 74.908 141.154Z" fill="#EBEBEB"/>
<path d="M76.036 139.71H58.736C58.4223 139.71 58.168 139.949 58.168 140.244V140.853C58.168 141.148 58.4223 141.387 58.736 141.387H76.036C76.3497 141.387 76.604 141.148 76.604 140.853V140.244C76.604 139.949 76.3497 139.71 76.036 139.71Z" fill="#E0E0E0"/>
<path d="M78.304 118.7C78.304 118.7 78.564 126.599 88.404 126.599C98.244 126.599 98.504 118.7 98.504 118.7H78.304Z" fill="#EBEBEB"/>
<path d="M43.116 126.603H30.844V129.363H43.116V126.603Z" fill="#E0E0E0"/>
<path d="M117.16 126.603H43.1199V129.363H117.16V126.603Z" fill="#F4F4F4"/>
<path d="M43.116 147.698H30.844V150.459H43.116V147.698Z" fill="#E0E0E0"/>
<path d="M33.5959 129.363H30.8479V153.239H33.5959V129.363Z" fill="#E0E0E0"/>
<path opacity="0.5" d="M33.596 129.363H32.22V153.239H33.596V129.363Z" fill="#F4F4F4"/>
<path d="M44.4919 129.363H41.7439V153.239H44.4919V129.363Z" fill="#F4F4F4"/>
<path d="M43.1199 129.363H41.7439V153.239H43.1199V129.363Z" fill="#E0E0E0"/>
<path d="M117.156 129.363H114.408V153.239H117.156V129.363Z" fill="#F4F4F4"/>
<path d="M115.784 129.363H114.408V153.239H115.784V129.363Z" fill="#E0E0E0"/>
<path d="M117.16 147.698H43.1199V150.459H117.16V147.698Z" fill="#F4F4F4"/>
<path d="M62.864 124.974H47.936V126.602H62.864V124.974Z" fill="#E0E0E0"/>
<path d="M68.212 124.971H62.864V126.599H68.212V124.971Z" fill="#EBEBEB"/>
<path d="M92.756 155.486C135.589 155.486 170.312 153.58 170.312 151.228C170.312 148.877 135.589 146.971 92.756 146.971C49.923 146.971 15.2 148.877 15.2 151.228C15.2 153.58 49.923 155.486 92.756 155.486Z" fill="#F5F5F5"/>
<path d="M43.3679 103.488L64.1039 146.072C64.5792 147.039 65.4425 147.791 66.5052 148.162C67.5679 148.534 68.7437 148.495 69.7759 148.054L73.0679 146.639L149.296 113.824C150.326 113.378 151.126 112.567 151.522 111.569C151.917 110.57 151.876 109.465 151.408 108.494L133.084 70.8829L130.684 65.9144C130.207 64.948 129.344 64.1977 128.281 63.8265C127.219 63.4554 126.044 63.4934 125.012 63.9323L45.4879 98.1586C44.4582 98.6042 43.6576 99.4145 43.2605 100.413C42.8634 101.411 42.902 102.516 43.3679 103.488Z" fill="#FF725E"/>
<path opacity="0.1" d="M43.3679 103.488L64.1039 146.072C64.5792 147.039 65.4425 147.791 66.5052 148.162C67.5679 148.534 68.7437 148.495 69.7759 148.054L73.0679 146.639L149.296 113.824C150.326 113.378 151.126 112.567 151.522 111.569C151.917 110.57 151.876 109.465 151.408 108.494L133.084 70.8829L130.684 65.9144C130.207 64.948 129.344 64.1977 128.281 63.8265C127.219 63.4554 126.044 63.4934 125.012 63.9323L45.4879 98.1586C44.4582 98.6042 43.6576 99.4145 43.2605 100.413C42.8634 101.411 42.902 102.516 43.3679 103.488Z" fill="white"/>
<path d="M139.086 83.1868L51.7852 120.77L62.0024 141.753L149.304 104.17L139.086 83.1868Z" fill="#FF725E"/>
<path opacity="0.3" d="M139.086 83.1868L51.7852 120.77L62.0024 141.753L149.304 104.17L139.086 83.1868Z" fill="white"/>
<path d="M135.472 92.8947L80.3027 116.645L83.9593 124.154L139.128 100.404L135.472 92.8947Z" fill="#FF725E"/>
<path opacity="0.8" d="M135.472 92.8947L80.3027 116.645L83.9593 124.154L139.128 100.404L135.472 92.8947Z" fill="white"/>
<path d="M136.098 75.5393L48.7268 113.465L54.2275 124.669L141.599 86.7433L136.098 75.5393Z" fill="#FF725E"/>
<path opacity="0.3" d="M136.098 75.5393L48.7268 113.465L54.2275 124.669L141.599 86.7433L136.098 75.5393Z" fill="black"/>
<path d="M55.2237 104.022L73.0677 146.625L149.296 113.809C150.325 113.363 151.126 112.553 151.521 111.554C151.917 110.555 151.876 109.45 151.408 108.479L133.084 70.8682L57.6397 98.8058C56.5866 99.1998 55.7417 99.9692 55.2891 100.946C54.8366 101.923 54.8131 103.029 55.2237 104.022Z" fill="#FF725E"/>
<path d="M156.119 90.556L155.741 90.6807L156.366 92.352L156.743 92.2273L156.119 90.556Z" fill="#FF725E"/>
<path opacity="0.1" d="M156.119 90.556L155.741 90.6807L156.366 92.352L156.743 92.2273L156.119 90.556Z" fill="white"/>
<path d="M152.969 82.1547L152.591 82.2793L155.051 88.8656L155.429 88.741L152.969 82.1547Z" fill="#FF725E"/>
<path opacity="0.1" d="M152.969 82.1547L152.591 82.2793L155.051 88.8656L155.429 88.741L152.969 82.1547Z" fill="white"/>
<path d="M60.5317 98.9529L143.052 71.7035C144.122 71.3532 145.297 71.4157 146.318 71.8773C147.34 72.339 148.126 73.1622 148.504 74.167L165.008 118.357C165.381 119.363 165.315 120.468 164.825 121.429C164.335 122.39 163.46 123.13 162.392 123.487L79.8717 150.736C78.8006 151.084 77.6264 151.021 76.6047 150.56C75.583 150.098 74.7963 149.276 74.4157 148.272L57.9117 104.083C57.539 103.076 57.6054 101.971 58.0963 101.01C58.5872 100.049 59.4628 99.309 60.5317 98.9529Z" fill="#FF725E"/>
<path opacity="0.1" d="M60.5317 98.9529L143.052 71.7035C144.122 71.3532 145.297 71.4157 146.318 71.8773C147.34 72.339 148.126 73.1622 148.504 74.167L165.008 118.357C165.381 119.363 165.315 120.468 164.825 121.429C164.335 122.39 163.46 123.13 162.392 123.487L79.8717 150.736C78.8006 151.084 77.6264 151.021 76.6047 150.56C75.583 150.098 74.7963 149.276 74.4157 148.272L57.9117 104.083C57.539 103.076 57.6054 101.971 58.0963 101.01C58.5872 100.049 59.4628 99.309 60.5317 98.9529Z" fill="white"/>
<path d="M154.822 91.0764L64.2297 120.99L71.4092 140.213L162.001 110.3L154.822 91.0764Z" fill="#FF725E"/>
<path opacity="0.3" d="M154.822 91.0764L64.2297 120.99L71.4092 140.213L162.001 110.3L154.822 91.0764Z" fill="white"/>
<path d="M143.978 81.7216L125.251 87.9053L126.275 90.6484L145.002 84.4647L143.978 81.7216Z" fill="#FF725E"/>
<path opacity="0.8" d="M143.978 81.7216L125.251 87.9053L126.275 90.6484L145.002 84.4647L143.978 81.7216Z" fill="white"/>
<path d="M156.524 115.314L141.5 120.275L142.035 121.709L157.06 116.748L156.524 115.314Z" fill="#FF725E"/>
<path opacity="0.8" d="M156.524 115.314L141.5 120.275L142.035 121.709L157.06 116.748L156.524 115.314Z" fill="white"/>
<path d="M157.546 118.057L138.186 124.45L138.721 125.884L158.082 119.491L157.546 118.057Z" fill="#FF725E"/>
<path opacity="0.8" d="M157.546 118.057L138.186 124.45L138.721 125.884L158.082 119.491L157.546 118.057Z" fill="white"/>
<path d="M88.512 139L78.8315 142.196L79.9833 145.28L89.6637 142.084L88.512 139Z" fill="#FF725E"/>
<path opacity="0.8" d="M88.512 139L78.8315 142.196L79.9833 145.28L89.6637 142.084L88.512 139Z" fill="white"/>
<path d="M140.272 112.586L151.576 108.855C152.172 108.656 152.66 108.243 152.934 107.707C153.208 107.171 153.246 106.555 153.04 105.993C152.828 105.433 152.389 104.974 151.819 104.716C151.249 104.458 150.594 104.423 149.996 104.617L138.688 108.351C138.092 108.551 137.604 108.963 137.33 109.499C137.056 110.035 137.017 110.651 137.224 111.214C137.437 111.774 137.876 112.233 138.447 112.49C139.018 112.747 139.674 112.782 140.272 112.586Z" fill="#FF725E"/>
<path d="M120.908 118.98L132.216 115.245C132.807 115.045 133.291 114.635 133.564 114.102C133.837 113.57 133.877 112.958 133.676 112.398C133.463 111.838 133.024 111.38 132.454 111.123C131.884 110.866 131.229 110.831 130.632 111.025L119.328 114.76C118.732 114.959 118.244 115.372 117.97 115.908C117.695 116.444 117.657 117.06 117.864 117.622C118.08 118.179 118.52 118.634 119.09 118.888C119.659 119.142 120.312 119.175 120.908 118.98Z" fill="#FF725E"/>
<path d="M101.556 125.375L112.864 121.64C113.454 121.438 113.936 121.027 114.208 120.495C114.479 119.962 114.518 119.351 114.316 118.793C114.103 118.233 113.664 117.775 113.094 117.518C112.524 117.261 111.869 117.226 111.272 117.42L99.9557 121.14C99.3606 121.34 98.8734 121.753 98.6 122.288C98.3267 122.824 98.2892 123.44 98.4957 124.002C98.7085 124.565 99.1502 125.026 99.7238 125.283C100.297 125.541 100.956 125.573 101.556 125.375Z" fill="#FF725E"/>
<path d="M82.1838 131.768L93.4918 128.033C94.084 127.834 94.5692 127.424 94.843 126.891C95.1168 126.359 95.1573 125.746 94.9558 125.186C94.743 124.626 94.3039 124.168 93.7339 123.911C93.164 123.654 92.5092 123.619 91.9118 123.813L80.6038 127.548C80.0079 127.748 79.5198 128.16 79.2457 128.696C78.9715 129.232 78.9335 129.848 79.1398 130.41C79.3559 130.967 79.7963 131.422 80.3659 131.676C80.9355 131.93 81.5885 131.963 82.1838 131.768Z" fill="#FF725E"/>
<g opacity="0.8">
<path d="M140.272 112.586L151.576 108.855C152.172 108.656 152.66 108.243 152.934 107.707C153.208 107.171 153.246 106.555 153.04 105.993C152.828 105.433 152.389 104.974 151.819 104.716C151.249 104.458 150.594 104.423 149.996 104.617L138.688 108.351C138.092 108.551 137.604 108.963 137.33 109.499C137.056 110.035 137.017 110.651 137.224 111.214C137.437 111.774 137.876 112.233 138.447 112.49C139.018 112.747 139.674 112.782 140.272 112.586Z" fill="white"/>
<path d="M120.908 118.98L132.216 115.245C132.807 115.045 133.292 114.635 133.565 114.102C133.838 113.57 133.878 112.958 133.676 112.398C133.463 111.838 133.024 111.38 132.454 111.123C131.884 110.866 131.229 110.831 130.632 111.025L119.328 114.76C118.732 114.959 118.244 115.372 117.97 115.908C117.696 116.444 117.658 117.06 117.864 117.622C118.08 118.179 118.52 118.634 119.09 118.888C119.66 119.142 120.313 119.175 120.908 118.98Z" fill="white"/>
<path d="M101.556 125.375L112.864 121.64C113.454 121.438 113.936 121.027 114.208 120.495C114.479 119.962 114.518 119.351 114.316 118.793C114.103 118.233 113.664 117.775 113.094 117.518C112.524 117.261 111.869 117.226 111.272 117.42L99.9557 121.14C99.3606 121.34 98.8734 121.753 98.6 122.288C98.3267 122.824 98.2892 123.44 98.4957 124.002C98.7085 124.565 99.1502 125.026 99.7238 125.283C100.297 125.541 100.956 125.573 101.556 125.375Z" fill="white"/>
<path d="M82.1838 131.768L93.4918 128.033C94.084 127.834 94.5692 127.424 94.843 126.891C95.1168 126.359 95.1573 125.746 94.9558 125.186C94.743 124.626 94.3039 124.168 93.7339 123.911C93.164 123.654 92.5092 123.619 91.9118 123.813L80.6038 127.548C80.0079 127.748 79.5198 128.16 79.2457 128.696C78.9715 129.232 78.9335 129.848 79.1398 130.41C79.3559 130.967 79.7963 131.422 80.3659 131.676C80.9355 131.93 81.5885 131.963 82.1838 131.768Z" fill="white"/>
</g>
<path d="M146.148 92.1862L136.086 95.5086C135.231 95.7908 134.782 96.6709 135.082 97.4745L137.179 103.088C137.479 103.892 138.415 104.315 139.269 104.032L149.331 100.71C150.186 100.428 150.635 99.5478 150.335 98.7442L148.238 93.1302C147.938 92.3267 147.002 91.904 146.148 92.1862Z" fill="#FF725E"/>
<path opacity="0.3" d="M146.148 92.1862L136.086 95.5086C135.231 95.7908 134.782 96.6709 135.082 97.4745L137.179 103.088C137.479 103.892 138.415 104.315 139.269 104.032L149.331 100.71C150.186 100.428 150.635 99.5478 150.335 98.7442L148.238 93.1302C147.938 92.3267 147.002 91.904 146.148 92.1862Z" fill="black"/>
<path d="M85.4279 102.619C85.177 101.945 84.7872 101.324 84.2808 100.791C83.7744 100.259 83.1613 99.8256 82.4766 99.5161C81.7919 99.2066 81.0491 99.0271 80.2905 98.9877C79.532 98.9484 78.7727 99.0501 78.0559 99.2869L69.9279 102.157L69.8239 102.183L69.5839 102.277L69.4359 102.33C68.1235 102.887 67.0899 103.898 66.5496 105.153C66.0094 106.408 66.0042 107.811 66.535 109.07C67.0658 110.328 68.0919 111.346 69.4001 111.912C70.7083 112.478 72.198 112.548 73.5599 112.109L81.2559 109.701C81.4777 109.655 81.6967 109.597 81.9119 109.528C82.0712 109.476 82.2274 109.416 82.3799 109.348C83.6879 108.785 84.7253 107.783 85.289 106.538C85.8527 105.294 85.9023 103.896 85.4279 102.619Z" fill="#FF725E"/>
<path opacity="0.8" d="M85.4279 102.619C85.177 101.945 84.7872 101.324 84.2808 100.791C83.7744 100.259 83.1613 99.8256 82.4766 99.5161C81.7919 99.2066 81.0491 99.0271 80.2905 98.9877C79.532 98.9484 78.7727 99.0501 78.0559 99.2869L69.9279 102.157L69.8239 102.183L69.5839 102.277L69.4359 102.33C68.1235 102.887 67.0899 103.898 66.5496 105.153C66.0094 106.408 66.0042 107.811 66.535 109.07C67.0658 110.328 68.0919 111.346 69.4001 111.912C70.7083 112.478 72.198 112.548 73.5599 112.109L81.2559 109.701C81.4777 109.655 81.6967 109.597 81.9119 109.528C82.0712 109.476 82.2274 109.416 82.3799 109.348C83.6879 108.785 84.7253 107.783 85.289 106.538C85.8527 105.294 85.9023 103.896 85.4279 102.619Z" fill="white"/>
</g>
<defs>
<clipPath id="clip0_38_2884">
<rect width="200" height="140.124" fill="white" transform="translate(0 30.0996)"/>
</clipPath>
</defs>
</svg>
